solid OpenSCAD_Model
  facet normal 0 0 1
    outer loop
      vertex 0.0988775 0.183048 0.359261
      vertex 0.0974069 0.185765 0.359261
      vertex 0.0993861 0.18 0.359261
    endloop
  endfacet
  facet normal 0.0258208 -0.311815 -0.949792
    outer loop
      vertex 0.0966869 0.153594 0.24654
      vertex 0.0877506 0.152854 0.24654
      vertex 0.0923041 0.170901 0.240739
    endloop
  endfacet
  facet normal 0.275159 0.148919 -0.949795
    outer loop
      vertex 0.111496 0.196731 0.24654
      vertex 0.115764 0.188845 0.24654
      vertex 0.0988775 0.183048 0.240739
    endloop
  endfacet
  facet normal 0 0 1
    outer loop
      vertex 0.0974069 0.185765 0.359261
      vertex 0.0817452 0.175533 0.359261
      vertex 0.0993861 0.18 0.359261
    endloop
  endfacet
  facet normal 0.308614 0.0514648 -0.949794
    outer loop
      vertex 0.0988775 0.183048 0.240739
      vertex 0.115764 0.188845 0.24654
      vertex 0.117239 0.18 0.24654
    endloop
  endfacet
  facet normal -0.847868 -0.291077 -0.443164
    outer loop
      vertex 0.042983 0.154556 0.272761
      vertex 0.017562 0.170475 0.310941
      vertex 0.0372687 0.171201 0.272761
    endloop
  endfacet
  facet normal 0.401681 0.436339 0.805146
    outer loop
      vertex 0.113205 0.215518 0.342426
      vertex 0.104899 0.202804 0.35346
      vertex 0.111496 0.196731 0.35346
    endloop
  endfacet
  facet normal 0.401682 0.915779 0
    outer loop
      vertex 0.104548 0.237448 0.309386
      vertex 0.122413 0.229612 0.309386
      vertex 0.122413 0.229612 0.290614
    endloop
  endfacet
  facet normal 0 0 -1
    outer loop
      vertex 0.0923041 0.170901 0.240739
      vertex 0.0817452 0.175533 0.240739
      vertex 0.0817452 0.184467 0.240739
    endloop
  endfacet
  facet normal -0.145603 0.574896 -0.805168
    outer loop
      vertex 0.0864965 0.222282 0.257574
      vertex 0.0877506 0.207146 0.24654
      vertex 0.0729575 0.218853 0.257574
    endloop
  endfacet
  facet normal 0.308614 0.0514648 0.949794
    outer loop
      vertex 0.117239 0.18 0.35346
      vertex 0.115764 0.188845 0.35346
      vertex 0.0988775 0.183048 0.359261
    endloop
  endfacet
  facet normal 0.550516 0.598008 0.582511
    outer loop
      vertex 0.113205 0.215518 0.342426
      vertex 0.12348 0.206059 0.342426
      vertex 0.132188 0.212836 0.327239
    endloop
  endfacet
  facet normal -0.324381 -0.496491 -0.805155
    outer loop
      vertex 0.079058 0.155055 0.24654
      vertex 0.0729575 0.141147 0.257574
      vertex 0.0612654 0.148786 0.257574
    endloop
  endfacet
  facet normal 0 0 -1
    outer loop
      vertex 0.0923041 0.170901 0.240739
      vertex 0.0988775 0.183048 0.240739
      vertex 0.0993861 0.18 0.240739
    endloop
  endfacet
  facet normal -0.324387 0.496501 -0.805146
    outer loop
      vertex 0.0612654 0.211214 0.257574
      vertex 0.0729575 0.218853 0.257574
      vertex 0.0715512 0.200041 0.24654
    endloop
  endfacet
  facet normal -0.634247 -0.773131 -0
    outer loop
      vertex 0.0278609 0.15445 0.329059
      vertex 0.0278609 0.15445 0.310941
      vertex 0.0498634 0.1364 0.290614
    endloop
  endfacet
  facet normal 0.550506 0.598033 -0.582494
    outer loop
      vertex 0.113205 0.215518 0.257574
      vertex 0.11924 0.224755 0.272761
      vertex 0.132188 0.212836 0.272761
    endloop
  endfacet
  facet normal 0.401686 -0.436338 0.805144
    outer loop
      vertex 0.111496 0.163269 0.35346
      vertex 0.113205 0.144482 0.342426
      vertex 0.12348 0.153941 0.342426
    endloop
  endfacet
  facet normal -0.874745 0 0.484583
    outer loop
      vertex 0.0262538 0.173027 0.344749
      vertex 0.017562 0.189525 0.329059
      vertex 0.017562 0.170475 0.329059
    endloop
  endfacet
  facet normal -0.81283 -0 -0.582501
    outer loop
      vertex 0.0481522 0.186983 0.257574
      vertex 0.0481522 0.173017 0.257574
      vertex 0.0372687 0.171201 0.272761
    endloop
  endfacet
  facet normal -0.417873 0.764136 0.491405
    outer loop
      vertex 0.0685252 0.228958 0.327239
      vertex 0.0278609 0.20555 0.329059
      vertex 0.033793 0.198704 0.344749
    endloop
  endfacet
  facet normal -0.133929 0.204991 0.969558
    outer loop
      vertex 0.0440678 0.186846 0.353807
      vertex 0.083643 0.186906 0.359261
      vertex 0.0862297 0.188596 0.359261
    endloop
  endfacet
  facet normal -0 0 1
    outer loop
      vertex 0.0817452 0.175533 0.359261
      vertex 0.0923041 0.170901 0.359261
      vertex 0.0993861 0.18 0.359261
    endloop
  endfacet
  facet normal -0.433714 -0.278723 0.856858
    outer loop
      vertex 0.033793 0.161296 0.344749
      vertex 0.0440678 0.173154 0.353807
      vertex 0.0413083 0.177448 0.353807
    endloop
  endfacet
  facet normal 0.986361 0.164598 -0
    outer loop
      vertex 0.14605 0.199242 0.290614
      vertex 0.14605 0.199242 0.309386
      vertex 0.149261 0.18 0.309386
    endloop
  endfacet
  facet normal -0.137004 0 0.99057
    outer loop
      vertex 0.0807419 0.181545 0.359261
      vertex 0.0413083 0.182552 0.353807
      vertex 0.0413083 0.177448 0.353807
    endloop
  endfacet
  facet normal 0.58498 -0.0975816 0.805156
    outer loop
      vertex 0.117239 0.18 0.35346
      vertex 0.130128 0.166224 0.342426
      vertex 0.132426 0.18 0.342426
    endloop
  endfacet
  facet normal -0.560938 0.192566 -0.80515
    outer loop
      vertex 0.0526871 0.200193 0.257574
      vertex 0.0660436 0.192965 0.24654
      vertex 0.0481522 0.186983 0.257574
    endloop
  endfacet
  facet normal 0.211903 0.230187 0.949795
    outer loop
      vertex 0.111496 0.196731 0.35346
      vertex 0.104899 0.202804 0.35346
      vertex 0.0974069 0.185765 0.359261
    endloop
  endfacet
  facet normal 0.308619 0.0514972 0.949791
    outer loop
      vertex 0.0993861 0.18 0.359261
      vertex 0.117239 0.18 0.35346
      vertex 0.0988775 0.183048 0.359261
    endloop
  endfacet
  facet normal -0.233763 0.923151 0.3052
    outer loop
      vertex 0.0851062 0.239059 0.309386
      vertex 0.0685252 0.228958 0.327239
      vertex 0.0855853 0.233278 0.327239
    endloop
  endfacet
  facet normal 0.837517 -0.453256 0.305164
    outer loop
      vertex 0.140564 0.162641 0.327239
      vertex 0.132188 0.147164 0.327239
      vertex 0.14605 0.160758 0.309386
    endloop
  endfacet
  facet normal 0.584982 0.0975521 0.805158
    outer loop
      vertex 0.132426 0.18 0.342426
      vertex 0.115764 0.188845 0.35346
      vertex 0.117239 0.18 0.35346
    endloop
  endfacet
  facet normal 0.382519 0.87209 -0.305185
    outer loop
      vertex 0.104548 0.237448 0.290614
      vertex 0.122413 0.229612 0.290614
      vertex 0.103124 0.231825 0.272761
    endloop
  endfacet
  facet normal 0.0671099 0.810062 0.582491
    outer loop
      vertex 0.0855853 0.233278 0.327239
      vertex 0.0864965 0.222282 0.342426
      vertex 0.103124 0.231825 0.327239
    endloop
  endfacet
  facet normal 0.0490041 0.591043 -0.80515
    outer loop
      vertex 0.0966869 0.206406 0.24654
      vertex 0.0864965 0.222282 0.257574
      vertex 0.100415 0.221128 0.257574
    endloop
  endfacet
  facet normal 0.0786233 0.949037 -0.305199
    outer loop
      vertex 0.103124 0.231825 0.272761
      vertex 0.0855853 0.233278 0.272761
      vertex 0.0851062 0.239059 0.290614
    endloop
  endfacet
  facet normal -0.593066 0 -0.805154
    outer loop
      vertex 0.0631321 0.175517 0.24654
      vertex 0.0481522 0.173017 0.257574
      vertex 0.0481522 0.186983 0.257574
    endloop
  endfacet
  facet normal -0.135688 -0.0465899 0.989656
    outer loop
      vertex 0.0817452 0.175533 0.359261
      vertex 0.0807419 0.178455 0.359261
      vertex 0.0413083 0.177448 0.353807
    endloop
  endfacet
  facet normal 0 0 1
    outer loop
      vertex 0.0974069 0.185765 0.359261
      vertex 0.0862297 0.188596 0.359261
      vertex 0.0817452 0.175533 0.359261
    endloop
  endfacet
  facet normal 0.0786401 -0.949041 -0.305183
    outer loop
      vertex 0.103124 0.128175 0.272761
      vertex 0.104548 0.122552 0.290614
      vertex 0.0851062 0.120941 0.290614
    endloop
  endfacet
  facet normal -0.223765 -0.543632 0.808946
    outer loop
      vertex 0.0464779 0.155503 0.344749
      vertex 0.0729575 0.141147 0.342426
      vertex 0.079058 0.155055 0.35346
    endloop
  endfacet
  facet normal 0.58498 -0.0975816 -0.805156
    outer loop
      vertex 0.132426 0.18 0.257574
      vertex 0.130128 0.166224 0.257574
      vertex 0.117239 0.18 0.24654
    endloop
  endfacet
  facet normal -0.444592 -0.680462 -0.582503
    outer loop
      vertex 0.0685252 0.131042 0.272761
      vertex 0.0537923 0.140668 0.272761
      vertex 0.0612654 0.148786 0.257574
    endloop
  endfacet
  facet normal -0.444589 0.680458 -0.58251
    outer loop
      vertex 0.0685252 0.228958 0.272761
      vertex 0.0729575 0.218853 0.257574
      vertex 0.0537923 0.219332 0.272761
    endloop
  endfacet
  facet normal 0.801749 0.133741 -0.582505
    outer loop
      vertex 0.132426 0.18 0.257574
      vertex 0.130128 0.193776 0.257574
      vertex 0.14346 0.18 0.272761
    endloop
  endfacet
  facet normal 0.0786401 0.949041 -0.305183
    outer loop
      vertex 0.104548 0.237448 0.290614
      vertex 0.103124 0.231825 0.272761
      vertex 0.0851062 0.239059 0.290614
    endloop
  endfacet
  facet normal 0.644946 0.700626 0.305235
    outer loop
      vertex 0.132188 0.212836 0.327239
      vertex 0.122413 0.229612 0.309386
      vertex 0.11924 0.224755 0.327239
    endloop
  endfacet
  facet normal 0.0489412 0.591018 0.805172
    outer loop
      vertex 0.0966869 0.206406 0.35346
      vertex 0.0864965 0.222282 0.342426
      vertex 0.0877506 0.207146 0.35346
    endloop
  endfacet
  facet normal 0.801749 0.133741 0.582505
    outer loop
      vertex 0.14346 0.18 0.327239
      vertex 0.130128 0.193776 0.342426
      vertex 0.132426 0.18 0.342426
    endloop
  endfacet
  facet normal -0.841247 0.54065 0
    outer loop
      vertex 0.017562 0.189525 0.329059
      vertex 0.0278609 0.20555 0.329059
      vertex 0.0278609 0.20555 0.310941
    endloop
  endfacet
  facet normal 0.644999 0.7006 0.305181
    outer loop
      vertex 0.136765 0.216399 0.309386
      vertex 0.122413 0.229612 0.309386
      vertex 0.132188 0.212836 0.327239
    endloop
  endfacet
  facet normal 0.326546 0.744358 0.582494
    outer loop
      vertex 0.11924 0.224755 0.327239
      vertex 0.103124 0.231825 0.327239
      vertex 0.113205 0.215518 0.342426
    endloop
  endfacet
  facet normal 0.550506 0.598033 0.582494
    outer loop
      vertex 0.113205 0.215518 0.342426
      vertex 0.132188 0.212836 0.327239
      vertex 0.11924 0.224755 0.327239
    endloop
  endfacet
  facet normal 0.0825797 -0.996584 0
    outer loop
      vertex 0.104548 0.122552 0.309386
      vertex 0.0851062 0.120941 0.309386
      vertex 0.0851062 0.120941 0.290614
    endloop
  endfacet
  facet normal 0.308619 -0.0514972 -0.949791
    outer loop
      vertex 0.117239 0.18 0.24654
      vertex 0.0988775 0.176952 0.240739
      vertex 0.0993861 0.18 0.240739
    endloop
  endfacet
  facet normal 0.0489412 -0.591018 0.805172
    outer loop
      vertex 0.0966869 0.153594 0.35346
      vertex 0.0877506 0.152854 0.35346
      vertex 0.0864965 0.137718 0.342426
    endloop
  endfacet
  facet normal 0.0258208 -0.311815 0.949792
    outer loop
      vertex 0.0923041 0.170901 0.359261
      vertex 0.0877506 0.152854 0.35346
      vertex 0.0966869 0.153594 0.35346
    endloop
  endfacet
  facet normal -0.888612 0 -0.458659
    outer loop
      vertex 0.0372687 0.171201 0.272761
      vertex 0.017562 0.170475 0.310941
      vertex 0.017562 0.189525 0.310941
    endloop
  endfacet
  facet normal 0 0 -1
    outer loop
      vertex 0.0923041 0.170901 0.240739
      vertex 0.0817452 0.184467 0.240739
      vertex 0.0988775 0.183048 0.240739
    endloop
  endfacet
  facet normal -1 -0 -0
    outer loop
      vertex 0.017562 0.189525 0.329059
      vertex 0.017562 0.189525 0.310941
      vertex 0.017562 0.170475 0.329059
    endloop
  endfacet
  facet normal -0.841247 0.54065 0
    outer loop
      vertex 0.0278609 0.20555 0.310941
      vertex 0.017562 0.189525 0.310941
      vertex 0.017562 0.189525 0.329059
    endloop
  endfacet
  facet normal -0.79775 0.512696 -0.317391
    outer loop
      vertex 0.0278609 0.20555 0.310941
      vertex 0.042983 0.205444 0.272761
      vertex 0.017562 0.189525 0.310941
    endloop
  endfacet
  facet normal -0.4643 0.830506 0.307711
    outer loop
      vertex 0.066195 0.23427 0.309386
      vertex 0.0278609 0.20555 0.329059
      vertex 0.0685252 0.228958 0.327239
    endloop
  endfacet
  facet normal -0.0767605 0.303315 0.949794
    outer loop
      vertex 0.0862297 0.188596 0.359261
      vertex 0.0892249 0.189354 0.359261
      vertex 0.0877506 0.207146 0.35346
    endloop
  endfacet
  facet normal 0 0 1
    outer loop
      vertex 0.0974069 0.185765 0.359261
      vertex 0.0923041 0.189099 0.359261
      vertex 0.0862297 0.188596 0.359261
    endloop
  endfacet
  facet normal 0 0 1
    outer loop
      vertex 0.0862297 0.188596 0.359261
      vertex 0.0807419 0.181545 0.359261
      vertex 0.0817452 0.175533 0.359261
    endloop
  endfacet
  facet normal -0.229697 0.502966 0.833225
    outer loop
      vertex 0.079058 0.204945 0.35346
      vertex 0.0464779 0.204497 0.344749
      vertex 0.033793 0.198704 0.344749
    endloop
  endfacet
  facet normal 0.211903 -0.230187 0.949795
    outer loop
      vertex 0.104899 0.157196 0.35346
      vertex 0.111496 0.163269 0.35346
      vertex 0.0974069 0.174235 0.359261
    endloop
  endfacet
  facet normal -0.4643 -0.830506 0.307711
    outer loop
      vertex 0.066195 0.12573 0.309386
      vertex 0.0685252 0.131042 0.327239
      vertex 0.0278609 0.15445 0.329059
    endloop
  endfacet
  facet normal -0.433703 -0.27873 0.856861
    outer loop
      vertex 0.0262538 0.173027 0.344749
      vertex 0.033793 0.161296 0.344749
      vertex 0.0413083 0.177448 0.353807
    endloop
  endfacet
  facet normal -0.73588 -0.472931 0.484579
    outer loop
      vertex 0.017562 0.170475 0.329059
      vertex 0.033793 0.161296 0.344749
      vertex 0.0262538 0.173027 0.344749
    endloop
  endfacet
  facet normal 0.0490041 -0.591043 -0.80515
    outer loop
      vertex 0.0864965 0.137718 0.257574
      vertex 0.0966869 0.153594 0.24654
      vertex 0.100415 0.138872 0.257574
    endloop
  endfacet
  facet normal 0.308614 -0.0514648 0.949794
    outer loop
      vertex 0.0988775 0.176952 0.359261
      vertex 0.115764 0.171155 0.35346
      vertex 0.117239 0.18 0.35346
    endloop
  endfacet
  facet normal 0.837517 0.453256 -0.305164
    outer loop
      vertex 0.14605 0.199242 0.290614
      vertex 0.140564 0.197359 0.272761
      vertex 0.132188 0.212836 0.272761
    endloop
  endfacet
  facet normal 0.326492 -0.744356 -0.582527
    outer loop
      vertex 0.100415 0.138872 0.257574
      vertex 0.113205 0.144482 0.257574
      vertex 0.103124 0.128175 0.272761
    endloop
  endfacet
  facet normal 0.939297 -0.156745 -0.305207
    outer loop
      vertex 0.14346 0.18 0.272761
      vertex 0.149261 0.18 0.290614
      vertex 0.14605 0.160758 0.290614
    endloop
  endfacet
  facet normal 0.939317 0.156706 -0.305168
    outer loop
      vertex 0.14346 0.18 0.272761
      vertex 0.140564 0.197359 0.272761
      vertex 0.14605 0.199242 0.290614
    endloop
  endfacet
  facet normal -0.641448 -0.499251 -0.582488
    outer loop
      vertex 0.042983 0.154556 0.272761
      vertex 0.0526871 0.159807 0.257574
      vertex 0.0537923 0.140668 0.272761
    endloop
  endfacet
  facet normal -0.560935 0.192544 -0.805158
    outer loop
      vertex 0.0660436 0.192965 0.24654
      vertex 0.0631321 0.184483 0.24654
      vertex 0.0481522 0.186983 0.257574
    endloop
  endfacet
  facet normal 0.238227 0.543124 -0.805148
    outer loop
      vertex 0.100415 0.221128 0.257574
      vertex 0.113205 0.215518 0.257574
      vertex 0.0966869 0.206406 0.24654
    endloop
  endfacet
  facet normal -0.641428 0.499261 -0.582502
    outer loop
      vertex 0.0537923 0.219332 0.272761
      vertex 0.0612654 0.211214 0.257574
      vertex 0.0526871 0.200193 0.257574
    endloop
  endfacet
  facet normal 0.677311 0.735697 -0
    outer loop
      vertex 0.122413 0.229612 0.290614
      vertex 0.122413 0.229612 0.309386
      vertex 0.136765 0.216399 0.309386
    endloop
  endfacet
  facet normal 0.677311 0.735697 0
    outer loop
      vertex 0.136765 0.216399 0.309386
      vertex 0.136765 0.216399 0.290614
      vertex 0.122413 0.229612 0.290614
    endloop
  endfacet
  facet normal -0.73588 0.472933 0.484577
    outer loop
      vertex 0.033793 0.198704 0.344749
      vertex 0.0278609 0.20555 0.329059
      vertex 0.017562 0.189525 0.329059
    endloop
  endfacet
  facet normal -0.245487 0.9694 0
    outer loop
      vertex 0.066195 0.23427 0.309386
      vertex 0.0851062 0.239059 0.309386
      vertex 0.0851062 0.239059 0.290614
    endloop
  endfacet
  facet normal 0.401682 0.915779 -0
    outer loop
      vertex 0.104548 0.237448 0.290614
      vertex 0.104548 0.237448 0.309386
      vertex 0.122413 0.229612 0.290614
    endloop
  endfacet
  facet normal 0.0825797 0.996584 0
    outer loop
      vertex 0.0851062 0.239059 0.290614
      vertex 0.104548 0.237448 0.309386
      vertex 0.104548 0.237448 0.290614
    endloop
  endfacet
  facet normal 0.238227 0.543124 0.805148
    outer loop
      vertex 0.113205 0.215518 0.342426
      vertex 0.100415 0.221128 0.342426
      vertex 0.0966869 0.206406 0.35346
    endloop
  endfacet
  facet normal 0.275151 0.148928 0.949796
    outer loop
      vertex 0.0988775 0.183048 0.359261
      vertex 0.111496 0.196731 0.35346
      vertex 0.0974069 0.185765 0.359261
    endloop
  endfacet
  facet normal 0.801754 0.133756 0.582495
    outer loop
      vertex 0.140564 0.197359 0.327239
      vertex 0.130128 0.193776 0.342426
      vertex 0.14346 0.18 0.327239
    endloop
  endfacet
  facet normal 0.879472 0.475951 0
    outer loop
      vertex 0.136765 0.216399 0.309386
      vertex 0.14605 0.199242 0.309386
      vertex 0.14605 0.199242 0.290614
    endloop
  endfacet
  facet normal 0.0786233 0.949037 0.305199
    outer loop
      vertex 0.103124 0.231825 0.327239
      vertex 0.0851062 0.239059 0.309386
      vertex 0.0855853 0.233278 0.327239
    endloop
  endfacet
  facet normal 0.0258209 0.311815 0.949792
    outer loop
      vertex 0.0892249 0.189354 0.359261
      vertex 0.0966869 0.206406 0.35346
      vertex 0.0877506 0.207146 0.35346
    endloop
  endfacet
  facet normal 0.644946 -0.700626 -0.305235
    outer loop
      vertex 0.122413 0.130388 0.290614
      vertex 0.11924 0.135245 0.272761
      vertex 0.132188 0.147164 0.272761
    endloop
  endfacet
  facet normal 0 0 -1
    outer loop
      vertex 0.0923041 0.170901 0.240739
      vertex 0.0862297 0.171404 0.240739
      vertex 0.0817452 0.175533 0.240739
    endloop
  endfacet
  facet normal 0.879472 -0.475951 0
    outer loop
      vertex 0.14605 0.160758 0.309386
      vertex 0.136765 0.143601 0.309386
      vertex 0.136765 0.143601 0.290614
    endloop
  endfacet
  facet normal 0.677311 -0.735697 0
    outer loop
      vertex 0.136765 0.143601 0.290614
      vertex 0.136765 0.143601 0.309386
      vertex 0.122413 0.130388 0.309386
    endloop
  endfacet
  facet normal 0.0671607 -0.810032 -0.582528
    outer loop
      vertex 0.103124 0.128175 0.272761
      vertex 0.0864965 0.137718 0.257574
      vertex 0.100415 0.138872 0.257574
    endloop
  endfacet
  facet normal -0.199531 -0.787967 -0.582491
    outer loop
      vertex 0.0864965 0.137718 0.257574
      vertex 0.0855853 0.126722 0.272761
      vertex 0.0685252 0.131042 0.272761
    endloop
  endfacet
  facet normal -0.641428 -0.499261 -0.582502
    outer loop
      vertex 0.0537923 0.140668 0.272761
      vertex 0.0526871 0.159807 0.257574
      vertex 0.0612654 0.148786 0.257574
    endloop
  endfacet
  facet normal 0.308614 -0.0514648 -0.949794
    outer loop
      vertex 0.115764 0.171155 0.24654
      vertex 0.0988775 0.176952 0.240739
      vertex 0.117239 0.18 0.24654
    endloop
  endfacet
  facet normal -0.768791 0.263921 -0.5825
    outer loop
      vertex 0.0481522 0.186983 0.257574
      vertex 0.0372687 0.188799 0.272761
      vertex 0.0526871 0.200193 0.257574
    endloop
  endfacet
  facet normal -0.81283 0 -0.582501
    outer loop
      vertex 0.0372687 0.171201 0.272761
      vertex 0.0372687 0.188799 0.272761
      vertex 0.0481522 0.186983 0.257574
    endloop
  endfacet
  facet normal -0.520874 -0.797214 -0.305189
    outer loop
      vertex 0.066195 0.12573 0.290614
      vertex 0.0537923 0.140668 0.272761
      vertex 0.0685252 0.131042 0.272761
    endloop
  endfacet
  facet normal -0.199561 -0.787941 0.582515
    outer loop
      vertex 0.0729575 0.141147 0.342426
      vertex 0.0685252 0.131042 0.327239
      vertex 0.0864965 0.137718 0.342426
    endloop
  endfacet
  facet normal -0.137247 0.0882004 0.986602
    outer loop
      vertex 0.0440678 0.186846 0.353807
      vertex 0.0413083 0.182552 0.353807
      vertex 0.0817452 0.184467 0.359261
    endloop
  endfacet
  facet normal -0.135688 0.0465899 0.989656
    outer loop
      vertex 0.0817452 0.184467 0.359261
      vertex 0.0413083 0.182552 0.353807
      vertex 0.0807419 0.181545 0.359261
    endloop
  endfacet
  facet normal -0.768793 0.26393 -0.582494
    outer loop
      vertex 0.0526871 0.200193 0.257574
      vertex 0.0372687 0.188799 0.272761
      vertex 0.042983 0.205444 0.272761
    endloop
  endfacet
  facet normal -1 0 0
    outer loop
      vertex 0.017562 0.189525 0.310941
      vertex 0.017562 0.170475 0.310941
      vertex 0.017562 0.170475 0.329059
    endloop
  endfacet
  facet normal -0.233775 0.923152 -0.305188
    outer loop
      vertex 0.0685252 0.228958 0.272761
      vertex 0.066195 0.23427 0.290614
      vertex 0.0851062 0.239059 0.290614
    endloop
  endfacet
  facet normal -0.520874 0.797214 -0.305189
    outer loop
      vertex 0.0537923 0.219332 0.272761
      vertex 0.066195 0.23427 0.290614
      vertex 0.0685252 0.228958 0.272761
    endloop
  endfacet
  facet normal 0 0 1
    outer loop
      vertex 0.0923041 0.189099 0.359261
      vertex 0.0892249 0.189354 0.359261
      vertex 0.0862297 0.188596 0.359261
    endloop
  endfacet
  facet normal 0.326492 0.744356 0.582527
    outer loop
      vertex 0.103124 0.231825 0.327239
      vertex 0.100415 0.221128 0.342426
      vertex 0.113205 0.215518 0.342426
    endloop
  endfacet
  facet normal 0 0 1
    outer loop
      vertex 0.0807419 0.181545 0.359261
      vertex 0.0807419 0.178455 0.359261
      vertex 0.0817452 0.175533 0.359261
    endloop
  endfacet
  facet normal -0.137004 0 0.99057
    outer loop
      vertex 0.0413083 0.177448 0.353807
      vertex 0.0807419 0.178455 0.359261
      vertex 0.0807419 0.181545 0.359261
    endloop
  endfacet
  facet normal 0 0 1
    outer loop
      vertex 0.0862297 0.188596 0.359261
      vertex 0.0817452 0.184467 0.359261
      vertex 0.0807419 0.181545 0.359261
    endloop
  endfacet
  facet normal -0.145572 0.574922 0.805155
    outer loop
      vertex 0.0729575 0.218853 0.342426
      vertex 0.079058 0.204945 0.35346
      vertex 0.0877506 0.207146 0.35346
    endloop
  endfacet
  facet normal -0.229697 -0.502966 0.833225
    outer loop
      vertex 0.033793 0.161296 0.344749
      vertex 0.0464779 0.155503 0.344749
      vertex 0.079058 0.155055 0.35346
    endloop
  endfacet
  facet normal 0 0 1
    outer loop
      vertex 0.0923041 0.170901 0.359261
      vertex 0.0974069 0.174235 0.359261
      vertex 0.0993861 0.18 0.359261
    endloop
  endfacet
  facet normal -0.310899 -0.680774 0.663241
    outer loop
      vertex 0.033793 0.161296 0.344749
      vertex 0.0729575 0.141147 0.342426
      vertex 0.0464779 0.155503 0.344749
    endloop
  endfacet
  facet normal -0.73588 -0.472933 0.484577
    outer loop
      vertex 0.017562 0.170475 0.329059
      vertex 0.0278609 0.15445 0.329059
      vertex 0.033793 0.161296 0.344749
    endloop
  endfacet
  facet normal 0.401682 -0.915779 0
    outer loop
      vertex 0.104548 0.122552 0.309386
      vertex 0.122413 0.130388 0.290614
      vertex 0.122413 0.130388 0.309386
    endloop
  endfacet
  facet normal 0.714858 -0.386874 0.5825
    outer loop
      vertex 0.130128 0.166224 0.342426
      vertex 0.132188 0.147164 0.327239
      vertex 0.140564 0.162641 0.327239
    endloop
  endfacet
  facet normal 0.326492 -0.744356 0.582527
    outer loop
      vertex 0.103124 0.128175 0.327239
      vertex 0.113205 0.144482 0.342426
      vertex 0.100415 0.138872 0.342426
    endloop
  endfacet
  facet normal -0.145606 -0.574909 0.805157
    outer loop
      vertex 0.079058 0.155055 0.35346
      vertex 0.0729575 0.141147 0.342426
      vertex 0.0864965 0.137718 0.342426
    endloop
  endfacet
  facet normal 0.125666 0.286531 -0.949794
    outer loop
      vertex 0.0951337 0.187858 0.240739
      vertex 0.0923041 0.189099 0.240739
      vertex 0.0966869 0.206406 0.24654
    endloop
  endfacet
  facet normal 0.275151 0.148928 -0.949796
    outer loop
      vertex 0.0988775 0.183048 0.240739
      vertex 0.0974069 0.185765 0.240739
      vertex 0.111496 0.196731 0.24654
    endloop
  endfacet
  facet normal 0.326492 0.744356 -0.582527
    outer loop
      vertex 0.103124 0.231825 0.272761
      vertex 0.113205 0.215518 0.257574
      vertex 0.100415 0.221128 0.257574
    endloop
  endfacet
  facet normal 0.326546 0.744358 -0.582494
    outer loop
      vertex 0.103124 0.231825 0.272761
      vertex 0.11924 0.224755 0.272761
      vertex 0.113205 0.215518 0.257574
    endloop
  endfacet
  facet normal 0.714832 0.386893 -0.58252
    outer loop
      vertex 0.130128 0.193776 0.257574
      vertex 0.12348 0.206059 0.257574
      vertex 0.132188 0.212836 0.272761
    endloop
  endfacet
  facet normal 0.521584 0.2823 -0.805144
    outer loop
      vertex 0.111496 0.196731 0.24654
      vertex 0.12348 0.206059 0.257574
      vertex 0.130128 0.193776 0.257574
    endloop
  endfacet
  facet normal 0.714858 -0.386874 -0.5825
    outer loop
      vertex 0.130128 0.166224 0.257574
      vertex 0.140564 0.162641 0.272761
      vertex 0.132188 0.147164 0.272761
    endloop
  endfacet
  facet normal 0.986361 -0.164598 0
    outer loop
      vertex 0.14605 0.160758 0.290614
      vertex 0.149261 0.18 0.290614
      vertex 0.149261 0.18 0.309386
    endloop
  endfacet
  facet normal 0.644999 0.7006 -0.305181
    outer loop
      vertex 0.122413 0.229612 0.290614
      vertex 0.136765 0.216399 0.290614
      vertex 0.132188 0.212836 0.272761
    endloop
  endfacet
  facet normal 0.837518 0.453247 0.305172
    outer loop
      vertex 0.132188 0.212836 0.327239
      vertex 0.14605 0.199242 0.309386
      vertex 0.136765 0.216399 0.309386
    endloop
  endfacet
  facet normal -0.199531 0.787967 -0.582491
    outer loop
      vertex 0.0855853 0.233278 0.272761
      vertex 0.0864965 0.222282 0.257574
      vertex 0.0685252 0.228958 0.272761
    endloop
  endfacet
  facet normal -0.31288 -0 -0.949793
    outer loop
      vertex 0.0631321 0.184483 0.24654
      vertex 0.0807419 0.181545 0.240739
      vertex 0.0631321 0.175517 0.24654
    endloop
  endfacet
  facet normal 0.382564 0.872052 -0.305239
    outer loop
      vertex 0.122413 0.229612 0.290614
      vertex 0.11924 0.224755 0.272761
      vertex 0.103124 0.231825 0.272761
    endloop
  endfacet
  facet normal 0.644946 0.700626 -0.305235
    outer loop
      vertex 0.132188 0.212836 0.272761
      vertex 0.11924 0.224755 0.272761
      vertex 0.122413 0.229612 0.290614
    endloop
  endfacet
  facet normal -0.634247 0.773131 0
    outer loop
      vertex 0.0498634 0.2236 0.309386
      vertex 0.0498634 0.2236 0.290614
      vertex 0.0278609 0.20555 0.310941
    endloop
  endfacet
  facet normal -0.546949 0.837166 0
    outer loop
      vertex 0.066195 0.23427 0.290614
      vertex 0.0498634 0.2236 0.290614
      vertex 0.0498634 0.2236 0.309386
    endloop
  endfacet
  facet normal 0.0786401 0.949041 0.305183
    outer loop
      vertex 0.104548 0.237448 0.309386
      vertex 0.0851062 0.239059 0.309386
      vertex 0.103124 0.231825 0.327239
    endloop
  endfacet
  facet normal 0.0825797 0.996584 -0
    outer loop
      vertex 0.0851062 0.239059 0.290614
      vertex 0.0851062 0.239059 0.309386
      vertex 0.104548 0.237448 0.309386
    endloop
  endfacet
  facet normal 0.382519 0.87209 0.305185
    outer loop
      vertex 0.103124 0.231825 0.327239
      vertex 0.122413 0.229612 0.309386
      vertex 0.104548 0.237448 0.309386
    endloop
  endfacet
  facet normal 0.382564 0.872052 0.305239
    outer loop
      vertex 0.11924 0.224755 0.327239
      vertex 0.122413 0.229612 0.309386
      vertex 0.103124 0.231825 0.327239
    endloop
  endfacet
  facet normal 0.401686 0.436338 0.805144
    outer loop
      vertex 0.111496 0.196731 0.35346
      vertex 0.12348 0.206059 0.342426
      vertex 0.113205 0.215518 0.342426
    endloop
  endfacet
  facet normal 0.275159 0.148919 0.949795
    outer loop
      vertex 0.0988775 0.183048 0.359261
      vertex 0.115764 0.188845 0.35346
      vertex 0.111496 0.196731 0.35346
    endloop
  endfacet
  facet normal 0.0258225 0.311814 0.949792
    outer loop
      vertex 0.0923041 0.189099 0.359261
      vertex 0.0966869 0.206406 0.35346
      vertex 0.0892249 0.189354 0.359261
    endloop
  endfacet
  facet normal 0.238226 0.543125 0.805148
    outer loop
      vertex 0.0966869 0.206406 0.35346
      vertex 0.104899 0.202804 0.35346
      vertex 0.113205 0.215518 0.342426
    endloop
  endfacet
  facet normal 0.939297 0.156745 0.305207
    outer loop
      vertex 0.14605 0.199242 0.309386
      vertex 0.14346 0.18 0.327239
      vertex 0.149261 0.18 0.309386
    endloop
  endfacet
  facet normal 0.939317 0.156706 0.305168
    outer loop
      vertex 0.140564 0.197359 0.327239
      vertex 0.14346 0.18 0.327239
      vertex 0.14605 0.199242 0.309386
    endloop
  endfacet
  facet normal 0.521584 0.2823 0.805144
    outer loop
      vertex 0.111496 0.196731 0.35346
      vertex 0.130128 0.193776 0.342426
      vertex 0.12348 0.206059 0.342426
    endloop
  endfacet
  facet normal 0.714858 0.386874 0.5825
    outer loop
      vertex 0.132188 0.212836 0.327239
      vertex 0.130128 0.193776 0.342426
      vertex 0.140564 0.197359 0.327239
    endloop
  endfacet
  facet normal 0.275159 -0.148919 -0.949795
    outer loop
      vertex 0.111496 0.163269 0.24654
      vertex 0.0988775 0.176952 0.240739
      vertex 0.115764 0.171155 0.24654
    endloop
  endfacet
  facet normal 0.584999 -0.097555 -0.805145
    outer loop
      vertex 0.130128 0.166224 0.257574
      vertex 0.115764 0.171155 0.24654
      vertex 0.117239 0.18 0.24654
    endloop
  endfacet
  facet normal 0.801749 -0.133741 -0.582505
    outer loop
      vertex 0.14346 0.18 0.272761
      vertex 0.130128 0.166224 0.257574
      vertex 0.132426 0.18 0.257574
    endloop
  endfacet
  facet normal 0.801754 -0.133756 -0.582495
    outer loop
      vertex 0.14346 0.18 0.272761
      vertex 0.140564 0.162641 0.272761
      vertex 0.130128 0.166224 0.257574
    endloop
  endfacet
  facet normal 0.550516 -0.598008 -0.582511
    outer loop
      vertex 0.113205 0.144482 0.257574
      vertex 0.12348 0.153941 0.257574
      vertex 0.132188 0.147164 0.272761
    endloop
  endfacet
  facet normal 0.401686 -0.436338 -0.805144
    outer loop
      vertex 0.111496 0.163269 0.24654
      vertex 0.12348 0.153941 0.257574
      vertex 0.113205 0.144482 0.257574
    endloop
  endfacet
  facet normal 0.382519 -0.87209 -0.305185
    outer loop
      vertex 0.122413 0.130388 0.290614
      vertex 0.104548 0.122552 0.290614
      vertex 0.103124 0.128175 0.272761
    endloop
  endfacet
  facet normal 0.382564 -0.872052 -0.305239
    outer loop
      vertex 0.103124 0.128175 0.272761
      vertex 0.11924 0.135245 0.272761
      vertex 0.122413 0.130388 0.290614
    endloop
  endfacet
  facet normal -0.520852 -0.79722 -0.30521
    outer loop
      vertex 0.0498634 0.1364 0.290614
      vertex 0.0537923 0.140668 0.272761
      vertex 0.066195 0.12573 0.290614
    endloop
  endfacet
  facet normal -0.233775 -0.923152 -0.305188
    outer loop
      vertex 0.0851062 0.120941 0.290614
      vertex 0.066195 0.12573 0.290614
      vertex 0.0685252 0.131042 0.272761
    endloop
  endfacet
  facet normal -0.145572 0.574922 -0.805155
    outer loop
      vertex 0.0729575 0.218853 0.257574
      vertex 0.0877506 0.207146 0.24654
      vertex 0.079058 0.204945 0.24654
    endloop
  endfacet
  facet normal 0 0 -1
    outer loop
      vertex 0.0892249 0.189354 0.240739
      vertex 0.0951337 0.187858 0.240739
      vertex 0.0988775 0.183048 0.240739
    endloop
  endfacet
  facet normal -0.233763 -0.923151 -0.3052
    outer loop
      vertex 0.0685252 0.131042 0.272761
      vertex 0.0855853 0.126722 0.272761
      vertex 0.0851062 0.120941 0.290614
    endloop
  endfacet
  facet normal -0.145606 -0.574909 -0.805157
    outer loop
      vertex 0.0864965 0.137718 0.257574
      vertex 0.0729575 0.141147 0.257574
      vertex 0.079058 0.155055 0.24654
    endloop
  endfacet
  facet normal -0.468012 -0.364282 -0.805148
    outer loop
      vertex 0.0526871 0.159807 0.257574
      vertex 0.0715512 0.159959 0.24654
      vertex 0.0612654 0.148786 0.257574
    endloop
  endfacet
  facet normal -0.468013 -0.364278 -0.805149
    outer loop
      vertex 0.0660436 0.167035 0.24654
      vertex 0.0715512 0.159959 0.24654
      vertex 0.0526871 0.159807 0.257574
    endloop
  endfacet
  facet normal -0.770147 -0.559355 -0.306588
    outer loop
      vertex 0.042983 0.154556 0.272761
      vertex 0.0378812 0.151795 0.290614
      vertex 0.0278609 0.15445 0.310941
    endloop
  endfacet
  facet normal -0.768793 -0.26393 -0.582494
    outer loop
      vertex 0.0372687 0.171201 0.272761
      vertex 0.0526871 0.159807 0.257574
      vertex 0.042983 0.154556 0.272761
    endloop
  endfacet
  facet normal -0.433714 0.278723 0.856858
    outer loop
      vertex 0.033793 0.198704 0.344749
      vertex 0.0413083 0.182552 0.353807
      vertex 0.0440678 0.186846 0.353807
    endloop
  endfacet
  facet normal -0.73588 0.472931 0.484579
    outer loop
      vertex 0.017562 0.189525 0.329059
      vertex 0.0262538 0.186973 0.344749
      vertex 0.033793 0.198704 0.344749
    endloop
  endfacet
  facet normal -0.233775 0.923152 0.305188
    outer loop
      vertex 0.066195 0.23427 0.309386
      vertex 0.0685252 0.228958 0.327239
      vertex 0.0851062 0.239059 0.309386
    endloop
  endfacet
  facet normal -0.228481 0.458183 0.85899
    outer loop
      vertex 0.0440678 0.186846 0.353807
      vertex 0.079058 0.204945 0.35346
      vertex 0.033793 0.198704 0.344749
    endloop
  endfacet
  facet normal -0.874745 0 0.484583
    outer loop
      vertex 0.0262538 0.173027 0.344749
      vertex 0.0262538 0.186973 0.344749
      vertex 0.017562 0.189525 0.329059
    endloop
  endfacet
  facet normal -0.515554 0 0.856857
    outer loop
      vertex 0.0413083 0.177448 0.353807
      vertex 0.0262538 0.186973 0.344749
      vertex 0.0262538 0.173027 0.344749
    endloop
  endfacet
  facet normal -0.520852 0.79722 -0.30521
    outer loop
      vertex 0.0537923 0.219332 0.272761
      vertex 0.0498634 0.2236 0.290614
      vertex 0.066195 0.23427 0.290614
    endloop
  endfacet
  facet normal -0.641448 0.499251 -0.582488
    outer loop
      vertex 0.0526871 0.200193 0.257574
      vertex 0.042983 0.205444 0.272761
      vertex 0.0537923 0.219332 0.272761
    endloop
  endfacet
  facet normal -0.888612 0 -0.458659
    outer loop
      vertex 0.017562 0.189525 0.310941
      vertex 0.0372687 0.188799 0.272761
      vertex 0.0372687 0.171201 0.272761
    endloop
  endfacet
  facet normal -0.847868 0.291077 -0.443164
    outer loop
      vertex 0.042983 0.205444 0.272761
      vertex 0.0372687 0.188799 0.272761
      vertex 0.017562 0.189525 0.310941
    endloop
  endfacet
  facet normal -0.841247 -0.54065 0
    outer loop
      vertex 0.017562 0.170475 0.310941
      vertex 0.0278609 0.15445 0.310941
      vertex 0.0278609 0.15445 0.329059
    endloop
  endfacet
  facet normal -0.841247 -0.54065 -0
    outer loop
      vertex 0.017562 0.170475 0.329059
      vertex 0.017562 0.170475 0.310941
      vertex 0.0278609 0.15445 0.329059
    endloop
  endfacet
  facet normal -0.324354 0.496504 -0.805157
    outer loop
      vertex 0.0715512 0.200041 0.24654
      vertex 0.0729575 0.218853 0.257574
      vertex 0.079058 0.204945 0.24654
    endloop
  endfacet
  facet normal -0.233763 0.923151 -0.3052
    outer loop
      vertex 0.0851062 0.239059 0.290614
      vertex 0.0855853 0.233278 0.272761
      vertex 0.0685252 0.228958 0.272761
    endloop
  endfacet
  facet normal -0.468012 0.364282 -0.805148
    outer loop
      vertex 0.0612654 0.211214 0.257574
      vertex 0.0715512 0.200041 0.24654
      vertex 0.0526871 0.200193 0.257574
    endloop
  endfacet
  facet normal -0.444582 0.680469 -0.582502
    outer loop
      vertex 0.0537923 0.219332 0.272761
      vertex 0.0729575 0.218853 0.257574
      vertex 0.0612654 0.211214 0.257574
    endloop
  endfacet
  facet normal -0.546949 0.837166 0
    outer loop
      vertex 0.066195 0.23427 0.309386
      vertex 0.066195 0.23427 0.290614
      vertex 0.0498634 0.2236 0.309386
    endloop
  endfacet
  facet normal -0.245487 0.9694 0
    outer loop
      vertex 0.0851062 0.239059 0.290614
      vertex 0.066195 0.23427 0.290614
      vertex 0.066195 0.23427 0.309386
    endloop
  endfacet
  facet normal -0.135915 -0.105756 0.98506
    outer loop
      vertex 0.0440678 0.173154 0.353807
      vertex 0.083643 0.173094 0.359261
      vertex 0.0817452 0.175533 0.359261
    endloop
  endfacet
  facet normal -0.228481 -0.458183 0.85899
    outer loop
      vertex 0.079058 0.155055 0.35346
      vertex 0.0440678 0.173154 0.353807
      vertex 0.033793 0.161296 0.344749
    endloop
  endfacet
  facet normal 0.125668 -0.286535 0.949792
    outer loop
      vertex 0.0923041 0.170901 0.359261
      vertex 0.104899 0.157196 0.35346
      vertex 0.0951337 0.172142 0.359261
    endloop
  endfacet
  facet normal 0 0 1
    outer loop
      vertex 0.0974069 0.174235 0.359261
      vertex 0.0988775 0.176952 0.359261
      vertex 0.0993861 0.18 0.359261
    endloop
  endfacet
  facet normal -0.233775 -0.923152 0.305188
    outer loop
      vertex 0.0851062 0.120941 0.309386
      vertex 0.0685252 0.131042 0.327239
      vertex 0.066195 0.12573 0.309386
    endloop
  endfacet
  facet normal -0.546949 -0.837166 0
    outer loop
      vertex 0.066195 0.12573 0.309386
      vertex 0.0498634 0.1364 0.309386
      vertex 0.0498634 0.1364 0.290614
    endloop
  endfacet
  facet normal 0.879472 -0.475951 0
    outer loop
      vertex 0.14605 0.160758 0.309386
      vertex 0.136765 0.143601 0.290614
      vertex 0.14605 0.160758 0.290614
    endloop
  endfacet
  facet normal 0.211929 -0.230175 0.949792
    outer loop
      vertex 0.0951337 0.172142 0.359261
      vertex 0.104899 0.157196 0.35346
      vertex 0.0974069 0.174235 0.359261
    endloop
  endfacet
  facet normal 0.401682 -0.915779 0
    outer loop
      vertex 0.104548 0.122552 0.309386
      vertex 0.104548 0.122552 0.290614
      vertex 0.122413 0.130388 0.290614
    endloop
  endfacet
  facet normal 0.0825797 -0.996584 0
    outer loop
      vertex 0.0851062 0.120941 0.290614
      vertex 0.104548 0.122552 0.290614
      vertex 0.104548 0.122552 0.309386
    endloop
  endfacet
  facet normal 0.584982 0.0975521 -0.805158
    outer loop
      vertex 0.117239 0.18 0.24654
      vertex 0.115764 0.188845 0.24654
      vertex 0.132426 0.18 0.257574
    endloop
  endfacet
  facet normal 0.308619 0.0514972 -0.949791
    outer loop
      vertex 0.0993861 0.18 0.240739
      vertex 0.0988775 0.183048 0.240739
      vertex 0.117239 0.18 0.24654
    endloop
  endfacet
  facet normal 0.238226 0.543125 -0.805148
    outer loop
      vertex 0.113205 0.215518 0.257574
      vertex 0.104899 0.202804 0.24654
      vertex 0.0966869 0.206406 0.24654
    endloop
  endfacet
  facet normal 0.401681 0.436339 -0.805146
    outer loop
      vertex 0.111496 0.196731 0.24654
      vertex 0.104899 0.202804 0.24654
      vertex 0.113205 0.215518 0.257574
    endloop
  endfacet
  facet normal 0.801754 0.133756 -0.582495
    outer loop
      vertex 0.130128 0.193776 0.257574
      vertex 0.140564 0.197359 0.272761
      vertex 0.14346 0.18 0.272761
    endloop
  endfacet
  facet normal 0.714858 0.386874 -0.5825
    outer loop
      vertex 0.132188 0.212836 0.272761
      vertex 0.140564 0.197359 0.272761
      vertex 0.130128 0.193776 0.257574
    endloop
  endfacet
  facet normal 0.401686 0.436338 -0.805144
    outer loop
      vertex 0.113205 0.215518 0.257574
      vertex 0.12348 0.206059 0.257574
      vertex 0.111496 0.196731 0.24654
    endloop
  endfacet
  facet normal 0.550516 0.598008 -0.582511
    outer loop
      vertex 0.132188 0.212836 0.272761
      vertex 0.12348 0.206059 0.257574
      vertex 0.113205 0.215518 0.257574
    endloop
  endfacet
  facet normal 0.837518 -0.453247 -0.305172
    outer loop
      vertex 0.14605 0.160758 0.290614
      vertex 0.136765 0.143601 0.290614
      vertex 0.132188 0.147164 0.272761
    endloop
  endfacet
  facet normal 0.986361 -0.164598 0
    outer loop
      vertex 0.149261 0.18 0.309386
      vertex 0.14605 0.160758 0.309386
      vertex 0.14605 0.160758 0.290614
    endloop
  endfacet
  facet normal 0.939317 -0.156706 -0.305168
    outer loop
      vertex 0.14605 0.160758 0.290614
      vertex 0.140564 0.162641 0.272761
      vertex 0.14346 0.18 0.272761
    endloop
  endfacet
  facet normal 0.837517 -0.453256 -0.305164
    outer loop
      vertex 0.132188 0.147164 0.272761
      vertex 0.140564 0.162641 0.272761
      vertex 0.14605 0.160758 0.290614
    endloop
  endfacet
  facet normal 0.939297 0.156745 -0.305207
    outer loop
      vertex 0.14605 0.199242 0.290614
      vertex 0.149261 0.18 0.290614
      vertex 0.14346 0.18 0.272761
    endloop
  endfacet
  facet normal 0.986361 0.164598 0
    outer loop
      vertex 0.149261 0.18 0.309386
      vertex 0.149261 0.18 0.290614
      vertex 0.14605 0.199242 0.290614
    endloop
  endfacet
  facet normal 0.879472 0.475951 0
    outer loop
      vertex 0.14605 0.199242 0.290614
      vertex 0.136765 0.216399 0.290614
      vertex 0.136765 0.216399 0.309386
    endloop
  endfacet
  facet normal 0.837518 0.453247 -0.305172
    outer loop
      vertex 0.132188 0.212836 0.272761
      vertex 0.136765 0.216399 0.290614
      vertex 0.14605 0.199242 0.290614
    endloop
  endfacet
  facet normal 0.211929 0.230175 0.949792
    outer loop
      vertex 0.104899 0.202804 0.35346
      vertex 0.0951337 0.187858 0.359261
      vertex 0.0974069 0.185765 0.359261
    endloop
  endfacet
  facet normal 0.125678 0.286529 0.949793
    outer loop
      vertex 0.0966869 0.206406 0.35346
      vertex 0.0951337 0.187858 0.359261
      vertex 0.104899 0.202804 0.35346
    endloop
  endfacet
  facet normal 0.0671607 0.810032 0.582528
    outer loop
      vertex 0.103124 0.231825 0.327239
      vertex 0.0864965 0.222282 0.342426
      vertex 0.100415 0.221128 0.342426
    endloop
  endfacet
  facet normal 0.0490041 0.591043 0.80515
    outer loop
      vertex 0.100415 0.221128 0.342426
      vertex 0.0864965 0.222282 0.342426
      vertex 0.0966869 0.206406 0.35346
    endloop
  endfacet
  facet normal 0.837517 0.453256 0.305164
    outer loop
      vertex 0.140564 0.197359 0.327239
      vertex 0.14605 0.199242 0.309386
      vertex 0.132188 0.212836 0.327239
    endloop
  endfacet
  facet normal 0.714832 0.386893 0.58252
    outer loop
      vertex 0.12348 0.206059 0.342426
      vertex 0.130128 0.193776 0.342426
      vertex 0.132188 0.212836 0.327239
    endloop
  endfacet
  facet normal 0.939317 -0.156706 0.305168
    outer loop
      vertex 0.14605 0.160758 0.309386
      vertex 0.14346 0.18 0.327239
      vertex 0.140564 0.162641 0.327239
    endloop
  endfacet
  facet normal 0.939297 -0.156745 0.305207
    outer loop
      vertex 0.149261 0.18 0.309386
      vertex 0.14346 0.18 0.327239
      vertex 0.14605 0.160758 0.309386
    endloop
  endfacet
  facet normal 0.521585 0.282288 0.805148
    outer loop
      vertex 0.115764 0.188845 0.35346
      vertex 0.130128 0.193776 0.342426
      vertex 0.111496 0.196731 0.35346
    endloop
  endfacet
  facet normal 0.584991 0.0975835 0.805148
    outer loop
      vertex 0.132426 0.18 0.342426
      vertex 0.130128 0.193776 0.342426
      vertex 0.115764 0.188845 0.35346
    endloop
  endfacet
  facet normal 0.521585 -0.282288 -0.805148
    outer loop
      vertex 0.111496 0.163269 0.24654
      vertex 0.115764 0.171155 0.24654
      vertex 0.130128 0.166224 0.257574
    endloop
  endfacet
  facet normal 0.211903 -0.230187 -0.949795
    outer loop
      vertex 0.104899 0.157196 0.24654
      vertex 0.0974069 0.174235 0.240739
      vertex 0.111496 0.163269 0.24654
    endloop
  endfacet
  facet normal 0.326546 -0.744358 -0.582494
    outer loop
      vertex 0.113205 0.144482 0.257574
      vertex 0.11924 0.135245 0.272761
      vertex 0.103124 0.128175 0.272761
    endloop
  endfacet
  facet normal 0.550506 -0.598033 -0.582494
    outer loop
      vertex 0.132188 0.147164 0.272761
      vertex 0.11924 0.135245 0.272761
      vertex 0.113205 0.144482 0.257574
    endloop
  endfacet
  facet normal 0.401681 -0.436339 -0.805146
    outer loop
      vertex 0.113205 0.144482 0.257574
      vertex 0.104899 0.157196 0.24654
      vertex 0.111496 0.163269 0.24654
    endloop
  endfacet
  facet normal 0.238227 -0.543125 -0.805148
    outer loop
      vertex 0.100415 0.138872 0.257574
      vertex 0.104899 0.157196 0.24654
      vertex 0.113205 0.144482 0.257574
    endloop
  endfacet
  facet normal 0.521584 -0.2823 -0.805144
    outer loop
      vertex 0.130128 0.166224 0.257574
      vertex 0.12348 0.153941 0.257574
      vertex 0.111496 0.163269 0.24654
    endloop
  endfacet
  facet normal 0.714832 -0.386893 -0.58252
    outer loop
      vertex 0.132188 0.147164 0.272761
      vertex 0.12348 0.153941 0.257574
      vertex 0.130128 0.166224 0.257574
    endloop
  endfacet
  facet normal -0.546949 -0.837166 0
    outer loop
      vertex 0.066195 0.12573 0.290614
      vertex 0.066195 0.12573 0.309386
      vertex 0.0498634 0.1364 0.290614
    endloop
  endfacet
  facet normal -0.245487 -0.9694 0
    outer loop
      vertex 0.0851062 0.120941 0.290614
      vertex 0.066195 0.12573 0.309386
      vertex 0.066195 0.12573 0.290614
    endloop
  endfacet
  facet normal 0 0 -1
    outer loop
      vertex 0.0974069 0.174235 0.240739
      vertex 0.0951337 0.172142 0.240739
      vertex 0.0923041 0.170901 0.240739
    endloop
  endfacet
  facet normal 0 0 -1
    outer loop
      vertex 0.0993861 0.18 0.240739
      vertex 0.0974069 0.174235 0.240739
      vertex 0.0923041 0.170901 0.240739
    endloop
  endfacet
  facet normal -0.593066 0 -0.805154
    outer loop
      vertex 0.0481522 0.186983 0.257574
      vertex 0.0631321 0.184483 0.24654
      vertex 0.0631321 0.175517 0.24654
    endloop
  endfacet
  facet normal 0 0 -1
    outer loop
      vertex 0.0817452 0.184467 0.240739
      vertex 0.0862297 0.188596 0.240739
      vertex 0.0892249 0.189354 0.240739
    endloop
  endfacet
  facet normal -0.199561 -0.787941 -0.582515
    outer loop
      vertex 0.0685252 0.131042 0.272761
      vertex 0.0729575 0.141147 0.257574
      vertex 0.0864965 0.137718 0.257574
    endloop
  endfacet
  facet normal -0.444579 -0.680464 -0.582511
    outer loop
      vertex 0.0612654 0.148786 0.257574
      vertex 0.0729575 0.141147 0.257574
      vertex 0.0685252 0.131042 0.272761
    endloop
  endfacet
  facet normal 0.0671099 -0.810062 -0.582491
    outer loop
      vertex 0.103124 0.128175 0.272761
      vertex 0.0855853 0.126722 0.272761
      vertex 0.0864965 0.137718 0.257574
    endloop
  endfacet
  facet normal 0.0786233 -0.949037 -0.305199
    outer loop
      vertex 0.0851062 0.120941 0.290614
      vertex 0.0855853 0.126722 0.272761
      vertex 0.103124 0.128175 0.272761
    endloop
  endfacet
  facet normal -0.560935 -0.192544 -0.805158
    outer loop
      vertex 0.0660436 0.167035 0.24654
      vertex 0.0481522 0.173017 0.257574
      vertex 0.0631321 0.175517 0.24654
    endloop
  endfacet
  facet normal -0.171121 -0.261943 -0.949791
    outer loop
      vertex 0.0715512 0.159959 0.24654
      vertex 0.0862297 0.171404 0.240739
      vertex 0.079058 0.155055 0.24654
    endloop
  endfacet
  facet normal -0.246938 -0.192144 -0.949791
    outer loop
      vertex 0.0817452 0.175533 0.240739
      vertex 0.083643 0.173094 0.240739
      vertex 0.0715512 0.159959 0.24654
    endloop
  endfacet
  facet normal -0.324364 -0.49652 -0.805144
    outer loop
      vertex 0.0612654 0.148786 0.257574
      vertex 0.0715512 0.159959 0.24654
      vertex 0.079058 0.155055 0.24654
    endloop
  endfacet
  facet normal -0.433703 0.27873 0.856861
    outer loop
      vertex 0.0262538 0.186973 0.344749
      vertex 0.0413083 0.182552 0.353807
      vertex 0.033793 0.198704 0.344749
    endloop
  endfacet
  facet normal -0.515554 0 0.856857
    outer loop
      vertex 0.0413083 0.177448 0.353807
      vertex 0.0413083 0.182552 0.353807
      vertex 0.0262538 0.186973 0.344749
    endloop
  endfacet
  facet normal -0.135915 0.105756 0.98506
    outer loop
      vertex 0.0817452 0.184467 0.359261
      vertex 0.083643 0.186906 0.359261
      vertex 0.0440678 0.186846 0.353807
    endloop
  endfacet
  facet normal 0 0 1
    outer loop
      vertex 0.0862297 0.188596 0.359261
      vertex 0.083643 0.186906 0.359261
      vertex 0.0817452 0.184467 0.359261
    endloop
  endfacet
  facet normal -0.134574 0.278401 0.950991
    outer loop
      vertex 0.0862297 0.188596 0.359261
      vertex 0.079058 0.204945 0.35346
      vertex 0.0440678 0.186846 0.353807
    endloop
  endfacet
  facet normal -0.0768011 0.303317 0.94979
    outer loop
      vertex 0.0877506 0.207146 0.35346
      vertex 0.079058 0.204945 0.35346
      vertex 0.0862297 0.188596 0.359261
    endloop
  endfacet
  facet normal -0.342305 0.733108 0.58769
    outer loop
      vertex 0.0729575 0.218853 0.342426
      vertex 0.0685252 0.228958 0.327239
      vertex 0.033793 0.198704 0.344749
    endloop
  endfacet
  facet normal -0.199531 0.787967 0.582491
    outer loop
      vertex 0.0685252 0.228958 0.327239
      vertex 0.0864965 0.222282 0.342426
      vertex 0.0855853 0.233278 0.327239
    endloop
  endfacet
  facet normal -0.751492 0.584901 -0.305208
    outer loop
      vertex 0.042983 0.205444 0.272761
      vertex 0.0378812 0.208205 0.290614
      vertex 0.0537923 0.219332 0.272761
    endloop
  endfacet
  facet normal -0.770147 0.559355 -0.306588
    outer loop
      vertex 0.0278609 0.20555 0.310941
      vertex 0.0378812 0.208205 0.290614
      vertex 0.042983 0.205444 0.272761
    endloop
  endfacet
  facet normal -0.79775 -0.512696 -0.317391
    outer loop
      vertex 0.042983 0.154556 0.272761
      vertex 0.0278609 0.15445 0.310941
      vertex 0.017562 0.170475 0.310941
    endloop
  endfacet
  facet normal -0.754016 -0.586864 -0.295043
    outer loop
      vertex 0.0278609 0.15445 0.310941
      vertex 0.0378812 0.151795 0.290614
      vertex 0.0498634 0.1364 0.290614
    endloop
  endfacet
  facet normal 0.0671099 0.810062 -0.582491
    outer loop
      vertex 0.103124 0.231825 0.272761
      vertex 0.0864965 0.222282 0.257574
      vertex 0.0855853 0.233278 0.272761
    endloop
  endfacet
  facet normal 0.0671607 0.810032 -0.582528
    outer loop
      vertex 0.100415 0.221128 0.257574
      vertex 0.0864965 0.222282 0.257574
      vertex 0.103124 0.231825 0.272761
    endloop
  endfacet
  facet normal -0.246897 0.192172 -0.949796
    outer loop
      vertex 0.0660436 0.192965 0.24654
      vertex 0.0715512 0.200041 0.24654
      vertex 0.0817452 0.184467 0.240739
    endloop
  endfacet
  facet normal -0.468013 0.364278 -0.805149
    outer loop
      vertex 0.0526871 0.200193 0.257574
      vertex 0.0715512 0.200041 0.24654
      vertex 0.0660436 0.192965 0.24654
    endloop
  endfacet
  facet normal -0.751492 0.5849 -0.305209
    outer loop
      vertex 0.0378812 0.208205 0.290614
      vertex 0.0498634 0.2236 0.290614
      vertex 0.0537923 0.219332 0.272761
    endloop
  endfacet
  facet normal -0.754016 0.586864 -0.295043
    outer loop
      vertex 0.0278609 0.20555 0.310941
      vertex 0.0498634 0.2236 0.290614
      vertex 0.0378812 0.208205 0.290614
    endloop
  endfacet
  facet normal -0.134574 -0.278401 0.950991
    outer loop
      vertex 0.079058 0.155055 0.35346
      vertex 0.0862297 0.171404 0.359261
      vertex 0.0440678 0.173154 0.353807
    endloop
  endfacet
  facet normal -0.137247 -0.0882004 0.986602
    outer loop
      vertex 0.0413083 0.177448 0.353807
      vertex 0.0440678 0.173154 0.353807
      vertex 0.0817452 0.175533 0.359261
    endloop
  endfacet
  facet normal 0 0 1
    outer loop
      vertex 0.0862297 0.171404 0.359261
      vertex 0.0892249 0.170646 0.359261
      vertex 0.0923041 0.170901 0.359261
    endloop
  endfacet
  facet normal -0.145567 -0.574901 0.80517
    outer loop
      vertex 0.0864965 0.137718 0.342426
      vertex 0.0877506 0.152854 0.35346
      vertex 0.079058 0.155055 0.35346
    endloop
  endfacet
  facet normal -0.0767648 -0.303333 0.949788
    outer loop
      vertex 0.079058 0.155055 0.35346
      vertex 0.0892249 0.170646 0.359261
      vertex 0.0862297 0.171404 0.359261
    endloop
  endfacet
  facet normal 0 0 1
    outer loop
      vertex 0.0817452 0.175533 0.359261
      vertex 0.0862297 0.171404 0.359261
      vertex 0.0923041 0.170901 0.359261
    endloop
  endfacet
  facet normal 0 0 1
    outer loop
      vertex 0.0923041 0.170901 0.359261
      vertex 0.0951337 0.172142 0.359261
      vertex 0.0974069 0.174235 0.359261
    endloop
  endfacet
  facet normal 0.644946 -0.700626 0.305235
    outer loop
      vertex 0.132188 0.147164 0.327239
      vertex 0.11924 0.135245 0.327239
      vertex 0.122413 0.130388 0.309386
    endloop
  endfacet
  facet normal 0.125677 -0.286528 0.949793
    outer loop
      vertex 0.0966869 0.153594 0.35346
      vertex 0.104899 0.157196 0.35346
      vertex 0.0923041 0.170901 0.359261
    endloop
  endfacet
  facet normal 0.308619 -0.0514972 0.949791
    outer loop
      vertex 0.0993861 0.18 0.359261
      vertex 0.0988775 0.176952 0.359261
      vertex 0.117239 0.18 0.35346
    endloop
  endfacet
  facet normal 0.801754 -0.133756 0.582495
    outer loop
      vertex 0.14346 0.18 0.327239
      vertex 0.130128 0.166224 0.342426
      vertex 0.140564 0.162641 0.327239
    endloop
  endfacet
  facet normal 0.801749 -0.133741 0.582505
    outer loop
      vertex 0.132426 0.18 0.342426
      vertex 0.130128 0.166224 0.342426
      vertex 0.14346 0.18 0.327239
    endloop
  endfacet
  facet normal 0.521584 -0.2823 0.805144
    outer loop
      vertex 0.130128 0.166224 0.342426
      vertex 0.111496 0.163269 0.35346
      vertex 0.12348 0.153941 0.342426
    endloop
  endfacet
  facet normal 0.326546 -0.744358 0.582494
    outer loop
      vertex 0.11924 0.135245 0.327239
      vertex 0.113205 0.144482 0.342426
      vertex 0.103124 0.128175 0.327239
    endloop
  endfacet
  facet normal 0.714832 -0.386893 0.58252
    outer loop
      vertex 0.12348 0.153941 0.342426
      vertex 0.132188 0.147164 0.327239
      vertex 0.130128 0.166224 0.342426
    endloop
  endfacet
  facet normal 0.382519 -0.87209 0.305185
    outer loop
      vertex 0.122413 0.130388 0.309386
      vertex 0.103124 0.128175 0.327239
      vertex 0.104548 0.122552 0.309386
    endloop
  endfacet
  facet normal 0.521585 0.282288 -0.805148
    outer loop
      vertex 0.130128 0.193776 0.257574
      vertex 0.115764 0.188845 0.24654
      vertex 0.111496 0.196731 0.24654
    endloop
  endfacet
  facet normal 0.584991 0.0975835 -0.805148
    outer loop
      vertex 0.132426 0.18 0.257574
      vertex 0.115764 0.188845 0.24654
      vertex 0.130128 0.193776 0.257574
    endloop
  endfacet
  facet normal 0.677311 -0.735697 0
    outer loop
      vertex 0.122413 0.130388 0.290614
      vertex 0.136765 0.143601 0.290614
      vertex 0.122413 0.130388 0.309386
    endloop
  endfacet
  facet normal 0.644999 -0.7006 -0.305181
    outer loop
      vertex 0.132188 0.147164 0.272761
      vertex 0.136765 0.143601 0.290614
      vertex 0.122413 0.130388 0.290614
    endloop
  endfacet
  facet normal 0.125666 0.286531 0.949794
    outer loop
      vertex 0.0923041 0.189099 0.359261
      vertex 0.0951337 0.187858 0.359261
      vertex 0.0966869 0.206406 0.35346
    endloop
  endfacet
  facet normal 0 0 1
    outer loop
      vertex 0.0974069 0.185765 0.359261
      vertex 0.0951337 0.187858 0.359261
      vertex 0.0923041 0.189099 0.359261
    endloop
  endfacet
  facet normal -0.199561 0.787941 0.582515
    outer loop
      vertex 0.0729575 0.218853 0.342426
      vertex 0.0864965 0.222282 0.342426
      vertex 0.0685252 0.228958 0.327239
    endloop
  endfacet
  facet normal -0.145603 0.574896 0.805168
    outer loop
      vertex 0.0877506 0.207146 0.35346
      vertex 0.0864965 0.222282 0.342426
      vertex 0.0729575 0.218853 0.342426
    endloop
  endfacet
  facet normal 0.125677 -0.286528 -0.949793
    outer loop
      vertex 0.104899 0.157196 0.24654
      vertex 0.0966869 0.153594 0.24654
      vertex 0.0923041 0.170901 0.240739
    endloop
  endfacet
  facet normal 0.238226 -0.543125 -0.805149
    outer loop
      vertex 0.100415 0.138872 0.257574
      vertex 0.0966869 0.153594 0.24654
      vertex 0.104899 0.157196 0.24654
    endloop
  endfacet
  facet normal -0.233763 -0.923151 0.3052
    outer loop
      vertex 0.0855853 0.126722 0.327239
      vertex 0.0685252 0.131042 0.327239
      vertex 0.0851062 0.120941 0.309386
    endloop
  endfacet
  facet normal -0.245487 -0.9694 0
    outer loop
      vertex 0.0851062 0.120941 0.290614
      vertex 0.0851062 0.120941 0.309386
      vertex 0.066195 0.12573 0.309386
    endloop
  endfacet
  facet normal 0.0671099 -0.810062 0.582491
    outer loop
      vertex 0.0855853 0.126722 0.327239
      vertex 0.103124 0.128175 0.327239
      vertex 0.0864965 0.137718 0.342426
    endloop
  endfacet
  facet normal -0.199531 -0.787967 0.582491
    outer loop
      vertex 0.0864965 0.137718 0.342426
      vertex 0.0685252 0.131042 0.327239
      vertex 0.0855853 0.126722 0.327239
    endloop
  endfacet
  facet normal -0.540381 -0.827113 0.154508
    outer loop
      vertex 0.0278609 0.15445 0.329059
      vertex 0.0498634 0.1364 0.309386
      vertex 0.066195 0.12573 0.309386
    endloop
  endfacet
  facet normal -0.634247 -0.773131 0
    outer loop
      vertex 0.0498634 0.1364 0.290614
      vertex 0.0498634 0.1364 0.309386
      vertex 0.0278609 0.15445 0.329059
    endloop
  endfacet
  facet normal 0.275151 -0.148928 -0.949796
    outer loop
      vertex 0.0974069 0.174235 0.240739
      vertex 0.0988775 0.176952 0.240739
      vertex 0.111496 0.163269 0.24654
    endloop
  endfacet
  facet normal 0 0 -1
    outer loop
      vertex 0.0993861 0.18 0.240739
      vertex 0.0988775 0.176952 0.240739
      vertex 0.0974069 0.174235 0.240739
    endloop
  endfacet
  facet normal 0.211929 -0.230175 -0.949792
    outer loop
      vertex 0.104899 0.157196 0.24654
      vertex 0.0951337 0.172142 0.240739
      vertex 0.0974069 0.174235 0.240739
    endloop
  endfacet
  facet normal 0.125668 -0.286535 -0.949792
    outer loop
      vertex 0.0923041 0.170901 0.240739
      vertex 0.0951337 0.172142 0.240739
      vertex 0.104899 0.157196 0.24654
    endloop
  endfacet
  facet normal 0 0 -1
    outer loop
      vertex 0.0817452 0.184467 0.240739
      vertex 0.0892249 0.189354 0.240739
      vertex 0.0988775 0.183048 0.240739
    endloop
  endfacet
  facet normal -0.0768011 0.303317 -0.94979
    outer loop
      vertex 0.0877506 0.207146 0.24654
      vertex 0.0862297 0.188596 0.240739
      vertex 0.079058 0.204945 0.24654
    endloop
  endfacet
  facet normal -0.246897 -0.192172 -0.949796
    outer loop
      vertex 0.0660436 0.167035 0.24654
      vertex 0.0817452 0.175533 0.240739
      vertex 0.0715512 0.159959 0.24654
    endloop
  endfacet
  facet normal 0 0 -1
    outer loop
      vertex 0.0817452 0.175533 0.240739
      vertex 0.0807419 0.178455 0.240739
      vertex 0.0807419 0.181545 0.240739
    endloop
  endfacet
  facet normal -0.295914 0.101605 -0.949795
    outer loop
      vertex 0.0817452 0.184467 0.240739
      vertex 0.0807419 0.181545 0.240739
      vertex 0.0660436 0.192965 0.24654
    endloop
  endfacet
  facet normal -0.295932 0.101581 -0.949792
    outer loop
      vertex 0.0660436 0.192965 0.24654
      vertex 0.0807419 0.181545 0.240739
      vertex 0.0631321 0.184483 0.24654
    endloop
  endfacet
  facet normal -0.560938 -0.192566 -0.80515
    outer loop
      vertex 0.0526871 0.159807 0.257574
      vertex 0.0481522 0.173017 0.257574
      vertex 0.0660436 0.167035 0.24654
    endloop
  endfacet
  facet normal -0.768791 -0.263921 -0.5825
    outer loop
      vertex 0.0372687 0.171201 0.272761
      vertex 0.0481522 0.173017 0.257574
      vertex 0.0526871 0.159807 0.257574
    endloop
  endfacet
  facet normal -0.223765 0.543632 0.808946
    outer loop
      vertex 0.0729575 0.218853 0.342426
      vertex 0.0464779 0.204497 0.344749
      vertex 0.079058 0.204945 0.35346
    endloop
  endfacet
  facet normal -0.310899 0.680774 0.663241
    outer loop
      vertex 0.033793 0.198704 0.344749
      vertex 0.0464779 0.204497 0.344749
      vertex 0.0729575 0.218853 0.342426
    endloop
  endfacet
  facet normal -0.540381 0.827113 0.154508
    outer loop
      vertex 0.0498634 0.2236 0.309386
      vertex 0.0278609 0.20555 0.329059
      vertex 0.066195 0.23427 0.309386
    endloop
  endfacet
  facet normal -0.634247 0.773131 0
    outer loop
      vertex 0.0278609 0.20555 0.310941
      vertex 0.0278609 0.20555 0.329059
      vertex 0.0498634 0.2236 0.309386
    endloop
  endfacet
  facet normal -0.751492 -0.584901 -0.305208
    outer loop
      vertex 0.0537923 0.140668 0.272761
      vertex 0.0378812 0.151795 0.290614
      vertex 0.042983 0.154556 0.272761
    endloop
  endfacet
  facet normal -0.751492 -0.5849 -0.305209
    outer loop
      vertex 0.0498634 0.1364 0.290614
      vertex 0.0378812 0.151795 0.290614
      vertex 0.0537923 0.140668 0.272761
    endloop
  endfacet
  facet normal -0.199561 0.787941 -0.582515
    outer loop
      vertex 0.0864965 0.222282 0.257574
      vertex 0.0729575 0.218853 0.257574
      vertex 0.0685252 0.228958 0.272761
    endloop
  endfacet
  facet normal 0.0489412 0.591018 -0.805172
    outer loop
      vertex 0.0966869 0.206406 0.24654
      vertex 0.0877506 0.207146 0.24654
      vertex 0.0864965 0.222282 0.257574
    endloop
  endfacet
  facet normal -0.133929 -0.204991 0.969558
    outer loop
      vertex 0.0862297 0.171404 0.359261
      vertex 0.083643 0.173094 0.359261
      vertex 0.0440678 0.173154 0.353807
    endloop
  endfacet
  facet normal 0 0 1
    outer loop
      vertex 0.0817452 0.175533 0.359261
      vertex 0.083643 0.173094 0.359261
      vertex 0.0862297 0.171404 0.359261
    endloop
  endfacet
  facet normal -0.0767996 -0.303311 0.949792
    outer loop
      vertex 0.0877506 0.152854 0.35346
      vertex 0.0892249 0.170646 0.359261
      vertex 0.079058 0.155055 0.35346
    endloop
  endfacet
  facet normal 0.0258226 -0.311815 0.949792
    outer loop
      vertex 0.0923041 0.170901 0.359261
      vertex 0.0892249 0.170646 0.359261
      vertex 0.0877506 0.152854 0.35346
    endloop
  endfacet
  facet normal 0.521585 -0.282288 0.805148
    outer loop
      vertex 0.115764 0.171155 0.35346
      vertex 0.111496 0.163269 0.35346
      vertex 0.130128 0.166224 0.342426
    endloop
  endfacet
  facet normal 0.584999 -0.097555 0.805145
    outer loop
      vertex 0.117239 0.18 0.35346
      vertex 0.115764 0.171155 0.35346
      vertex 0.130128 0.166224 0.342426
    endloop
  endfacet
  facet normal 0.238226 -0.543125 0.805149
    outer loop
      vertex 0.0966869 0.153594 0.35346
      vertex 0.100415 0.138872 0.342426
      vertex 0.104899 0.157196 0.35346
    endloop
  endfacet
  facet normal 0.0490041 -0.591043 0.80515
    outer loop
      vertex 0.0864965 0.137718 0.342426
      vertex 0.100415 0.138872 0.342426
      vertex 0.0966869 0.153594 0.35346
    endloop
  endfacet
  facet normal 0.837518 -0.453247 0.305172
    outer loop
      vertex 0.132188 0.147164 0.327239
      vertex 0.136765 0.143601 0.309386
      vertex 0.14605 0.160758 0.309386
    endloop
  endfacet
  facet normal 0.644999 -0.7006 0.305181
    outer loop
      vertex 0.122413 0.130388 0.309386
      vertex 0.136765 0.143601 0.309386
      vertex 0.132188 0.147164 0.327239
    endloop
  endfacet
  facet normal 0.0489412 -0.591018 -0.805172
    outer loop
      vertex 0.0864965 0.137718 0.257574
      vertex 0.0877506 0.152854 0.24654
      vertex 0.0966869 0.153594 0.24654
    endloop
  endfacet
  facet normal -0.145567 -0.574901 -0.80517
    outer loop
      vertex 0.079058 0.155055 0.24654
      vertex 0.0877506 0.152854 0.24654
      vertex 0.0864965 0.137718 0.257574
    endloop
  endfacet
  facet normal 0.401681 -0.436339 0.805146
    outer loop
      vertex 0.104899 0.157196 0.35346
      vertex 0.113205 0.144482 0.342426
      vertex 0.111496 0.163269 0.35346
    endloop
  endfacet
  facet normal 0.382564 -0.872052 0.305239
    outer loop
      vertex 0.11924 0.135245 0.327239
      vertex 0.103124 0.128175 0.327239
      vertex 0.122413 0.130388 0.309386
    endloop
  endfacet
  facet normal -0.342305 -0.733108 0.58769
    outer loop
      vertex 0.033793 0.161296 0.344749
      vertex 0.0685252 0.131042 0.327239
      vertex 0.0729575 0.141147 0.342426
    endloop
  endfacet
  facet normal -0.417873 -0.764136 0.491405
    outer loop
      vertex 0.0278609 0.15445 0.329059
      vertex 0.0685252 0.131042 0.327239
      vertex 0.033793 0.161296 0.344749
    endloop
  endfacet
  facet normal 0.0258209 0.311815 -0.949792
    outer loop
      vertex 0.0892249 0.189354 0.240739
      vertex 0.0877506 0.207146 0.24654
      vertex 0.0966869 0.206406 0.24654
    endloop
  endfacet
  facet normal -0.0767605 0.303315 -0.949794
    outer loop
      vertex 0.0892249 0.189354 0.240739
      vertex 0.0862297 0.188596 0.240739
      vertex 0.0877506 0.207146 0.24654
    endloop
  endfacet
  facet normal 0.125678 0.286529 -0.949793
    outer loop
      vertex 0.104899 0.202804 0.24654
      vertex 0.0951337 0.187858 0.240739
      vertex 0.0966869 0.206406 0.24654
    endloop
  endfacet
  facet normal 0 0 -1
    outer loop
      vertex 0.0951337 0.187858 0.240739
      vertex 0.0974069 0.185765 0.240739
      vertex 0.0988775 0.183048 0.240739
    endloop
  endfacet
  facet normal -0.246938 0.192144 -0.949791
    outer loop
      vertex 0.0715512 0.200041 0.24654
      vertex 0.083643 0.186906 0.240739
      vertex 0.0817452 0.184467 0.240739
    endloop
  endfacet
  facet normal -0.171121 0.261943 -0.949791
    outer loop
      vertex 0.079058 0.204945 0.24654
      vertex 0.0862297 0.188596 0.240739
      vertex 0.0715512 0.200041 0.24654
    endloop
  endfacet
  facet normal 0 0 -1
    outer loop
      vertex 0.0817452 0.175533 0.240739
      vertex 0.0807419 0.181545 0.240739
      vertex 0.0817452 0.184467 0.240739
    endloop
  endfacet
  facet normal -0.31288 -0 -0.949793
    outer loop
      vertex 0.0807419 0.181545 0.240739
      vertex 0.0807419 0.178455 0.240739
      vertex 0.0631321 0.175517 0.24654
    endloop
  endfacet
  facet normal -0.0767648 -0.303333 -0.949788
    outer loop
      vertex 0.0862297 0.171404 0.240739
      vertex 0.0892249 0.170646 0.240739
      vertex 0.079058 0.155055 0.24654
    endloop
  endfacet
  facet normal -0 0 -1
    outer loop
      vertex 0.0923041 0.170901 0.240739
      vertex 0.0892249 0.170646 0.240739
      vertex 0.0862297 0.171404 0.240739
    endloop
  endfacet
  facet normal 0.275159 -0.148919 0.949795
    outer loop
      vertex 0.0988775 0.176952 0.359261
      vertex 0.111496 0.163269 0.35346
      vertex 0.115764 0.171155 0.35346
    endloop
  endfacet
  facet normal 0.275151 -0.148928 0.949796
    outer loop
      vertex 0.0974069 0.174235 0.359261
      vertex 0.111496 0.163269 0.35346
      vertex 0.0988775 0.176952 0.359261
    endloop
  endfacet
  facet normal 0.0786233 -0.949037 0.305199
    outer loop
      vertex 0.0851062 0.120941 0.309386
      vertex 0.103124 0.128175 0.327239
      vertex 0.0855853 0.126722 0.327239
    endloop
  endfacet
  facet normal 0.0786401 -0.949041 0.305183
    outer loop
      vertex 0.104548 0.122552 0.309386
      vertex 0.103124 0.128175 0.327239
      vertex 0.0851062 0.120941 0.309386
    endloop
  endfacet
  facet normal 0.238227 -0.543125 0.805148
    outer loop
      vertex 0.100415 0.138872 0.342426
      vertex 0.113205 0.144482 0.342426
      vertex 0.104899 0.157196 0.35346
    endloop
  endfacet
  facet normal 0.0671607 -0.810032 0.582528
    outer loop
      vertex 0.0864965 0.137718 0.342426
      vertex 0.103124 0.128175 0.327239
      vertex 0.100415 0.138872 0.342426
    endloop
  endfacet
  facet normal 0.211929 0.230175 -0.949792
    outer loop
      vertex 0.104899 0.202804 0.24654
      vertex 0.0974069 0.185765 0.240739
      vertex 0.0951337 0.187858 0.240739
    endloop
  endfacet
  facet normal 0.211903 0.230187 -0.949795
    outer loop
      vertex 0.111496 0.196731 0.24654
      vertex 0.0974069 0.185765 0.240739
      vertex 0.104899 0.202804 0.24654
    endloop
  endfacet
  facet normal 0 0 -1
    outer loop
      vertex 0.0892249 0.189354 0.240739
      vertex 0.0923041 0.189099 0.240739
      vertex 0.0951337 0.187858 0.240739
    endloop
  endfacet
  facet normal 0.0258225 0.311814 -0.949792
    outer loop
      vertex 0.0966869 0.206406 0.24654
      vertex 0.0923041 0.189099 0.240739
      vertex 0.0892249 0.189354 0.240739
    endloop
  endfacet
  facet normal -0.171131 0.261931 -0.949793
    outer loop
      vertex 0.0862297 0.188596 0.240739
      vertex 0.083643 0.186906 0.240739
      vertex 0.0715512 0.200041 0.24654
    endloop
  endfacet
  facet normal 0 0 -1
    outer loop
      vertex 0.0817452 0.184467 0.240739
      vertex 0.083643 0.186906 0.240739
      vertex 0.0862297 0.188596 0.240739
    endloop
  endfacet
  facet normal -0.295914 -0.101605 -0.949795
    outer loop
      vertex 0.0660436 0.167035 0.24654
      vertex 0.0807419 0.178455 0.240739
      vertex 0.0817452 0.175533 0.240739
    endloop
  endfacet
  facet normal -0.295932 -0.101581 -0.949792
    outer loop
      vertex 0.0631321 0.175517 0.24654
      vertex 0.0807419 0.178455 0.240739
      vertex 0.0660436 0.167035 0.24654
    endloop
  endfacet
  facet normal 0 0 -1
    outer loop
      vertex 0.0862297 0.171404 0.240739
      vertex 0.083643 0.173094 0.240739
      vertex 0.0817452 0.175533 0.240739
    endloop
  endfacet
  facet normal -0.171131 -0.261931 -0.949793
    outer loop
      vertex 0.0715512 0.159959 0.24654
      vertex 0.083643 0.173094 0.240739
      vertex 0.0862297 0.171404 0.240739
    endloop
  endfacet
  facet normal 0.0258226 -0.311815 -0.949792
    outer loop
      vertex 0.0877506 0.152854 0.24654
      vertex 0.0892249 0.170646 0.240739
      vertex 0.0923041 0.170901 0.240739
    endloop
  endfacet
  facet normal -0.0767996 -0.303311 -0.949792
    outer loop
      vertex 0.079058 0.155055 0.24654
      vertex 0.0892249 0.170646 0.240739
      vertex 0.0877506 0.152854 0.24654
    endloop
  endfacet
  facet normal 0.550506 -0.598033 0.582494
    outer loop
      vertex 0.132188 0.147164 0.327239
      vertex 0.113205 0.144482 0.342426
      vertex 0.11924 0.135245 0.327239
    endloop
  endfacet
  facet normal 0.550516 -0.598008 0.582511
    outer loop
      vertex 0.12348 0.153941 0.342426
      vertex 0.113205 0.144482 0.342426
      vertex 0.132188 0.147164 0.327239
    endloop
  endfacet
endsolid OpenSCAD_Model
