solid OpenSCAD_Model
  facet normal 0 0 1
    outer loop
      vertex -0.161123 0.103048 0.359261
      vertex -0.162593 0.105765 0.359261
      vertex -0.160614 0.1 0.359261
    endloop
  endfacet
  facet normal 0.195555 0.269121 0.943044
    outer loop
      vertex -0.155101 0.122804 0.35346
      vertex -0.1625 0.145449 0.348532
      vertex -0.167135 0.148817 0.348532
    endloop
  endfacet
  facet normal 0.939298 -0.156744 0.305207
    outer loop
      vertex -0.11654 0.1 0.327239
      vertex -0.11395 0.0807579 0.309386
      vertex -0.110739 0.1 0.309386
    endloop
  endfacet
  facet normal 0 0 1
    outer loop
      vertex -0.162593 0.105765 0.359261
      vertex -0.178255 0.0955327 0.359261
      vertex -0.160614 0.1 0.359261
    endloop
  endfacet
  facet normal -0.641456 0.499244 -0.582486
    outer loop
      vertex -0.206208 0.139332 0.272761
      vertex -0.207313 0.120193 0.257574
      vertex -0.217017 0.125444 0.272761
    endloop
  endfacet
  facet normal 0.837517 0.453256 0.305164
    outer loop
      vertex -0.127812 0.132836 0.327239
      vertex -0.119436 0.117359 0.327239
      vertex -0.11395 0.119242 0.309386
    endloop
  endfacet
  facet normal 0.677252 0.735633 -0.0131717
    outer loop
      vertex -0.123235 0.136399 0.290614
      vertex -0.137587 0.149612 0.290614
      vertex -0.145729 0.157634 0.32
    endloop
  endfacet
  facet normal -0 0 1
    outer loop
      vertex -0.178255 0.0955327 0.359261
      vertex -0.167696 0.0909011 0.359261
      vertex -0.160614 0.1 0.359261
    endloop
  endfacet
  facet normal 0.644962 -0.700637 0.305175
    outer loop
      vertex -0.123235 0.063601 0.309386
      vertex -0.127812 0.0671639 0.327239
      vertex -0.14076 0.0552448 0.327239
    endloop
  endfacet
  facet normal 0.211904 0.230188 0.949795
    outer loop
      vertex -0.148504 0.116731 0.35346
      vertex -0.155101 0.122804 0.35346
      vertex -0.162593 0.105765 0.359261
    endloop
  endfacet
  facet normal 0.714832 0.386893 0.58252
    outer loop
      vertex -0.127812 0.132836 0.327239
      vertex -0.13652 0.126059 0.342426
      vertex -0.129872 0.113776 0.342426
    endloop
  endfacet
  facet normal -0.789151 0.6142 0
    outer loop
      vertex -0.222119 0.128205 0.309386
      vertex -0.210137 0.1436 0.309386
      vertex -0.210137 0.1436 0.290614
    endloop
  endfacet
  facet normal -0.246916 -0.19216 0.949793
    outer loop
      vertex -0.188449 0.0799593 0.35346
      vertex -0.176357 0.0930944 0.359261
      vertex -0.193956 0.0870355 0.35346
    endloop
  endfacet
  facet normal 0.077599 0.936689 -0.341457
    outer loop
      vertex -0.156876 0.151825 0.272761
      vertex -0.174415 0.153278 0.272761
      vertex -0.1625 0.163083 0.302366
    endloop
  endfacet
  facet normal 0.401686 -0.436338 0.805144
    outer loop
      vertex -0.148504 0.0832692 0.35346
      vertex -0.155101 0.0771961 0.35346
      vertex -0.13652 0.0739412 0.342426
    endloop
  endfacet
  facet normal -0.952284 0 0.305213
    outer loop
      vertex -0.228453 0.109754 0.309386
      vertex -0.228453 0.0902459 0.309386
      vertex -0.222731 0.0912007 0.327239
    endloop
  endfacet
  facet normal 0.801754 0.133756 -0.582495
    outer loop
      vertex -0.129872 0.113776 0.257574
      vertex -0.119436 0.117359 0.272761
      vertex -0.11654 0.1 0.272761
    endloop
  endfacet
  facet normal 0.0671194 -0.810054 -0.582501
    outer loop
      vertex -0.159585 0.0588718 0.257574
      vertex -0.174415 0.0467222 0.272761
      vertex -0.173504 0.0577185 0.257574
    endloop
  endfacet
  facet normal 0.401688 -0.436332 -0.805147
    outer loop
      vertex -0.146795 0.064482 0.257574
      vertex -0.155101 0.0771961 0.24654
      vertex -0.13652 0.0739412 0.257574
    endloop
  endfacet
  facet normal -0.273828 0.911485 -0.306942
    outer loop
      vertex -0.191475 0.148958 0.272761
      vertex -0.193805 0.15427 0.290614
      vertex -0.179271 0.168532 0.32
    endloop
  endfacet
  facet normal -0.312876 0 0.949794
    outer loop
      vertex -0.179258 0.101545 0.359261
      vertex -0.196868 0.104483 0.35346
      vertex -0.196868 0.0955165 0.35346
    endloop
  endfacet
  facet normal -0.295929 0.10158 0.949793
    outer loop
      vertex -0.178255 0.104467 0.359261
      vertex -0.196868 0.104483 0.35346
      vertex -0.179258 0.101545 0.359261
    endloop
  endfacet
  facet normal -0.560928 -0.192574 0.805155
    outer loop
      vertex -0.196868 0.0955165 0.35346
      vertex -0.211848 0.0930168 0.342426
      vertex -0.207313 0.0798073 0.342426
    endloop
  endfacet
  facet normal -0.945821 0.324689 0
    outer loop
      vertex -0.222119 0.128205 0.290614
      vertex -0.228453 0.109754 0.290614
      vertex -0.228453 0.109754 0.309386
    endloop
  endfacet
  facet normal 0.0489727 -0.591044 -0.805152
    outer loop
      vertex -0.172249 0.0728536 0.24654
      vertex -0.159585 0.0588718 0.257574
      vertex -0.173504 0.0577185 0.257574
    endloop
  endfacet
  facet normal 0.801754 -0.13376 0.582494
    outer loop
      vertex -0.11654 0.1 0.327239
      vertex -0.129872 0.0862242 0.342426
      vertex -0.119436 0.0826414 0.327239
    endloop
  endfacet
  facet normal 0.5616 0.77294 0.295245
    outer loop
      vertex -0.150365 0.154266 0.337634
      vertex -0.160729 0.168532 0.32
      vertex -0.1625 0.163083 0.337634
    endloop
  endfacet
  facet normal -0.246904 -0.192192 -0.94979
    outer loop
      vertex -0.178255 0.0955327 0.240739
      vertex -0.176357 0.0930944 0.240739
      vertex -0.193956 0.0870355 0.24654
    endloop
  endfacet
  facet normal 0.326492 0.744356 -0.582527
    outer loop
      vertex -0.146795 0.135518 0.257574
      vertex -0.159585 0.141128 0.257574
      vertex -0.156876 0.151825 0.272761
    endloop
  endfacet
  facet normal 0.986361 0.164598 0
    outer loop
      vertex -0.110739 0.1 0.290614
      vertex -0.11395 0.119242 0.290614
      vertex -0.11395 0.119242 0.309386
    endloop
  endfacet
  facet normal 0.521585 -0.282281 0.80515
    outer loop
      vertex -0.129872 0.0862242 0.342426
      vertex -0.144236 0.0911554 0.35346
      vertex -0.148504 0.0832692 0.35346
    endloop
  endfacet
  facet normal -0.444569 -0.680468 0.582513
    outer loop
      vertex -0.191475 0.0510424 0.327239
      vertex -0.187042 0.061147 0.342426
      vertex -0.206208 0.0606679 0.327239
    endloop
  endfacet
  facet normal -0.520842 0.797226 -0.305212
    outer loop
      vertex -0.193805 0.15427 0.290614
      vertex -0.206208 0.139332 0.272761
      vertex -0.210137 0.1436 0.290614
    endloop
  endfacet
  facet normal -0.952284 0 0.305213
    outer loop
      vertex -0.222731 0.0912007 0.327239
      vertex -0.222731 0.108799 0.327239
      vertex -0.228453 0.109754 0.309386
    endloop
  endfacet
  facet normal 0 0.955426 0.295232
    outer loop
      vertex -0.1625 0.163083 0.337634
      vertex -0.160729 0.168532 0.32
      vertex -0.179271 0.168532 0.32
    endloop
  endfacet
  facet normal -0.324364 -0.49651 -0.80515
    outer loop
      vertex -0.198735 0.0687859 0.257574
      vertex -0.180942 0.0750549 0.24654
      vertex -0.187042 0.061147 0.257574
    endloop
  endfacet
  facet normal 0.275159 0.148919 0.949795
    outer loop
      vertex -0.162593 0.105765 0.359261
      vertex -0.144236 0.108845 0.35346
      vertex -0.148504 0.116731 0.35346
    endloop
  endfacet
  facet normal 0.52159 0.282291 0.805143
    outer loop
      vertex -0.148504 0.116731 0.35346
      vertex -0.144236 0.108845 0.35346
      vertex -0.13652 0.126059 0.342426
    endloop
  endfacet
  facet normal 0.683539 0.435072 0.586077
    outer loop
      vertex -0.150365 0.154266 0.337634
      vertex -0.13652 0.126059 0.342426
      vertex -0.127812 0.132836 0.327239
    endloop
  endfacet
  facet normal 0.801749 0.133741 0.582505
    outer loop
      vertex -0.127574 0.1 0.342426
      vertex -0.11654 0.1 0.327239
      vertex -0.129872 0.113776 0.342426
    endloop
  endfacet
  facet normal 0.356832 0.491115 0.794656
    outer loop
      vertex -0.1625 0.163083 0.337634
      vertex -0.167135 0.148817 0.348532
      vertex -0.150365 0.154266 0.337634
    endloop
  endfacet
  facet normal 0.0671087 0.810062 -0.582492
    outer loop
      vertex -0.156876 0.151825 0.272761
      vertex -0.173504 0.142282 0.257574
      vertex -0.174415 0.153278 0.272761
    endloop
  endfacet
  facet normal -0.145598 -0.574918 0.805152
    outer loop
      vertex -0.180942 0.0750549 0.35346
      vertex -0.187042 0.061147 0.342426
      vertex -0.173504 0.0577185 0.342426
    endloop
  endfacet
  facet normal 0.32651 -0.744371 0.582498
    outer loop
      vertex -0.14076 0.0552448 0.327239
      vertex -0.146795 0.064482 0.342426
      vertex -0.159585 0.0588718 0.342426
    endloop
  endfacet
  facet normal -0.193724 0.266601 0.944137
    outer loop
      vertex -0.1775 0.145449 0.348532
      vertex -0.188449 0.120041 0.35346
      vertex -0.172865 0.148817 0.348532
    endloop
  endfacet
  facet normal -0.455832 0.354758 0.816311
    outer loop
      vertex -0.193956 0.112965 0.35346
      vertex -0.188449 0.120041 0.35346
      vertex -0.1775 0.145449 0.348532
    endloop
  endfacet
  facet normal -0.641448 -0.499241 0.582497
    outer loop
      vertex -0.206208 0.0606679 0.327239
      vertex -0.198735 0.0687859 0.342426
      vertex -0.207313 0.0798073 0.342426
    endloop
  endfacet
  facet normal -0.233774 -0.923147 -0.305203
    outer loop
      vertex -0.174415 0.0467222 0.272761
      vertex -0.174894 0.0409411 0.290614
      vertex -0.191475 0.0510424 0.272761
    endloop
  endfacet
  facet normal -0.751497 0.584889 -0.305216
    outer loop
      vertex -0.222119 0.128205 0.290614
      vertex -0.206208 0.139332 0.272761
      vertex -0.217017 0.125444 0.272761
    endloop
  endfacet
  facet normal -0.751496 0.584893 -0.305212
    outer loop
      vertex -0.210137 0.1436 0.290614
      vertex -0.206208 0.139332 0.272761
      vertex -0.222119 0.128205 0.290614
    endloop
  endfacet
  facet normal 0.986361 0.164598 0
    outer loop
      vertex -0.110739 0.1 0.309386
      vertex -0.110739 0.1 0.290614
      vertex -0.11395 0.119242 0.309386
    endloop
  endfacet
  facet normal 0.986361 -0.164598 0
    outer loop
      vertex -0.110739 0.1 0.309386
      vertex -0.11395 0.0807579 0.309386
      vertex -0.110739 0.1 0.290614
    endloop
  endfacet
  facet normal 0.067122 -0.810055 -0.5825
    outer loop
      vertex -0.156876 0.0481755 0.272761
      vertex -0.174415 0.0467222 0.272761
      vertex -0.159585 0.0588718 0.257574
    endloop
  endfacet
  facet normal 0.308583 -0.0515368 -0.9498
    outer loop
      vertex -0.144236 0.0911554 0.24654
      vertex -0.161123 0.0969523 0.240739
      vertex -0.160614 0.1 0.240739
    endloop
  endfacet
  facet normal 0.308583 -0.0515368 0.9498
    outer loop
      vertex -0.161123 0.0969523 0.359261
      vertex -0.144236 0.0911554 0.35346
      vertex -0.160614 0.1 0.359261
    endloop
  endfacet
  facet normal 0.52158 0.282298 0.805147
    outer loop
      vertex -0.13652 0.126059 0.342426
      vertex -0.144236 0.108845 0.35346
      vertex -0.129872 0.113776 0.342426
    endloop
  endfacet
  facet normal 0.644982 -0.700603 0.305211
    outer loop
      vertex -0.14076 0.0552448 0.327239
      vertex -0.137587 0.0503884 0.309386
      vertex -0.123235 0.063601 0.309386
    endloop
  endfacet
  facet normal -0.199538 -0.787954 0.582506
    outer loop
      vertex -0.191475 0.0510424 0.327239
      vertex -0.174415 0.0467222 0.327239
      vertex -0.187042 0.061147 0.342426
    endloop
  endfacet
  facet normal 0.6773 -0.735707 0
    outer loop
      vertex -0.123235 0.063601 0.290614
      vertex -0.123235 0.063601 0.309386
      vertex -0.137587 0.0503884 0.290614
    endloop
  endfacet
  facet normal 0.939315 -0.156709 -0.305172
    outer loop
      vertex -0.11654 0.1 0.272761
      vertex -0.11395 0.0807579 0.290614
      vertex -0.119436 0.0826414 0.272761
    endloop
  endfacet
  facet normal 0.714848 -0.386901 -0.582494
    outer loop
      vertex -0.13652 0.0739412 0.257574
      vertex -0.129872 0.0862242 0.257574
      vertex -0.119436 0.0826414 0.272761
    endloop
  endfacet
  facet normal 0.550498 -0.598019 0.582517
    outer loop
      vertex -0.14076 0.0552448 0.327239
      vertex -0.127812 0.0671639 0.327239
      vertex -0.13652 0.0739412 0.342426
    endloop
  endfacet
  facet normal -0.900691 -0.309193 0.305213
    outer loop
      vertex -0.222731 0.0912007 0.327239
      vertex -0.228453 0.0902459 0.309386
      vertex -0.222119 0.0717947 0.309386
    endloop
  endfacet
  facet normal -0.900689 0.309195 0.305216
    outer loop
      vertex -0.228453 0.109754 0.309386
      vertex -0.222731 0.108799 0.327239
      vertex -0.222119 0.128205 0.309386
    endloop
  endfacet
  facet normal 0 0 -1
    outer loop
      vertex -0.162593 0.094235 0.240739
      vertex -0.161123 0.103048 0.240739
      vertex -0.160614 0.1 0.240739
    endloop
  endfacet
  facet normal -0.199532 0.787968 -0.582489
    outer loop
      vertex -0.174415 0.153278 0.272761
      vertex -0.173504 0.142282 0.257574
      vertex -0.191475 0.148958 0.272761
    endloop
  endfacet
  facet normal -0.90069 0.309195 -0.305215
    outer loop
      vertex -0.222731 0.108799 0.272761
      vertex -0.222119 0.128205 0.290614
      vertex -0.217017 0.125444 0.272761
    endloop
  endfacet
  facet normal -0.586386 0.807101 -0.0688511
    outer loop
      vertex -0.210137 0.1436 0.290614
      vertex -0.194271 0.157634 0.32
      vertex -0.179271 0.168532 0.32
    endloop
  endfacet
  facet normal 0 0.955426 -0.295232
    outer loop
      vertex -0.1625 0.163083 0.302366
      vertex -0.1775 0.163083 0.302366
      vertex -0.179271 0.168532 0.32
    endloop
  endfacet
  facet normal 0.725898 0.61485 0.308272
    outer loop
      vertex -0.123235 0.136399 0.309386
      vertex -0.145729 0.157634 0.32
      vertex -0.150365 0.154266 0.337634
    endloop
  endfacet
  facet normal 0.263874 0.286642 0.920982
    outer loop
      vertex -0.148504 0.116731 0.35346
      vertex -0.1625 0.145449 0.348532
      vertex -0.155101 0.122804 0.35346
    endloop
  endfacet
  facet normal 0.584991 0.0975835 0.805148
    outer loop
      vertex -0.129872 0.113776 0.342426
      vertex -0.144236 0.108845 0.35346
      vertex -0.127574 0.1 0.342426
    endloop
  endfacet
  facet normal 0.879472 0.475951 -0
    outer loop
      vertex -0.123235 0.136399 0.290614
      vertex -0.123235 0.136399 0.309386
      vertex -0.11395 0.119242 0.309386
    endloop
  endfacet
  facet normal 0.686464 0.727164 -0
    outer loop
      vertex -0.123235 0.136399 0.290614
      vertex -0.145729 0.157634 0.32
      vertex -0.123235 0.136399 0.309386
    endloop
  endfacet
  facet normal 0.837517 0.453256 -0.305164
    outer loop
      vertex -0.119436 0.117359 0.272761
      vertex -0.127812 0.132836 0.272761
      vertex -0.11395 0.119242 0.290614
    endloop
  endfacet
  facet normal 0.382519 0.87209 -0.305185
    outer loop
      vertex -0.155452 0.157448 0.290614
      vertex -0.137587 0.149612 0.290614
      vertex -0.156876 0.151825 0.272761
    endloop
  endfacet
  facet normal 0.401688 -0.436332 0.805147
    outer loop
      vertex -0.13652 0.0739412 0.342426
      vertex -0.155101 0.0771961 0.35346
      vertex -0.146795 0.064482 0.342426
    endloop
  endfacet
  facet normal -0.246904 -0.192192 0.94979
    outer loop
      vertex -0.193956 0.0870355 0.35346
      vertex -0.176357 0.0930944 0.359261
      vertex -0.178255 0.0955327 0.359261
    endloop
  endfacet
  facet normal -0 0.607053 0.794661
    outer loop
      vertex -0.172865 0.148817 0.348532
      vertex -0.167135 0.148817 0.348532
      vertex -0.1625 0.163083 0.337634
    endloop
  endfacet
  facet normal 0.211942 0.23017 0.949791
    outer loop
      vertex -0.155101 0.122804 0.35346
      vertex -0.164866 0.107858 0.359261
      vertex -0.162593 0.105765 0.359261
    endloop
  endfacet
  facet normal -0.5616 0.77294 0.295245
    outer loop
      vertex -0.189635 0.154266 0.337634
      vertex -0.1775 0.163083 0.337634
      vertex -0.179271 0.168532 0.32
    endloop
  endfacet
  facet normal -0.356832 0.491115 0.794656
    outer loop
      vertex -0.172865 0.148817 0.348532
      vertex -0.1775 0.163083 0.337634
      vertex -0.189635 0.154266 0.337634
    endloop
  endfacet
  facet normal -0.295928 -0.101566 0.949795
    outer loop
      vertex -0.178255 0.0955327 0.359261
      vertex -0.179258 0.0984551 0.359261
      vertex -0.196868 0.0955165 0.35346
    endloop
  endfacet
  facet normal 0 0 1
    outer loop
      vertex -0.162593 0.105765 0.359261
      vertex -0.178255 0.104467 0.359261
      vertex -0.178255 0.0955327 0.359261
    endloop
  endfacet
  facet normal 0.326516 -0.744364 0.582503
    outer loop
      vertex -0.159585 0.0588718 0.342426
      vertex -0.156876 0.0481755 0.327239
      vertex -0.14076 0.0552448 0.327239
    endloop
  endfacet
  facet normal -0.789145 -0.614207 0
    outer loop
      vertex -0.210137 0.0564 0.290614
      vertex -0.210137 0.0564 0.309386
      vertex -0.222119 0.0717947 0.309386
    endloop
  endfacet
  facet normal -0.751493 -0.584894 0.305215
    outer loop
      vertex -0.206208 0.0606679 0.327239
      vertex -0.217017 0.0745557 0.327239
      vertex -0.222119 0.0717947 0.309386
    endloop
  endfacet
  facet normal -0.641445 -0.499243 0.582499
    outer loop
      vertex -0.207313 0.0798073 0.342426
      vertex -0.217017 0.0745557 0.327239
      vertex -0.206208 0.0606679 0.327239
    endloop
  endfacet
  facet normal -0.682111 0.436417 0.586741
    outer loop
      vertex -0.189635 0.154266 0.337634
      vertex -0.217017 0.125444 0.327239
      vertex -0.207313 0.120193 0.342426
    endloop
  endfacet
  facet normal -0.945821 0.324689 0
    outer loop
      vertex -0.222119 0.128205 0.290614
      vertex -0.228453 0.109754 0.309386
      vertex -0.222119 0.128205 0.309386
    endloop
  endfacet
  facet normal 0.401686 -0.436338 -0.805144
    outer loop
      vertex -0.155101 0.0771961 0.24654
      vertex -0.148504 0.0832692 0.24654
      vertex -0.13652 0.0739412 0.257574
    endloop
  endfacet
  facet normal 0.586794 0.807663 -0.0578982
    outer loop
      vertex -0.145729 0.157634 0.32
      vertex -0.137587 0.149612 0.290614
      vertex -0.160729 0.168532 0.32
    endloop
  endfacet
  facet normal 0.879471 -0.475953 0
    outer loop
      vertex -0.123235 0.063601 0.290614
      vertex -0.11395 0.0807579 0.290614
      vertex -0.11395 0.0807579 0.309386
    endloop
  endfacet
  facet normal 0.521584 -0.2823 -0.805144
    outer loop
      vertex -0.13652 0.0739412 0.257574
      vertex -0.148504 0.0832692 0.24654
      vertex -0.129872 0.0862242 0.257574
    endloop
  endfacet
  facet normal 0.078638 -0.949035 -0.305203
    outer loop
      vertex -0.156876 0.0481755 0.272761
      vertex -0.174894 0.0409411 0.290614
      vertex -0.174415 0.0467222 0.272761
    endloop
  endfacet
  facet normal 0.550529 -0.598009 -0.582497
    outer loop
      vertex -0.146795 0.064482 0.257574
      vertex -0.13652 0.0739412 0.257574
      vertex -0.14076 0.0552448 0.272761
    endloop
  endfacet
  facet normal -0.444569 -0.680468 -0.582513
    outer loop
      vertex -0.191475 0.0510424 0.272761
      vertex -0.206208 0.0606679 0.272761
      vertex -0.187042 0.061147 0.257574
    endloop
  endfacet
  facet normal -0.520849 -0.797223 -0.305208
    outer loop
      vertex -0.210137 0.0564 0.290614
      vertex -0.206208 0.0606679 0.272761
      vertex -0.191475 0.0510424 0.272761
    endloop
  endfacet
  facet normal 0.58498 -0.097583 0.805156
    outer loop
      vertex -0.127574 0.1 0.342426
      vertex -0.142761 0.1 0.35346
      vertex -0.129872 0.0862242 0.342426
    endloop
  endfacet
  facet normal 0.714858 0.386874 0.5825
    outer loop
      vertex -0.129872 0.113776 0.342426
      vertex -0.119436 0.117359 0.327239
      vertex -0.127812 0.132836 0.327239
    endloop
  endfacet
  facet normal 0.801749 -0.133743 0.582505
    outer loop
      vertex -0.127574 0.1 0.342426
      vertex -0.129872 0.0862242 0.342426
      vertex -0.11654 0.1 0.327239
    endloop
  endfacet
  facet normal 0.550529 -0.598009 0.582497
    outer loop
      vertex -0.13652 0.0739412 0.342426
      vertex -0.146795 0.064482 0.342426
      vertex -0.14076 0.0552448 0.327239
    endloop
  endfacet
  facet normal -0.520841 -0.797232 0.305198
    outer loop
      vertex -0.210137 0.0564 0.309386
      vertex -0.193805 0.0457301 0.309386
      vertex -0.191475 0.0510424 0.327239
    endloop
  endfacet
  facet normal 0.382537 -0.872076 0.305202
    outer loop
      vertex -0.156876 0.0481755 0.327239
      vertex -0.155452 0.0425521 0.309386
      vertex -0.14076 0.0552448 0.327239
    endloop
  endfacet
  facet normal 0.644962 -0.700637 -0.305175
    outer loop
      vertex -0.14076 0.0552448 0.272761
      vertex -0.127812 0.0671639 0.272761
      vertex -0.123235 0.063601 0.290614
    endloop
  endfacet
  facet normal 0.644982 -0.700603 -0.305211
    outer loop
      vertex -0.137587 0.0503884 0.290614
      vertex -0.14076 0.0552448 0.272761
      vertex -0.123235 0.063601 0.290614
    endloop
  endfacet
  facet normal 0.71485 -0.386857 0.582522
    outer loop
      vertex -0.13652 0.0739412 0.342426
      vertex -0.127812 0.0671639 0.327239
      vertex -0.119436 0.0826414 0.327239
    endloop
  endfacet
  facet normal 0.6773 -0.735707 0
    outer loop
      vertex -0.123235 0.063601 0.309386
      vertex -0.137587 0.0503884 0.309386
      vertex -0.137587 0.0503884 0.290614
    endloop
  endfacet
  facet normal -0.900691 -0.309193 -0.305213
    outer loop
      vertex -0.222119 0.0717947 0.290614
      vertex -0.228453 0.0902459 0.290614
      vertex -0.222731 0.0912007 0.272761
    endloop
  endfacet
  facet normal -0.768798 -0.263939 0.582483
    outer loop
      vertex -0.207313 0.0798073 0.342426
      vertex -0.211848 0.0930168 0.342426
      vertex -0.222731 0.0912007 0.327239
    endloop
  endfacet
  facet normal 0.0258217 0.311814 -0.949792
    outer loop
      vertex -0.163313 0.126406 0.24654
      vertex -0.167696 0.109099 0.240739
      vertex -0.172249 0.127146 0.24654
    endloop
  endfacet
  facet normal -0.641438 0.499252 -0.582498
    outer loop
      vertex -0.198735 0.131214 0.257574
      vertex -0.207313 0.120193 0.257574
      vertex -0.206208 0.139332 0.272761
    endloop
  endfacet
  facet normal 0 0 -1
    outer loop
      vertex -0.167696 0.0909011 0.240739
      vertex -0.178255 0.104467 0.240739
      vertex -0.161123 0.103048 0.240739
    endloop
  endfacet
  facet normal 0.401686 0.436338 -0.805144
    outer loop
      vertex -0.146795 0.135518 0.257574
      vertex -0.13652 0.126059 0.257574
      vertex -0.148504 0.116731 0.24654
    endloop
  endfacet
  facet normal -0.444582 0.680451 -0.582524
    outer loop
      vertex -0.187042 0.138853 0.257574
      vertex -0.206208 0.139332 0.272761
      vertex -0.191475 0.148958 0.272761
    endloop
  endfacet
  facet normal -0.541966 0.829558 -0.134562
    outer loop
      vertex -0.179271 0.168532 0.32
      vertex -0.193805 0.15427 0.290614
      vertex -0.210137 0.1436 0.290614
    endloop
  endfacet
  facet normal -0.789151 0.6142 0
    outer loop
      vertex -0.210137 0.1436 0.290614
      vertex -0.222119 0.128205 0.290614
      vertex -0.222119 0.128205 0.309386
    endloop
  endfacet
  facet normal -0.520872 0.797217 -0.305184
    outer loop
      vertex -0.191475 0.148958 0.272761
      vertex -0.206208 0.139332 0.272761
      vertex -0.193805 0.15427 0.290614
    endloop
  endfacet
  facet normal -0.812843 0 0.582483
    outer loop
      vertex -0.211848 0.0930168 0.342426
      vertex -0.222731 0.108799 0.327239
      vertex -0.222731 0.0912007 0.327239
    endloop
  endfacet
  facet normal -0.662539 0.749027 0
    outer loop
      vertex -0.210137 0.1436 0.309386
      vertex -0.194271 0.157634 0.32
      vertex -0.210137 0.1436 0.290614
    endloop
  endfacet
  facet normal 0.726094 0.614373 0.308763
    outer loop
      vertex -0.127812 0.132836 0.327239
      vertex -0.123235 0.136399 0.309386
      vertex -0.150365 0.154266 0.337634
    endloop
  endfacet
  facet normal 0.837518 0.453247 0.305172
    outer loop
      vertex -0.11395 0.119242 0.309386
      vertex -0.123235 0.136399 0.309386
      vertex -0.127812 0.132836 0.327239
    endloop
  endfacet
  facet normal 0.238233 -0.543119 0.80515
    outer loop
      vertex -0.146795 0.064482 0.342426
      vertex -0.155101 0.0771961 0.35346
      vertex -0.159585 0.0588718 0.342426
    endloop
  endfacet
  facet normal 0 0 1
    outer loop
      vertex -0.167696 0.0909011 0.359261
      vertex -0.162593 0.094235 0.359261
      vertex -0.160614 0.1 0.359261
    endloop
  endfacet
  facet normal -0.468024 -0.364236 0.805162
    outer loop
      vertex -0.188449 0.0799593 0.35346
      vertex -0.193956 0.0870355 0.35346
      vertex -0.207313 0.0798073 0.342426
    endloop
  endfacet
  facet normal -0.171124 -0.261933 0.949793
    outer loop
      vertex -0.180942 0.0750549 0.35346
      vertex -0.176357 0.0930944 0.359261
      vertex -0.188449 0.0799593 0.35346
    endloop
  endfacet
  facet normal 0.0671194 -0.810054 0.582501
    outer loop
      vertex -0.173504 0.0577185 0.342426
      vertex -0.174415 0.0467222 0.327239
      vertex -0.159585 0.0588718 0.342426
    endloop
  endfacet
  facet normal -0.19955 -0.787957 0.582498
    outer loop
      vertex -0.187042 0.061147 0.342426
      vertex -0.174415 0.0467222 0.327239
      vertex -0.173504 0.0577185 0.342426
    endloop
  endfacet
  facet normal 0.356847 0.491088 0.794665
    outer loop
      vertex -0.167135 0.148817 0.348532
      vertex -0.1625 0.145449 0.348532
      vertex -0.150365 0.154266 0.337634
    endloop
  endfacet
  facet normal 0.169326 0.258504 0.951054
    outer loop
      vertex -0.167135 0.148817 0.348532
      vertex -0.164866 0.107858 0.359261
      vertex -0.155101 0.122804 0.35346
    endloop
  endfacet
  facet normal 0 0 1
    outer loop
      vertex -0.167696 0.109099 0.359261
      vertex -0.170775 0.109354 0.359261
      vertex -0.178255 0.104467 0.359261
    endloop
  endfacet
  facet normal 0 0 1
    outer loop
      vertex -0.162593 0.105765 0.359261
      vertex -0.167696 0.109099 0.359261
      vertex -0.178255 0.104467 0.359261
    endloop
  endfacet
  facet normal -0.356847 0.491088 0.794665
    outer loop
      vertex -0.189635 0.154266 0.337634
      vertex -0.1775 0.145449 0.348532
      vertex -0.172865 0.148817 0.348532
    endloop
  endfacet
  facet normal -0.46583 0.3587 0.808911
    outer loop
      vertex -0.189635 0.154266 0.337634
      vertex -0.193956 0.112965 0.35346
      vertex -0.1775 0.145449 0.348532
    endloop
  endfacet
  facet normal 0 0.607053 0.794661
    outer loop
      vertex -0.1625 0.163083 0.337634
      vertex -0.1775 0.163083 0.337634
      vertex -0.172865 0.148817 0.348532
    endloop
  endfacet
  facet normal 0 0.955426 0.295232
    outer loop
      vertex -0.179271 0.168532 0.32
      vertex -0.1775 0.163083 0.337634
      vertex -0.1625 0.163083 0.337634
    endloop
  endfacet
  facet normal 0 0 1
    outer loop
      vertex -0.178255 0.104467 0.359261
      vertex -0.179258 0.101545 0.359261
      vertex -0.178255 0.0955327 0.359261
    endloop
  endfacet
  facet normal -0.246919 0.192149 0.949795
    outer loop
      vertex -0.178255 0.104467 0.359261
      vertex -0.176357 0.106906 0.359261
      vertex -0.193956 0.112965 0.35346
    endloop
  endfacet
  facet normal -0.546936 -0.837174 0
    outer loop
      vertex -0.193805 0.0457301 0.290614
      vertex -0.210137 0.0564 0.309386
      vertex -0.210137 0.0564 0.290614
    endloop
  endfacet
  facet normal -0.546936 -0.837174 0
    outer loop
      vertex -0.193805 0.0457301 0.290614
      vertex -0.193805 0.0457301 0.309386
      vertex -0.210137 0.0564 0.309386
    endloop
  endfacet
  facet normal -0.324364 -0.49651 0.80515
    outer loop
      vertex -0.180942 0.0750549 0.35346
      vertex -0.198735 0.0687859 0.342426
      vertex -0.187042 0.061147 0.342426
    endloop
  endfacet
  facet normal -0.444556 -0.68049 0.582497
    outer loop
      vertex -0.187042 0.061147 0.342426
      vertex -0.198735 0.0687859 0.342426
      vertex -0.206208 0.0606679 0.327239
    endloop
  endfacet
  facet normal -0.768795 -0.263917 0.582496
    outer loop
      vertex -0.222731 0.0912007 0.327239
      vertex -0.217017 0.0745557 0.327239
      vertex -0.207313 0.0798073 0.342426
    endloop
  endfacet
  facet normal -0.90069 -0.309195 0.305215
    outer loop
      vertex -0.222119 0.0717947 0.309386
      vertex -0.217017 0.0745557 0.327239
      vertex -0.222731 0.0912007 0.327239
    endloop
  endfacet
  facet normal -0.246913 0.192164 -0.949793
    outer loop
      vertex -0.176357 0.106906 0.240739
      vertex -0.193956 0.112965 0.24654
      vertex -0.188449 0.120041 0.24654
    endloop
  endfacet
  facet normal -0.593063 0 -0.805156
    outer loop
      vertex -0.196868 0.0955165 0.24654
      vertex -0.211848 0.0930168 0.257574
      vertex -0.211848 0.106983 0.257574
    endloop
  endfacet
  facet normal -1 -0 -0
    outer loop
      vertex -0.228453 0.109754 0.309386
      vertex -0.228453 0.109754 0.290614
      vertex -0.228453 0.0902459 0.309386
    endloop
  endfacet
  facet normal -0.751491 -0.5849 -0.305209
    outer loop
      vertex -0.222119 0.0717947 0.290614
      vertex -0.206208 0.0606679 0.272761
      vertex -0.210137 0.0564 0.290614
    endloop
  endfacet
  facet normal 0.939297 0.156745 -0.305207
    outer loop
      vertex -0.11654 0.1 0.272761
      vertex -0.11395 0.119242 0.290614
      vertex -0.110739 0.1 0.290614
    endloop
  endfacet
  facet normal 0.986361 -0.164598 0
    outer loop
      vertex -0.11395 0.0807579 0.309386
      vertex -0.11395 0.0807579 0.290614
      vertex -0.110739 0.1 0.290614
    endloop
  endfacet
  facet normal 0.32651 -0.744371 -0.582498
    outer loop
      vertex -0.14076 0.0552448 0.272761
      vertex -0.159585 0.0588718 0.257574
      vertex -0.146795 0.064482 0.257574
    endloop
  endfacet
  facet normal 0.801749 0.133741 -0.582505
    outer loop
      vertex -0.11654 0.1 0.272761
      vertex -0.127574 0.1 0.257574
      vertex -0.129872 0.113776 0.257574
    endloop
  endfacet
  facet normal -0.19955 -0.787957 -0.582498
    outer loop
      vertex -0.173504 0.0577185 0.257574
      vertex -0.174415 0.0467222 0.272761
      vertex -0.187042 0.061147 0.257574
    endloop
  endfacet
  facet normal -0.233777 -0.923148 -0.3052
    outer loop
      vertex -0.191475 0.0510424 0.272761
      vertex -0.174894 0.0409411 0.290614
      vertex -0.193805 0.0457301 0.290614
    endloop
  endfacet
  facet normal 0.326516 -0.744364 -0.582503
    outer loop
      vertex -0.156876 0.0481755 0.272761
      vertex -0.159585 0.0588718 0.257574
      vertex -0.14076 0.0552448 0.272761
    endloop
  endfacet
  facet normal 0.521585 -0.282281 -0.80515
    outer loop
      vertex -0.129872 0.0862242 0.257574
      vertex -0.148504 0.0832692 0.24654
      vertex -0.144236 0.0911554 0.24654
    endloop
  endfacet
  facet normal -0.145567 0.574927 -0.805152
    outer loop
      vertex -0.187042 0.138853 0.257574
      vertex -0.172249 0.127146 0.24654
      vertex -0.180942 0.124945 0.24654
    endloop
  endfacet
  facet normal 0 0 -1
    outer loop
      vertex -0.178255 0.104467 0.240739
      vertex -0.17377 0.108596 0.240739
      vertex -0.161123 0.103048 0.240739
    endloop
  endfacet
  facet normal 0.939315 -0.156709 0.305172
    outer loop
      vertex -0.119436 0.0826414 0.327239
      vertex -0.11395 0.0807579 0.309386
      vertex -0.11654 0.1 0.327239
    endloop
  endfacet
  facet normal 0.939297 0.156745 0.305207
    outer loop
      vertex -0.11395 0.119242 0.309386
      vertex -0.11654 0.1 0.327239
      vertex -0.110739 0.1 0.309386
    endloop
  endfacet
  facet normal 0.275167 0.148876 0.949799
    outer loop
      vertex -0.161123 0.103048 0.359261
      vertex -0.144236 0.108845 0.35346
      vertex -0.162593 0.105765 0.359261
    endloop
  endfacet
  facet normal 0.308584 0.0515319 0.9498
    outer loop
      vertex -0.160614 0.1 0.359261
      vertex -0.144236 0.108845 0.35346
      vertex -0.161123 0.103048 0.359261
    endloop
  endfacet
  facet normal 0.211907 -0.230188 0.949794
    outer loop
      vertex -0.162593 0.094235 0.359261
      vertex -0.155101 0.0771961 0.35346
      vertex -0.148504 0.0832692 0.35346
    endloop
  endfacet
  facet normal 0.0258388 -0.31181 0.949793
    outer loop
      vertex -0.167696 0.0909011 0.359261
      vertex -0.172249 0.0728536 0.35346
      vertex -0.163313 0.0735941 0.35346
    endloop
  endfacet
  facet normal 0.521584 -0.2823 0.805144
    outer loop
      vertex -0.13652 0.0739412 0.342426
      vertex -0.129872 0.0862242 0.342426
      vertex -0.148504 0.0832692 0.35346
    endloop
  endfacet
  facet normal 0.714848 -0.386901 0.582494
    outer loop
      vertex -0.119436 0.0826414 0.327239
      vertex -0.129872 0.0862242 0.342426
      vertex -0.13652 0.0739412 0.342426
    endloop
  endfacet
  facet normal 0.401695 -0.915774 0
    outer loop
      vertex -0.155452 0.0425521 0.309386
      vertex -0.155452 0.0425521 0.290614
      vertex -0.137587 0.0503884 0.290614
    endloop
  endfacet
  facet normal 0.0786388 -0.949035 0.305203
    outer loop
      vertex -0.156876 0.0481755 0.327239
      vertex -0.174894 0.0409411 0.309386
      vertex -0.155452 0.0425521 0.309386
    endloop
  endfacet
  facet normal 0.879471 -0.475953 0
    outer loop
      vertex -0.123235 0.063601 0.290614
      vertex -0.11395 0.0807579 0.309386
      vertex -0.123235 0.063601 0.309386
    endloop
  endfacet
  facet normal 0.939298 -0.156744 -0.305207
    outer loop
      vertex -0.110739 0.1 0.290614
      vertex -0.11395 0.0807579 0.290614
      vertex -0.11654 0.1 0.272761
    endloop
  endfacet
  facet normal 0.837518 -0.453249 0.30517
    outer loop
      vertex -0.11395 0.0807579 0.309386
      vertex -0.127812 0.0671639 0.327239
      vertex -0.123235 0.063601 0.309386
    endloop
  endfacet
  facet normal 0.837519 -0.453243 0.305176
    outer loop
      vertex -0.119436 0.0826414 0.327239
      vertex -0.127812 0.0671639 0.327239
      vertex -0.11395 0.0807579 0.309386
    endloop
  endfacet
  facet normal 0.382528 -0.872077 0.30521
    outer loop
      vertex -0.155452 0.0425521 0.309386
      vertex -0.137587 0.0503884 0.309386
      vertex -0.14076 0.0552448 0.327239
    endloop
  endfacet
  facet normal 0.401695 -0.915774 0
    outer loop
      vertex -0.137587 0.0503884 0.290614
      vertex -0.137587 0.0503884 0.309386
      vertex -0.155452 0.0425521 0.309386
    endloop
  endfacet
  facet normal -0.593063 0 0.805156
    outer loop
      vertex -0.196868 0.104483 0.35346
      vertex -0.211848 0.106983 0.342426
      vertex -0.211848 0.0930168 0.342426
    endloop
  endfacet
  facet normal -0.560921 0.192573 0.80516
    outer loop
      vertex -0.207313 0.120193 0.342426
      vertex -0.196868 0.104483 0.35346
      vertex -0.193956 0.112965 0.35346
    endloop
  endfacet
  facet normal -0.145612 0.574889 -0.805171
    outer loop
      vertex -0.173504 0.142282 0.257574
      vertex -0.172249 0.127146 0.24654
      vertex -0.187042 0.138853 0.257574
    endloop
  endfacet
  facet normal 0 0.949291 -0.314399
    outer loop
      vertex -0.174415 0.153278 0.272761
      vertex -0.1775 0.163083 0.302366
      vertex -0.1625 0.163083 0.302366
    endloop
  endfacet
  facet normal 0.52159 0.282291 -0.805143
    outer loop
      vertex -0.148504 0.116731 0.24654
      vertex -0.13652 0.126059 0.257574
      vertex -0.144236 0.108845 0.24654
    endloop
  endfacet
  facet normal 0.275159 0.148919 -0.949795
    outer loop
      vertex -0.144236 0.108845 0.24654
      vertex -0.162593 0.105765 0.240739
      vertex -0.148504 0.116731 0.24654
    endloop
  endfacet
  facet normal 0.801749 -0.133743 -0.582505
    outer loop
      vertex -0.129872 0.0862242 0.257574
      vertex -0.127574 0.1 0.257574
      vertex -0.11654 0.1 0.272761
    endloop
  endfacet
  facet normal 0.58498 -0.097583 -0.805156
    outer loop
      vertex -0.129872 0.0862242 0.257574
      vertex -0.142761 0.1 0.24654
      vertex -0.127574 0.1 0.257574
    endloop
  endfacet
  facet normal -0.736249 0.602255 0.308588
    outer loop
      vertex -0.194271 0.157634 0.32
      vertex -0.206208 0.139332 0.327239
      vertex -0.189635 0.154266 0.337634
    endloop
  endfacet
  facet normal -0.561574 0.77295 0.295268
    outer loop
      vertex -0.179271 0.168532 0.32
      vertex -0.194271 0.157634 0.32
      vertex -0.189635 0.154266 0.337634
    endloop
  endfacet
  facet normal 0.223823 0.924354 -0.308988
    outer loop
      vertex -0.1625 0.163083 0.302366
      vertex -0.155452 0.157448 0.290614
      vertex -0.156876 0.151825 0.272761
    endloop
  endfacet
  facet normal 0 0.955426 -0.295232
    outer loop
      vertex -0.179271 0.168532 0.32
      vertex -0.160729 0.168532 0.32
      vertex -0.1625 0.163083 0.302366
    endloop
  endfacet
  facet normal 0.0489778 -0.59104 0.805154
    outer loop
      vertex -0.163313 0.0735941 0.35346
      vertex -0.172249 0.0728536 0.35346
      vertex -0.159585 0.0588718 0.342426
    endloop
  endfacet
  facet normal 0 0 1
    outer loop
      vertex -0.178255 0.0955327 0.359261
      vertex -0.17377 0.0914045 0.359261
      vertex -0.167696 0.0909011 0.359261
    endloop
  endfacet
  facet normal 0.0258339 -0.311809 0.949794
    outer loop
      vertex -0.170775 0.090646 0.359261
      vertex -0.172249 0.0728536 0.35346
      vertex -0.167696 0.0909011 0.359261
    endloop
  endfacet
  facet normal -0.0768051 -0.303306 0.949793
    outer loop
      vertex -0.180942 0.0750549 0.35346
      vertex -0.172249 0.0728536 0.35346
      vertex -0.170775 0.090646 0.359261
    endloop
  endfacet
  facet normal 0.12567 -0.286533 0.949793
    outer loop
      vertex -0.155101 0.0771961 0.35346
      vertex -0.164866 0.0921423 0.359261
      vertex -0.167696 0.0909011 0.359261
    endloop
  endfacet
  facet normal 0 0 1
    outer loop
      vertex -0.162593 0.094235 0.359261
      vertex -0.161123 0.0969523 0.359261
      vertex -0.160614 0.1 0.359261
    endloop
  endfacet
  facet normal -0.295927 -0.101608 0.949791
    outer loop
      vertex -0.196868 0.0955165 0.35346
      vertex -0.193956 0.0870355 0.35346
      vertex -0.178255 0.0955327 0.359261
    endloop
  endfacet
  facet normal -0.56091 -0.192592 0.805163
    outer loop
      vertex -0.207313 0.0798073 0.342426
      vertex -0.193956 0.0870355 0.35346
      vertex -0.196868 0.0955165 0.35346
    endloop
  endfacet
  facet normal 0.0825788 -0.996585 0
    outer loop
      vertex -0.155452 0.0425521 0.309386
      vertex -0.174894 0.0409411 0.309386
      vertex -0.155452 0.0425521 0.290614
    endloop
  endfacet
  facet normal 0.067122 -0.810055 0.5825
    outer loop
      vertex -0.159585 0.0588718 0.342426
      vertex -0.174415 0.0467222 0.327239
      vertex -0.156876 0.0481755 0.327239
    endloop
  endfacet
  facet normal 0.461677 0.363827 0.809002
    outer loop
      vertex -0.13652 0.126059 0.342426
      vertex -0.1625 0.145449 0.348532
      vertex -0.148504 0.116731 0.35346
    endloop
  endfacet
  facet normal 0.461822 0.364084 0.808804
    outer loop
      vertex -0.150365 0.154266 0.337634
      vertex -0.1625 0.145449 0.348532
      vertex -0.13652 0.126059 0.342426
    endloop
  endfacet
  facet normal 0.112973 0.257625 0.959618
    outer loop
      vertex -0.167696 0.109099 0.359261
      vertex -0.164866 0.107858 0.359261
      vertex -0.167135 0.148817 0.348532
    endloop
  endfacet
  facet normal 0 0 1
    outer loop
      vertex -0.162593 0.105765 0.359261
      vertex -0.164866 0.107858 0.359261
      vertex -0.167696 0.109099 0.359261
    endloop
  endfacet
  facet normal 0.0215692 0.260438 0.96525
    outer loop
      vertex -0.167135 0.148817 0.348532
      vertex -0.170775 0.109354 0.359261
      vertex -0.167696 0.109099 0.359261
    endloop
  endfacet
  facet normal -0 0.262352 0.964972
    outer loop
      vertex -0.172865 0.148817 0.348532
      vertex -0.170775 0.109354 0.359261
      vertex -0.167135 0.148817 0.348532
    endloop
  endfacet
  facet normal 0 0 1
    outer loop
      vertex -0.179258 0.101545 0.359261
      vertex -0.179258 0.0984551 0.359261
      vertex -0.178255 0.0955327 0.359261
    endloop
  endfacet
  facet normal -0.312876 0 0.949794
    outer loop
      vertex -0.196868 0.0955165 0.35346
      vertex -0.179258 0.0984551 0.359261
      vertex -0.179258 0.101545 0.359261
    endloop
  endfacet
  facet normal -0.768798 -0.263939 -0.582483
    outer loop
      vertex -0.211848 0.0930168 0.257574
      vertex -0.207313 0.0798073 0.257574
      vertex -0.222731 0.0912007 0.272761
    endloop
  endfacet
  facet normal -0.789145 -0.614207 -0
    outer loop
      vertex -0.222119 0.0717947 0.309386
      vertex -0.222119 0.0717947 0.290614
      vertex -0.210137 0.0564 0.290614
    endloop
  endfacet
  facet normal -0.520841 -0.797232 -0.305198
    outer loop
      vertex -0.210137 0.0564 0.290614
      vertex -0.191475 0.0510424 0.272761
      vertex -0.193805 0.0457301 0.290614
    endloop
  endfacet
  facet normal -0.812843 -0 -0.582483
    outer loop
      vertex -0.211848 0.106983 0.257574
      vertex -0.211848 0.0930168 0.257574
      vertex -0.222731 0.0912007 0.272761
    endloop
  endfacet
  facet normal -0.520849 -0.797223 0.305208
    outer loop
      vertex -0.206208 0.0606679 0.327239
      vertex -0.210137 0.0564 0.309386
      vertex -0.191475 0.0510424 0.327239
    endloop
  endfacet
  facet normal -0.751491 -0.5849 0.305209
    outer loop
      vertex -0.222119 0.0717947 0.309386
      vertex -0.210137 0.0564 0.309386
      vertex -0.206208 0.0606679 0.327239
    endloop
  endfacet
  facet normal -0.324369 -0.496501 0.805153
    outer loop
      vertex -0.188449 0.0799593 0.35346
      vertex -0.198735 0.0687859 0.342426
      vertex -0.180942 0.0750549 0.35346
    endloop
  endfacet
  facet normal -0.468018 -0.364261 0.805154
    outer loop
      vertex -0.207313 0.0798073 0.342426
      vertex -0.198735 0.0687859 0.342426
      vertex -0.188449 0.0799593 0.35346
    endloop
  endfacet
  facet normal -0.44456 0.680487 -0.582498
    outer loop
      vertex -0.198735 0.131214 0.257574
      vertex -0.206208 0.139332 0.272761
      vertex -0.187042 0.138853 0.257574
    endloop
  endfacet
  facet normal -0.560927 0.192567 -0.805158
    outer loop
      vertex -0.207313 0.120193 0.257574
      vertex -0.196868 0.104483 0.24654
      vertex -0.211848 0.106983 0.257574
    endloop
  endfacet
  facet normal -0.945822 -0.324685 -0
    outer loop
      vertex -0.228453 0.0902459 0.309386
      vertex -0.228453 0.0902459 0.290614
      vertex -0.222119 0.0717947 0.290614
    endloop
  endfacet
  facet normal -0.945822 -0.324685 -0
    outer loop
      vertex -0.222119 0.0717947 0.309386
      vertex -0.228453 0.0902459 0.309386
      vertex -0.222119 0.0717947 0.290614
    endloop
  endfacet
  facet normal -0.900689 0.309195 -0.305216
    outer loop
      vertex -0.222731 0.108799 0.272761
      vertex -0.228453 0.109754 0.290614
      vertex -0.222119 0.128205 0.290614
    endloop
  endfacet
  facet normal -0.952284 0 -0.305213
    outer loop
      vertex -0.222731 0.0912007 0.272761
      vertex -0.228453 0.109754 0.290614
      vertex -0.222731 0.108799 0.272761
    endloop
  endfacet
  facet normal 0.308618 0.0514653 -0.949793
    outer loop
      vertex -0.144236 0.108845 0.24654
      vertex -0.142761 0.1 0.24654
      vertex -0.160614 0.1 0.240739
    endloop
  endfacet
  facet normal 0.801754 -0.13376 -0.582494
    outer loop
      vertex -0.119436 0.0826414 0.272761
      vertex -0.129872 0.0862242 0.257574
      vertex -0.11654 0.1 0.272761
    endloop
  endfacet
  facet normal 0.837518 0.453247 -0.305172
    outer loop
      vertex -0.11395 0.119242 0.290614
      vertex -0.127812 0.132836 0.272761
      vertex -0.123235 0.136399 0.290614
    endloop
  endfacet
  facet normal 0.939317 0.156706 -0.305168
    outer loop
      vertex -0.119436 0.117359 0.272761
      vertex -0.11395 0.119242 0.290614
      vertex -0.11654 0.1 0.272761
    endloop
  endfacet
  facet normal 0.550498 -0.598019 -0.582517
    outer loop
      vertex -0.13652 0.0739412 0.257574
      vertex -0.127812 0.0671639 0.272761
      vertex -0.14076 0.0552448 0.272761
    endloop
  endfacet
  facet normal 0.71485 -0.386857 -0.582522
    outer loop
      vertex -0.119436 0.0826414 0.272761
      vertex -0.127812 0.0671639 0.272761
      vertex -0.13652 0.0739412 0.257574
    endloop
  endfacet
  facet normal -0.0767976 0.303318 -0.94979
    outer loop
      vertex -0.172249 0.127146 0.24654
      vertex -0.17377 0.108596 0.240739
      vertex -0.180942 0.124945 0.24654
    endloop
  endfacet
  facet normal -0.324369 0.496511 -0.805146
    outer loop
      vertex -0.187042 0.138853 0.257574
      vertex -0.188449 0.120041 0.24654
      vertex -0.198735 0.131214 0.257574
    endloop
  endfacet
  facet normal 0.0258388 -0.31181 -0.949793
    outer loop
      vertex -0.167696 0.0909011 0.240739
      vertex -0.163313 0.0735941 0.24654
      vertex -0.172249 0.0728536 0.24654
    endloop
  endfacet
  facet normal 0.238233 -0.543119 -0.80515
    outer loop
      vertex -0.146795 0.064482 0.257574
      vertex -0.159585 0.0588718 0.257574
      vertex -0.155101 0.0771961 0.24654
    endloop
  endfacet
  facet normal -0.312876 -0 -0.949794
    outer loop
      vertex -0.196868 0.104483 0.24654
      vertex -0.179258 0.101545 0.240739
      vertex -0.196868 0.0955165 0.24654
    endloop
  endfacet
  facet normal 0.0258242 0.311815 -0.949792
    outer loop
      vertex -0.167696 0.109099 0.240739
      vertex -0.170775 0.109354 0.240739
      vertex -0.172249 0.127146 0.24654
    endloop
  endfacet
  facet normal -0.812843 -0 -0.582483
    outer loop
      vertex -0.222731 0.108799 0.272761
      vertex -0.211848 0.106983 0.257574
      vertex -0.222731 0.0912007 0.272761
    endloop
  endfacet
  facet normal -0.468016 0.364272 -0.80515
    outer loop
      vertex -0.188449 0.120041 0.24654
      vertex -0.207313 0.120193 0.257574
      vertex -0.198735 0.131214 0.257574
    endloop
  endfacet
  facet normal -0.324351 0.496514 -0.805153
    outer loop
      vertex -0.180942 0.124945 0.24654
      vertex -0.188449 0.120041 0.24654
      vertex -0.187042 0.138853 0.257574
    endloop
  endfacet
  facet normal -0 0 -1
    outer loop
      vertex -0.162593 0.094235 0.240739
      vertex -0.167696 0.0909011 0.240739
      vertex -0.161123 0.103048 0.240739
    endloop
  endfacet
  facet normal 0.801754 0.133756 0.582495
    outer loop
      vertex -0.11654 0.1 0.327239
      vertex -0.119436 0.117359 0.327239
      vertex -0.129872 0.113776 0.342426
    endloop
  endfacet
  facet normal 0.939317 0.156706 0.305168
    outer loop
      vertex -0.11395 0.119242 0.309386
      vertex -0.119436 0.117359 0.327239
      vertex -0.11654 0.1 0.327239
    endloop
  endfacet
  facet normal 0.584982 0.0975521 0.805158
    outer loop
      vertex -0.144236 0.108845 0.35346
      vertex -0.142761 0.1 0.35346
      vertex -0.127574 0.1 0.342426
    endloop
  endfacet
  facet normal 0.308618 0.0514653 0.949793
    outer loop
      vertex -0.160614 0.1 0.359261
      vertex -0.142761 0.1 0.35346
      vertex -0.144236 0.108845 0.35346
    endloop
  endfacet
  facet normal 0.382537 -0.872076 -0.305202
    outer loop
      vertex -0.14076 0.0552448 0.272761
      vertex -0.155452 0.0425521 0.290614
      vertex -0.156876 0.0481755 0.272761
    endloop
  endfacet
  facet normal 0.382528 -0.872077 -0.30521
    outer loop
      vertex -0.137587 0.0503884 0.290614
      vertex -0.155452 0.0425521 0.290614
      vertex -0.14076 0.0552448 0.272761
    endloop
  endfacet
  facet normal 0.837518 -0.453249 -0.30517
    outer loop
      vertex -0.127812 0.0671639 0.272761
      vertex -0.11395 0.0807579 0.290614
      vertex -0.123235 0.063601 0.290614
    endloop
  endfacet
  facet normal 0.837519 -0.453243 -0.305176
    outer loop
      vertex -0.119436 0.0826414 0.272761
      vertex -0.11395 0.0807579 0.290614
      vertex -0.127812 0.0671639 0.272761
    endloop
  endfacet
  facet normal -0.471802 0.358098 0.80571
    outer loop
      vertex -0.207313 0.120193 0.342426
      vertex -0.193956 0.112965 0.35346
      vertex -0.189635 0.154266 0.337634
    endloop
  endfacet
  facet normal -0.295928 0.101597 0.949792
    outer loop
      vertex -0.193956 0.112965 0.35346
      vertex -0.196868 0.104483 0.35346
      vertex -0.178255 0.104467 0.359261
    endloop
  endfacet
  facet normal -0.751497 0.584889 0.305216
    outer loop
      vertex -0.217017 0.125444 0.327239
      vertex -0.206208 0.139332 0.327239
      vertex -0.222119 0.128205 0.309386
    endloop
  endfacet
  facet normal -0.738718 0.574942 0.351763
    outer loop
      vertex -0.189635 0.154266 0.337634
      vertex -0.206208 0.139332 0.327239
      vertex -0.217017 0.125444 0.327239
    endloop
  endfacet
  facet normal -0.231936 0.915934 -0.327521
    outer loop
      vertex -0.191475 0.148958 0.272761
      vertex -0.1775 0.163083 0.302366
      vertex -0.174415 0.153278 0.272761
    endloop
  endfacet
  facet normal -0.267976 0.912562 -0.3089
    outer loop
      vertex -0.179271 0.168532 0.32
      vertex -0.1775 0.163083 0.302366
      vertex -0.191475 0.148958 0.272761
    endloop
  endfacet
  facet normal 0 0 -1
    outer loop
      vertex -0.167696 0.109099 0.240739
      vertex -0.162593 0.105765 0.240739
      vertex -0.161123 0.103048 0.240739
    endloop
  endfacet
  facet normal 0.308584 0.0515319 -0.9498
    outer loop
      vertex -0.160614 0.1 0.240739
      vertex -0.161123 0.103048 0.240739
      vertex -0.144236 0.108845 0.24654
    endloop
  endfacet
  facet normal 0.048943 0.59102 -0.805171
    outer loop
      vertex -0.163313 0.126406 0.24654
      vertex -0.172249 0.127146 0.24654
      vertex -0.173504 0.142282 0.257574
    endloop
  endfacet
  facet normal -0.199573 0.787933 -0.582522
    outer loop
      vertex -0.191475 0.148958 0.272761
      vertex -0.173504 0.142282 0.257574
      vertex -0.187042 0.138853 0.257574
    endloop
  endfacet
  facet normal 0.238227 0.543125 -0.805148
    outer loop
      vertex -0.155101 0.122804 0.24654
      vertex -0.159585 0.141128 0.257574
      vertex -0.146795 0.135518 0.257574
    endloop
  endfacet
  facet normal 0.326546 0.744358 -0.582494
    outer loop
      vertex -0.14076 0.144755 0.272761
      vertex -0.146795 0.135518 0.257574
      vertex -0.156876 0.151825 0.272761
    endloop
  endfacet
  facet normal 0.382564 0.872052 -0.305239
    outer loop
      vertex -0.156876 0.151825 0.272761
      vertex -0.137587 0.149612 0.290614
      vertex -0.14076 0.144755 0.272761
    endloop
  endfacet
  facet normal 0.561574 0.77295 0.295268
    outer loop
      vertex -0.150365 0.154266 0.337634
      vertex -0.145729 0.157634 0.32
      vertex -0.160729 0.168532 0.32
    endloop
  endfacet
  facet normal 0.225068 0.924308 -0.30822
    outer loop
      vertex -0.160729 0.168532 0.32
      vertex -0.155452 0.157448 0.290614
      vertex -0.1625 0.163083 0.302366
    endloop
  endfacet
  facet normal 0.387473 0.883385 -0.26362
    outer loop
      vertex -0.160729 0.168532 0.32
      vertex -0.137587 0.149612 0.290614
      vertex -0.155452 0.157448 0.290614
    endloop
  endfacet
  facet normal -0.171106 -0.261939 0.949795
    outer loop
      vertex -0.17377 0.0914045 0.359261
      vertex -0.176357 0.0930944 0.359261
      vertex -0.180942 0.0750549 0.35346
    endloop
  endfacet
  facet normal 0 0 1
    outer loop
      vertex -0.178255 0.0955327 0.359261
      vertex -0.176357 0.0930944 0.359261
      vertex -0.17377 0.0914045 0.359261
    endloop
  endfacet
  facet normal 0 0 1
    outer loop
      vertex -0.17377 0.0914045 0.359261
      vertex -0.170775 0.090646 0.359261
      vertex -0.167696 0.0909011 0.359261
    endloop
  endfacet
  facet normal -0.0768127 -0.303301 0.949794
    outer loop
      vertex -0.180942 0.0750549 0.35346
      vertex -0.170775 0.090646 0.359261
      vertex -0.17377 0.0914045 0.359261
    endloop
  endfacet
  facet normal 0.125678 -0.286526 0.949794
    outer loop
      vertex -0.163313 0.0735941 0.35346
      vertex -0.155101 0.0771961 0.35346
      vertex -0.167696 0.0909011 0.359261
    endloop
  endfacet
  facet normal 0.238226 -0.543118 0.805153
    outer loop
      vertex -0.159585 0.0588718 0.342426
      vertex -0.155101 0.0771961 0.35346
      vertex -0.163313 0.0735941 0.35346
    endloop
  endfacet
  facet normal 0.275173 -0.148863 0.9498
    outer loop
      vertex -0.162593 0.094235 0.359261
      vertex -0.144236 0.0911554 0.35346
      vertex -0.161123 0.0969523 0.359261
    endloop
  endfacet
  facet normal 0.275162 -0.148917 0.949794
    outer loop
      vertex -0.148504 0.0832692 0.35346
      vertex -0.144236 0.0911554 0.35346
      vertex -0.162593 0.094235 0.359261
    endloop
  endfacet
  facet normal 0.078638 -0.949035 0.305203
    outer loop
      vertex -0.174415 0.0467222 0.327239
      vertex -0.174894 0.0409411 0.309386
      vertex -0.156876 0.0481755 0.327239
    endloop
  endfacet
  facet normal -0.233774 -0.923147 0.305203
    outer loop
      vertex -0.191475 0.0510424 0.327239
      vertex -0.174894 0.0409411 0.309386
      vertex -0.174415 0.0467222 0.327239
    endloop
  endfacet
  facet normal 0 0 1
    outer loop
      vertex -0.170775 0.109354 0.359261
      vertex -0.176357 0.106906 0.359261
      vertex -0.178255 0.104467 0.359261
    endloop
  endfacet
  facet normal -0.168279 0.257597 0.951486
    outer loop
      vertex -0.176357 0.106906 0.359261
      vertex -0.17377 0.108596 0.359261
      vertex -0.172865 0.148817 0.348532
    endloop
  endfacet
  facet normal -1 0 0
    outer loop
      vertex -0.228453 0.109754 0.290614
      vertex -0.228453 0.0902459 0.290614
      vertex -0.228453 0.0902459 0.309386
    endloop
  endfacet
  facet normal -0.952284 0 -0.305213
    outer loop
      vertex -0.222731 0.0912007 0.272761
      vertex -0.228453 0.0902459 0.290614
      vertex -0.228453 0.109754 0.290614
    endloop
  endfacet
  facet normal 0.584982 0.0975521 -0.805158
    outer loop
      vertex -0.127574 0.1 0.257574
      vertex -0.142761 0.1 0.24654
      vertex -0.144236 0.108845 0.24654
    endloop
  endfacet
  facet normal 0.584991 0.0975835 -0.805148
    outer loop
      vertex -0.129872 0.113776 0.257574
      vertex -0.127574 0.1 0.257574
      vertex -0.144236 0.108845 0.24654
    endloop
  endfacet
  facet normal 0.714858 0.386874 -0.5825
    outer loop
      vertex -0.129872 0.113776 0.257574
      vertex -0.127812 0.132836 0.272761
      vertex -0.119436 0.117359 0.272761
    endloop
  endfacet
  facet normal 0.879472 0.475951 0
    outer loop
      vertex -0.11395 0.119242 0.309386
      vertex -0.11395 0.119242 0.290614
      vertex -0.123235 0.136399 0.290614
    endloop
  endfacet
  facet normal 0.52158 0.282298 -0.805147
    outer loop
      vertex -0.144236 0.108845 0.24654
      vertex -0.13652 0.126059 0.257574
      vertex -0.129872 0.113776 0.257574
    endloop
  endfacet
  facet normal 0.550506 0.598033 -0.582494
    outer loop
      vertex -0.14076 0.144755 0.272761
      vertex -0.127812 0.132836 0.272761
      vertex -0.146795 0.135518 0.257574
    endloop
  endfacet
  facet normal 0.275173 -0.148863 -0.9498
    outer loop
      vertex -0.162593 0.094235 0.240739
      vertex -0.161123 0.0969523 0.240739
      vertex -0.144236 0.0911554 0.24654
    endloop
  endfacet
  facet normal 0 0 -1
    outer loop
      vertex -0.160614 0.1 0.240739
      vertex -0.161123 0.0969523 0.240739
      vertex -0.162593 0.094235 0.240739
    endloop
  endfacet
  facet normal 0.211907 -0.230188 -0.949794
    outer loop
      vertex -0.162593 0.094235 0.240739
      vertex -0.148504 0.0832692 0.24654
      vertex -0.155101 0.0771961 0.24654
    endloop
  endfacet
  facet normal 0.275162 -0.148917 -0.949794
    outer loop
      vertex -0.144236 0.0911554 0.24654
      vertex -0.148504 0.0832692 0.24654
      vertex -0.162593 0.094235 0.240739
    endloop
  endfacet
  facet normal 0.12567 -0.286533 -0.949793
    outer loop
      vertex -0.167696 0.0909011 0.240739
      vertex -0.164866 0.0921423 0.240739
      vertex -0.155101 0.0771961 0.24654
    endloop
  endfacet
  facet normal 0.125678 -0.286526 -0.949794
    outer loop
      vertex -0.155101 0.0771961 0.24654
      vertex -0.163313 0.0735941 0.24654
      vertex -0.167696 0.0909011 0.240739
    endloop
  endfacet
  facet normal 0.238226 -0.543118 -0.805153
    outer loop
      vertex -0.159585 0.0588718 0.257574
      vertex -0.163313 0.0735941 0.24654
      vertex -0.155101 0.0771961 0.24654
    endloop
  endfacet
  facet normal 0.0489778 -0.59104 -0.805154
    outer loop
      vertex -0.172249 0.0728536 0.24654
      vertex -0.163313 0.0735941 0.24654
      vertex -0.159585 0.0588718 0.257574
    endloop
  endfacet
  facet normal -0.560928 -0.192574 -0.805155
    outer loop
      vertex -0.196868 0.0955165 0.24654
      vertex -0.207313 0.0798073 0.257574
      vertex -0.211848 0.0930168 0.257574
    endloop
  endfacet
  facet normal -0.444556 -0.68049 -0.582497
    outer loop
      vertex -0.187042 0.061147 0.257574
      vertex -0.206208 0.0606679 0.272761
      vertex -0.198735 0.0687859 0.257574
    endloop
  endfacet
  facet normal -0.0768051 -0.303306 -0.949793
    outer loop
      vertex -0.180942 0.0750549 0.24654
      vertex -0.170775 0.090646 0.240739
      vertex -0.172249 0.0728536 0.24654
    endloop
  endfacet
  facet normal -0.56091 -0.192592 -0.805163
    outer loop
      vertex -0.193956 0.0870355 0.24654
      vertex -0.207313 0.0798073 0.257574
      vertex -0.196868 0.0955165 0.24654
    endloop
  endfacet
  facet normal -0.768801 0.26393 -0.582482
    outer loop
      vertex -0.222731 0.108799 0.272761
      vertex -0.207313 0.120193 0.257574
      vertex -0.211848 0.106983 0.257574
    endloop
  endfacet
  facet normal -0.7688 0.263918 -0.58249
    outer loop
      vertex -0.217017 0.125444 0.272761
      vertex -0.207313 0.120193 0.257574
      vertex -0.222731 0.108799 0.272761
    endloop
  endfacet
  facet normal 0.0786388 -0.949035 -0.305203
    outer loop
      vertex -0.155452 0.0425521 0.290614
      vertex -0.174894 0.0409411 0.290614
      vertex -0.156876 0.0481755 0.272761
    endloop
  endfacet
  facet normal -0.199538 -0.787954 -0.582506
    outer loop
      vertex -0.187042 0.061147 0.257574
      vertex -0.174415 0.0467222 0.272761
      vertex -0.191475 0.0510424 0.272761
    endloop
  endfacet
  facet normal -0.560927 0.192567 0.805158
    outer loop
      vertex -0.207313 0.120193 0.342426
      vertex -0.211848 0.106983 0.342426
      vertex -0.196868 0.104483 0.35346
    endloop
  endfacet
  facet normal -0.593063 0 0.805156
    outer loop
      vertex -0.196868 0.0955165 0.35346
      vertex -0.196868 0.104483 0.35346
      vertex -0.211848 0.0930168 0.342426
    endloop
  endfacet
  facet normal -0.7688 0.263918 0.58249
    outer loop
      vertex -0.217017 0.125444 0.327239
      vertex -0.222731 0.108799 0.327239
      vertex -0.207313 0.120193 0.342426
    endloop
  endfacet
  facet normal -0.90069 0.309195 0.305215
    outer loop
      vertex -0.222119 0.128205 0.309386
      vertex -0.222731 0.108799 0.327239
      vertex -0.217017 0.125444 0.327239
    endloop
  endfacet
  facet normal -0.737396 0.602064 0.306214
    outer loop
      vertex -0.210137 0.1436 0.309386
      vertex -0.206208 0.139332 0.327239
      vertex -0.194271 0.157634 0.32
    endloop
  endfacet
  facet normal -0.751496 0.584893 0.305212
    outer loop
      vertex -0.222119 0.128205 0.309386
      vertex -0.206208 0.139332 0.327239
      vertex -0.210137 0.1436 0.309386
    endloop
  endfacet
  facet normal 0 0 -1
    outer loop
      vertex -0.167696 0.0909011 0.240739
      vertex -0.178255 0.0955327 0.240739
      vertex -0.178255 0.104467 0.240739
    endloop
  endfacet
  facet normal -0.641448 -0.499241 -0.582497
    outer loop
      vertex -0.206208 0.0606679 0.272761
      vertex -0.207313 0.0798073 0.257574
      vertex -0.198735 0.0687859 0.257574
    endloop
  endfacet
  facet normal 0.238229 0.543125 -0.805148
    outer loop
      vertex -0.163313 0.126406 0.24654
      vertex -0.159585 0.141128 0.257574
      vertex -0.155101 0.122804 0.24654
    endloop
  endfacet
  facet normal 0.401681 0.436339 -0.805146
    outer loop
      vertex -0.148504 0.116731 0.24654
      vertex -0.155101 0.122804 0.24654
      vertex -0.146795 0.135518 0.257574
    endloop
  endfacet
  facet normal 0.0490024 0.591044 -0.80515
    outer loop
      vertex -0.173504 0.142282 0.257574
      vertex -0.159585 0.141128 0.257574
      vertex -0.163313 0.126406 0.24654
    endloop
  endfacet
  facet normal 0.0671583 0.810032 -0.582527
    outer loop
      vertex -0.156876 0.151825 0.272761
      vertex -0.159585 0.141128 0.257574
      vertex -0.173504 0.142282 0.257574
    endloop
  endfacet
  facet normal 0.644999 0.7006 -0.305181
    outer loop
      vertex -0.127812 0.132836 0.272761
      vertex -0.137587 0.149612 0.290614
      vertex -0.123235 0.136399 0.290614
    endloop
  endfacet
  facet normal 0.644946 0.700626 -0.305235
    outer loop
      vertex -0.14076 0.144755 0.272761
      vertex -0.137587 0.149612 0.290614
      vertex -0.127812 0.132836 0.272761
    endloop
  endfacet
  facet normal -0.145584 -0.574915 0.805157
    outer loop
      vertex -0.173504 0.0577185 0.342426
      vertex -0.172249 0.0728536 0.35346
      vertex -0.180942 0.0750549 0.35346
    endloop
  endfacet
  facet normal 0.0489727 -0.591044 0.805152
    outer loop
      vertex -0.159585 0.0588718 0.342426
      vertex -0.172249 0.0728536 0.35346
      vertex -0.173504 0.0577185 0.342426
    endloop
  endfacet
  facet normal 0.211922 -0.230181 0.949793
    outer loop
      vertex -0.162593 0.094235 0.359261
      vertex -0.164866 0.0921423 0.359261
      vertex -0.155101 0.0771961 0.35346
    endloop
  endfacet
  facet normal 0 0 1
    outer loop
      vertex -0.167696 0.0909011 0.359261
      vertex -0.164866 0.0921423 0.359261
      vertex -0.162593 0.094235 0.359261
    endloop
  endfacet
  facet normal 0.584997 -0.0975591 0.805146
    outer loop
      vertex -0.142761 0.1 0.35346
      vertex -0.144236 0.0911554 0.35346
      vertex -0.129872 0.0862242 0.342426
    endloop
  endfacet
  facet normal 0.308617 -0.0514677 0.949793
    outer loop
      vertex -0.160614 0.1 0.359261
      vertex -0.144236 0.0911554 0.35346
      vertex -0.142761 0.1 0.35346
    endloop
  endfacet
  facet normal -0.24549 -0.969399 0
    outer loop
      vertex -0.174894 0.0409411 0.309386
      vertex -0.193805 0.0457301 0.309386
      vertex -0.193805 0.0457301 0.290614
    endloop
  endfacet
  facet normal -0.233777 -0.923148 0.3052
    outer loop
      vertex -0.191475 0.0510424 0.327239
      vertex -0.193805 0.0457301 0.309386
      vertex -0.174894 0.0409411 0.309386
    endloop
  endfacet
  facet normal -0.246913 0.192164 0.949793
    outer loop
      vertex -0.176357 0.106906 0.359261
      vertex -0.188449 0.120041 0.35346
      vertex -0.193956 0.112965 0.35346
    endloop
  endfacet
  facet normal -0.175694 0.257853 0.950076
    outer loop
      vertex -0.172865 0.148817 0.348532
      vertex -0.188449 0.120041 0.35346
      vertex -0.176357 0.106906 0.359261
    endloop
  endfacet
  facet normal 0 0 1
    outer loop
      vertex -0.170775 0.109354 0.359261
      vertex -0.17377 0.108596 0.359261
      vertex -0.176357 0.106906 0.359261
    endloop
  endfacet
  facet normal -0.0654388 0.258561 0.963776
    outer loop
      vertex -0.172865 0.148817 0.348532
      vertex -0.17377 0.108596 0.359261
      vertex -0.170775 0.109354 0.359261
    endloop
  endfacet
  facet normal 0.584997 -0.0975591 -0.805146
    outer loop
      vertex -0.144236 0.0911554 0.24654
      vertex -0.142761 0.1 0.24654
      vertex -0.129872 0.0862242 0.257574
    endloop
  endfacet
  facet normal 0.308617 -0.0514677 -0.949793
    outer loop
      vertex -0.160614 0.1 0.240739
      vertex -0.142761 0.1 0.24654
      vertex -0.144236 0.0911554 0.24654
    endloop
  endfacet
  facet normal 0.550516 0.598008 -0.582511
    outer loop
      vertex -0.127812 0.132836 0.272761
      vertex -0.13652 0.126059 0.257574
      vertex -0.146795 0.135518 0.257574
    endloop
  endfacet
  facet normal 0.714832 0.386893 -0.58252
    outer loop
      vertex -0.129872 0.113776 0.257574
      vertex -0.13652 0.126059 0.257574
      vertex -0.127812 0.132836 0.272761
    endloop
  endfacet
  facet normal -0.246916 -0.19216 -0.949793
    outer loop
      vertex -0.193956 0.0870355 0.24654
      vertex -0.176357 0.0930944 0.240739
      vertex -0.188449 0.0799593 0.24654
    endloop
  endfacet
  facet normal -0.324369 -0.496501 -0.805153
    outer loop
      vertex -0.188449 0.0799593 0.24654
      vertex -0.180942 0.0750549 0.24654
      vertex -0.198735 0.0687859 0.257574
    endloop
  endfacet
  facet normal -0.593063 0 -0.805156
    outer loop
      vertex -0.211848 0.106983 0.257574
      vertex -0.196868 0.104483 0.24654
      vertex -0.196868 0.0955165 0.24654
    endloop
  endfacet
  facet normal 0 0 -1
    outer loop
      vertex -0.17377 0.108596 0.240739
      vertex -0.167696 0.109099 0.240739
      vertex -0.161123 0.103048 0.240739
    endloop
  endfacet
  facet normal 0 0 -1
    outer loop
      vertex -0.162593 0.094235 0.240739
      vertex -0.164866 0.0921423 0.240739
      vertex -0.167696 0.0909011 0.240739
    endloop
  endfacet
  facet normal 0.211922 -0.230181 -0.949793
    outer loop
      vertex -0.155101 0.0771961 0.24654
      vertex -0.164866 0.0921423 0.240739
      vertex -0.162593 0.094235 0.240739
    endloop
  endfacet
  facet normal -0.751493 -0.584894 -0.305215
    outer loop
      vertex -0.222119 0.0717947 0.290614
      vertex -0.217017 0.0745557 0.272761
      vertex -0.206208 0.0606679 0.272761
    endloop
  endfacet
  facet normal -0.90069 -0.309195 -0.305215
    outer loop
      vertex -0.222731 0.0912007 0.272761
      vertex -0.217017 0.0745557 0.272761
      vertex -0.222119 0.0717947 0.290614
    endloop
  endfacet
  facet normal 0.0825788 -0.996585 0
    outer loop
      vertex -0.174894 0.0409411 0.309386
      vertex -0.174894 0.0409411 0.290614
      vertex -0.155452 0.0425521 0.290614
    endloop
  endfacet
  facet normal -0.24549 -0.969399 0
    outer loop
      vertex -0.193805 0.0457301 0.290614
      vertex -0.174894 0.0409411 0.290614
      vertex -0.174894 0.0409411 0.309386
    endloop
  endfacet
  facet normal -0.768801 0.26393 0.582482
    outer loop
      vertex -0.222731 0.108799 0.327239
      vertex -0.211848 0.106983 0.342426
      vertex -0.207313 0.120193 0.342426
    endloop
  endfacet
  facet normal -0.812843 0 0.582483
    outer loop
      vertex -0.211848 0.0930168 0.342426
      vertex -0.211848 0.106983 0.342426
      vertex -0.222731 0.108799 0.327239
    endloop
  endfacet
  facet normal -0.145584 -0.574915 -0.805157
    outer loop
      vertex -0.173504 0.0577185 0.257574
      vertex -0.180942 0.0750549 0.24654
      vertex -0.172249 0.0728536 0.24654
    endloop
  endfacet
  facet normal -0.145598 -0.574918 -0.805152
    outer loop
      vertex -0.187042 0.061147 0.257574
      vertex -0.180942 0.0750549 0.24654
      vertex -0.173504 0.0577185 0.257574
    endloop
  endfacet
  facet normal -0.468024 -0.364236 -0.805162
    outer loop
      vertex -0.188449 0.0799593 0.24654
      vertex -0.207313 0.0798073 0.257574
      vertex -0.193956 0.0870355 0.24654
    endloop
  endfacet
  facet normal -0.468018 -0.364261 -0.805154
    outer loop
      vertex -0.198735 0.0687859 0.257574
      vertex -0.207313 0.0798073 0.257574
      vertex -0.188449 0.0799593 0.24654
    endloop
  endfacet
  facet normal -0.171117 0.261941 -0.949792
    outer loop
      vertex -0.17377 0.108596 0.240739
      vertex -0.176357 0.106906 0.240739
      vertex -0.188449 0.120041 0.24654
    endloop
  endfacet
  facet normal -0.171116 0.261943 -0.949792
    outer loop
      vertex -0.180942 0.124945 0.24654
      vertex -0.17377 0.108596 0.240739
      vertex -0.188449 0.120041 0.24654
    endloop
  endfacet
  facet normal -0.246919 0.192149 -0.949795
    outer loop
      vertex -0.178255 0.104467 0.240739
      vertex -0.193956 0.112965 0.24654
      vertex -0.176357 0.106906 0.240739
    endloop
  endfacet
  facet normal -0.295929 0.10158 -0.949793
    outer loop
      vertex -0.178255 0.104467 0.240739
      vertex -0.179258 0.101545 0.240739
      vertex -0.196868 0.104483 0.24654
    endloop
  endfacet
  facet normal -0.641445 -0.499243 -0.582499
    outer loop
      vertex -0.217017 0.0745557 0.272761
      vertex -0.207313 0.0798073 0.257574
      vertex -0.206208 0.0606679 0.272761
    endloop
  endfacet
  facet normal -0.768795 -0.263917 -0.582496
    outer loop
      vertex -0.222731 0.0912007 0.272761
      vertex -0.207313 0.0798073 0.257574
      vertex -0.217017 0.0745557 0.272761
    endloop
  endfacet
  facet normal 0 0 -1
    outer loop
      vertex -0.17377 0.0914045 0.240739
      vertex -0.176357 0.0930944 0.240739
      vertex -0.178255 0.0955327 0.240739
    endloop
  endfacet
  facet normal -0.295927 -0.101608 -0.949791
    outer loop
      vertex -0.196868 0.0955165 0.24654
      vertex -0.178255 0.0955327 0.240739
      vertex -0.193956 0.0870355 0.24654
    endloop
  endfacet
  facet normal 0.125678 0.286526 -0.949794
    outer loop
      vertex -0.155101 0.122804 0.24654
      vertex -0.167696 0.109099 0.240739
      vertex -0.163313 0.126406 0.24654
    endloop
  endfacet
  facet normal 0.275167 0.148876 -0.949799
    outer loop
      vertex -0.161123 0.103048 0.240739
      vertex -0.162593 0.105765 0.240739
      vertex -0.144236 0.108845 0.24654
    endloop
  endfacet
  facet normal 0 0 -1
    outer loop
      vertex -0.178255 0.104467 0.240739
      vertex -0.176357 0.106906 0.240739
      vertex -0.17377 0.108596 0.240739
    endloop
  endfacet
  facet normal -0.295928 0.101597 -0.949792
    outer loop
      vertex -0.196868 0.104483 0.24654
      vertex -0.193956 0.112965 0.24654
      vertex -0.178255 0.104467 0.240739
    endloop
  endfacet
  facet normal -0.560921 0.192573 -0.80516
    outer loop
      vertex -0.207313 0.120193 0.257574
      vertex -0.193956 0.112965 0.24654
      vertex -0.196868 0.104483 0.24654
    endloop
  endfacet
  facet normal -0.468022 0.364245 -0.805159
    outer loop
      vertex -0.188449 0.120041 0.24654
      vertex -0.193956 0.112965 0.24654
      vertex -0.207313 0.120193 0.257574
    endloop
  endfacet
  facet normal 0 0 -1
    outer loop
      vertex -0.178255 0.0955327 0.240739
      vertex -0.179258 0.101545 0.240739
      vertex -0.178255 0.104467 0.240739
    endloop
  endfacet
  facet normal -0.312876 -0 -0.949794
    outer loop
      vertex -0.179258 0.101545 0.240739
      vertex -0.179258 0.0984551 0.240739
      vertex -0.196868 0.0955165 0.24654
    endloop
  endfacet
  facet normal 0 0 -1
    outer loop
      vertex -0.167696 0.0909011 0.240739
      vertex -0.17377 0.0914045 0.240739
      vertex -0.178255 0.0955327 0.240739
    endloop
  endfacet
  facet normal -0.0768127 -0.303301 -0.949794
    outer loop
      vertex -0.17377 0.0914045 0.240739
      vertex -0.170775 0.090646 0.240739
      vertex -0.180942 0.0750549 0.24654
    endloop
  endfacet
  facet normal 0.211942 0.23017 -0.949791
    outer loop
      vertex -0.162593 0.105765 0.240739
      vertex -0.164866 0.107858 0.240739
      vertex -0.155101 0.122804 0.24654
    endloop
  endfacet
  facet normal 0.211904 0.230188 -0.949795
    outer loop
      vertex -0.148504 0.116731 0.24654
      vertex -0.162593 0.105765 0.240739
      vertex -0.155101 0.122804 0.24654
    endloop
  endfacet
  facet normal 0 0 -1
    outer loop
      vertex -0.17377 0.108596 0.240739
      vertex -0.170775 0.109354 0.240739
      vertex -0.167696 0.109099 0.240739
    endloop
  endfacet
  facet normal -0.0767657 0.303316 -0.949793
    outer loop
      vertex -0.172249 0.127146 0.24654
      vertex -0.170775 0.109354 0.240739
      vertex -0.17377 0.108596 0.240739
    endloop
  endfacet
  facet normal 0 0 -1
    outer loop
      vertex -0.178255 0.0955327 0.240739
      vertex -0.179258 0.0984551 0.240739
      vertex -0.179258 0.101545 0.240739
    endloop
  endfacet
  facet normal -0.295928 -0.101566 -0.949795
    outer loop
      vertex -0.196868 0.0955165 0.24654
      vertex -0.179258 0.0984551 0.240739
      vertex -0.178255 0.0955327 0.240739
    endloop
  endfacet
  facet normal -0 0 -1
    outer loop
      vertex -0.167696 0.0909011 0.240739
      vertex -0.170775 0.090646 0.240739
      vertex -0.17377 0.0914045 0.240739
    endloop
  endfacet
  facet normal 0.0258339 -0.311809 -0.949794
    outer loop
      vertex -0.172249 0.0728536 0.24654
      vertex -0.170775 0.090646 0.240739
      vertex -0.167696 0.0909011 0.240739
    endloop
  endfacet
  facet normal -0.171106 -0.261939 -0.949795
    outer loop
      vertex -0.180942 0.0750549 0.24654
      vertex -0.176357 0.0930944 0.240739
      vertex -0.17377 0.0914045 0.240739
    endloop
  endfacet
  facet normal -0.171124 -0.261933 -0.949793
    outer loop
      vertex -0.188449 0.0799593 0.24654
      vertex -0.176357 0.0930944 0.240739
      vertex -0.180942 0.0750549 0.24654
    endloop
  endfacet
  facet normal 0 0 -1
    outer loop
      vertex -0.167696 0.109099 0.240739
      vertex -0.164866 0.107858 0.240739
      vertex -0.162593 0.105765 0.240739
    endloop
  endfacet
  facet normal 0.125655 0.286546 -0.949791
    outer loop
      vertex -0.155101 0.122804 0.24654
      vertex -0.164866 0.107858 0.240739
      vertex -0.167696 0.109099 0.240739
    endloop
  endfacet
endsolid OpenSCAD_Model
