solid OpenSCAD_Model
  facet normal -0.933012 -0.250003 0.258819
    outer loop
      vertex 0.158622 0.203554 0.362811
      vertex 0.15 0.15 0.28
      vertex 0.171593 0.137029 0.345311
    endloop
  endfacet
  facet normal 0.933012 0.250003 -0.258819
    outer loop
      vertex 0.236904 0.154529 0.327194
      vertex 0.20234 0.234025 0.279383
      vertex 0.223933 0.221054 0.344694
    endloop
  endfacet
  facet normal 0.933012 0.250003 -0.258819
    outer loop
      vertex 0.20234 0.234025 0.279383
      vertex 0.236904 0.154529 0.327194
      vertex 0.215311 0.1675 0.261883
    endloop
  endfacet
  facet normal 0.308464 -0.185294 0.933015
    outer loop
      vertex 0.158622 0.203554 0.362811
      vertex 0.236904 0.154529 0.327194
      vertex 0.223933 0.221054 0.344694
    endloop
  endfacet
  facet normal 0.308464 -0.185294 0.933015
    outer loop
      vertex 0.236904 0.154529 0.327194
      vertex 0.158622 0.203554 0.362811
      vertex 0.171593 0.137029 0.345311
    endloop
  endfacet
  facet normal -0.308464 0.185294 -0.933015
    outer loop
      vertex 0.215311 0.1675 0.261883
      vertex 0.137029 0.216525 0.2975
      vertex 0.20234 0.234025 0.279383
    endloop
  endfacet
  facet normal -0.933012 -0.250003 0.258819
    outer loop
      vertex 0.158622 0.203554 0.362811
      vertex 0.137029 0.216525 0.2975
      vertex 0.15 0.15 0.28
    endloop
  endfacet
  facet normal -0.308464 0.185294 -0.933015
    outer loop
      vertex 0.15 0.15 0.28
      vertex 0.137029 0.216525 0.2975
      vertex 0.215311 0.1675 0.261883
    endloop
  endfacet
  facet normal 0.185295 -0.950349 -0.250005
    outer loop
      vertex 0.215311 0.1675 0.261883
      vertex 0.171593 0.137029 0.345311
      vertex 0.15 0.15 0.28
    endloop
  endfacet
  facet normal 0.185295 -0.950349 -0.250005
    outer loop
      vertex 0.171593 0.137029 0.345311
      vertex 0.215311 0.1675 0.261883
      vertex 0.236904 0.154529 0.327194
    endloop
  endfacet
  facet normal -0.185295 0.950349 0.250005
    outer loop
      vertex 0.20234 0.234025 0.279383
      vertex 0.137029 0.216525 0.2975
      vertex 0.158622 0.203554 0.362811
    endloop
  endfacet
  facet normal -0.185295 0.950349 0.250005
    outer loop
      vertex 0.20234 0.234025 0.279383
      vertex 0.158622 0.203554 0.362811
      vertex 0.223933 0.221054 0.344694
    endloop
  endfacet
  facet normal 0.314706 -0.915674 0.250001
    outer loop
      vertex 0.127525 0.0395293 0.327194
      vertex 0.0622146 0.0220293 0.345311
      vertex 0.115311 0.0175 0.261883
    endloop
  endfacet
  facet normal 0.174492 0.314701 0.933014
    outer loop
      vertex 0.105496 0.103627 0.309694
      vertex 0.0622146 0.0220293 0.345311
      vertex 0.127525 0.0395293 0.327194
    endloop
  endfacet
  facet normal 0.174489 0.314703 0.933014
    outer loop
      vertex 0.0622146 0.0220293 0.345311
      vertex 0.105496 0.103627 0.309694
      vertex 0.0401853 0.0861266 0.327811
    endloop
  endfacet
  facet normal 0.933015 0.249995 -0.258816
    outer loop
      vertex 0.127525 0.0395293 0.327194
      vertex 0.0932816 0.0815973 0.244383
      vertex 0.105496 0.103627 0.309694
    endloop
  endfacet
  facet normal 0.933014 0.250003 -0.258811
    outer loop
      vertex 0.115311 0.0175 0.261883
      vertex 0.0932816 0.0815973 0.244383
      vertex 0.127525 0.0395293 0.327194
    endloop
  endfacet
  facet normal -0.314705 0.915674 -0.250005
    outer loop
      vertex 0.0932816 0.0815973 0.244383
      vertex 0.0279707 0.0640973 0.2625
      vertex 0.105496 0.103627 0.309694
    endloop
  endfacet
  facet normal -0.933013 -0.25 0.258819
    outer loop
      vertex 0.0622146 0.0220293 0.345311
      vertex 0.0279707 0.0640973 0.2625
      vertex 0.05 0 0.28
    endloop
  endfacet
  facet normal -0.17449 -0.314703 -0.933014
    outer loop
      vertex 0.05 0 0.28
      vertex 0.0279707 0.0640973 0.2625
      vertex 0.0932816 0.0815973 0.244383
    endloop
  endfacet
  facet normal -0.314709 0.915674 -0.249998
    outer loop
      vertex 0.105496 0.103627 0.309694
      vertex 0.0279707 0.0640973 0.2625
      vertex 0.0401853 0.0861266 0.327811
    endloop
  endfacet
  facet normal -0.933013 -0.25 0.258819
    outer loop
      vertex 0.0401853 0.0861266 0.327811
      vertex 0.0279707 0.0640973 0.2625
      vertex 0.0622146 0.0220293 0.345311
    endloop
  endfacet
  facet normal -0.17449 -0.314704 -0.933014
    outer loop
      vertex 0.115311 0.0175 0.261883
      vertex 0.05 0 0.28
      vertex 0.0932816 0.0815973 0.244383
    endloop
  endfacet
  facet normal 0.314703 -0.915676 0.25
    outer loop
      vertex 0.0622146 0.0220293 0.345311
      vertex 0.05 0 0.28
      vertex 0.115311 0.0175 0.261883
    endloop
  endfacet
  facet normal 0.0143231 0.27179 0.96225
    outer loop
      vertex 0.228126 -0.20763 0.350008
      vertex 0.129403 -0.154083 0.336353
      vertex 0.151146 -0.228257 0.35698
    endloop
  endfacet
  facet normal -0.271791 0.927174 -0.257834
    outer loop
      vertex 0.205237 -0.155199 0.252401
      vertex 0.128257 -0.175826 0.259373
      vertex 0.129403 -0.154083 0.336353
    endloop
  endfacet
  facet normal 0.962251 0.257834 -0.0871502
    outer loop
      vertex 0.22698 -0.229373 0.273028
      vertex 0.205237 -0.155199 0.252401
      vertex 0.228126 -0.20763 0.350008
    endloop
  endfacet
  facet normal 0.0143231 0.27179 0.96225
    outer loop
      vertex 0.206383 -0.133456 0.329381
      vertex 0.129403 -0.154083 0.336353
      vertex 0.228126 -0.20763 0.350008
    endloop
  endfacet
  facet normal -0.0143231 -0.27179 -0.96225
    outer loop
      vertex 0.22698 -0.229373 0.273028
      vertex 0.15 -0.25 0.28
      vertex 0.205237 -0.155199 0.252401
    endloop
  endfacet
  facet normal -0.962251 -0.257834 0.0871502
    outer loop
      vertex 0.129403 -0.154083 0.336353
      vertex 0.128257 -0.175826 0.259373
      vertex 0.151146 -0.228257 0.35698
    endloop
  endfacet
  facet normal 0.271791 -0.927174 0.257834
    outer loop
      vertex 0.228126 -0.20763 0.350008
      vertex 0.15 -0.25 0.28
      vertex 0.22698 -0.229373 0.273028
    endloop
  endfacet
  facet normal 0.271791 -0.927174 0.257834
    outer loop
      vertex 0.151146 -0.228257 0.35698
      vertex 0.15 -0.25 0.28
      vertex 0.228126 -0.20763 0.350008
    endloop
  endfacet
  facet normal -0.271791 0.927174 -0.257834
    outer loop
      vertex 0.205237 -0.155199 0.252401
      vertex 0.129403 -0.154083 0.336353
      vertex 0.206383 -0.133456 0.329381
    endloop
  endfacet
  facet normal 0.962251 0.257834 -0.0871502
    outer loop
      vertex 0.228126 -0.20763 0.350008
      vertex 0.205237 -0.155199 0.252401
      vertex 0.206383 -0.133456 0.329381
    endloop
  endfacet
  facet normal -0.0143231 -0.27179 -0.96225
    outer loop
      vertex 0.15 -0.25 0.28
      vertex 0.128257 -0.175826 0.259373
      vertex 0.205237 -0.155199 0.252401
    endloop
  endfacet
  facet normal -0.962251 -0.257834 0.0871502
    outer loop
      vertex 0.151146 -0.228257 0.35698
      vertex 0.128257 -0.175826 0.259373
      vertex 0.15 -0.25 0.28
    endloop
  endfacet
  facet normal -0.0215848 0.121108 0.992405
    outer loop
      vertex -0.131082 0.0131781 0.323519
      vertex -0.228507 -0.00438236 0.323543
      vertex -0.17108 -0.0439444 0.32962
    endloop
  endfacet
  facet normal 0.820389 -0.565175 0.0868298
    outer loop
      vertex -0.130002 0.00712244 0.273899
      vertex -0.17108 -0.0439444 0.32962
      vertex -0.17 -0.05 0.28
    endloop
  endfacet
  facet normal 0.0215962 -0.121116 -0.992403
    outer loop
      vertex -0.17 -0.05 0.28
      vertex -0.18743 0.0466844 0.267821
      vertex -0.130002 0.00712244 0.273899
    endloop
  endfacet
  facet normal -0.0215847 0.121108 0.992405
    outer loop
      vertex -0.18851 0.0527401 0.317442
      vertex -0.228507 -0.00438236 0.323543
      vertex -0.131082 0.0131781 0.323519
    endloop
  endfacet
  facet normal 0.57139 0.816038 -0.0871533
    outer loop
      vertex -0.130002 0.00712244 0.273899
      vertex -0.18743 0.0466844 0.267821
      vertex -0.131082 0.0131781 0.323519
    endloop
  endfacet
  facet normal -0.571396 -0.816034 0.0871517
    outer loop
      vertex -0.17108 -0.0439444 0.32962
      vertex -0.228507 -0.00438236 0.323543
      vertex -0.17 -0.05 0.28
    endloop
  endfacet
  facet normal 0.0215966 -0.121116 -0.992403
    outer loop
      vertex -0.17 -0.05 0.28
      vertex -0.227427 -0.010438 0.273922
      vertex -0.18743 0.0466844 0.267821
    endloop
  endfacet
  facet normal 0.820389 -0.565174 0.0868304
    outer loop
      vertex -0.131082 0.0131781 0.323519
      vertex -0.17108 -0.0439444 0.32962
      vertex -0.130002 0.00712244 0.273899
    endloop
  endfacet
  facet normal -0.571397 -0.816033 0.0871505
    outer loop
      vertex -0.17 -0.05 0.28
      vertex -0.228507 -0.00438236 0.323543
      vertex -0.227427 -0.010438 0.273922
    endloop
  endfacet
  facet normal -0.820396 0.565165 -0.0868281
    outer loop
      vertex -0.18743 0.0466844 0.267821
      vertex -0.228507 -0.00438236 0.323543
      vertex -0.18851 0.0527401 0.317442
    endloop
  endfacet
  facet normal -0.820395 0.565166 -0.0868275
    outer loop
      vertex -0.228507 -0.00438236 0.323543
      vertex -0.18743 0.0466844 0.267821
      vertex -0.227427 -0.010438 0.273922
    endloop
  endfacet
  facet normal 0.571389 0.816039 -0.0871523
    outer loop
      vertex -0.18743 0.0466844 0.267821
      vertex -0.18851 0.0527401 0.317442
      vertex -0.131082 0.0131781 0.323519
    endloop
  endfacet
  facet normal 0.234562 0.422616 0.875429
    outer loop
      vertex -0.0213382 0.151131 0.310478
      vertex -0.115928 0.214572 0.305196
      vertex -0.108272 0.151131 0.333771
    endloop
  endfacet
  facet normal -0.10938 0.906314 -0.408204
    outer loop
      vertex -0.0289949 0.214572 0.281902
      vertex -0.127657 0.193442 0.261425
      vertex -0.115928 0.214572 0.305196
    endloop
  endfacet
  facet normal -0.109379 0.906314 -0.408205
    outer loop
      vertex -0.127657 0.193442 0.261425
      vertex -0.0289949 0.214572 0.281902
      vertex -0.0407234 0.193442 0.238131
    endloop
  endfacet
  facet normal 0.234572 0.42263 0.87542
    outer loop
      vertex -0.0289949 0.214572 0.281902
      vertex -0.115928 0.214572 0.305196
      vertex -0.0213382 0.151131 0.310478
    endloop
  endfacet
  facet normal -0.965924 1.29714e-05 0.258825
    outer loop
      vertex -0.127657 0.193442 0.261425
      vertex -0.108272 0.151131 0.333771
      vertex -0.115928 0.214572 0.305196
    endloop
  endfacet
  facet normal -0.965927 -7.69916e-06 0.258814
    outer loop
      vertex -0.108272 0.151131 0.333771
      vertex -0.127657 0.193442 0.261425
      vertex -0.12 0.13 0.29
    endloop
  endfacet
  facet normal 0.965926 -3.48585e-06 -0.258819
    outer loop
      vertex -0.0213382 0.151131 0.310478
      vertex -0.0407234 0.193442 0.238131
      vertex -0.0289949 0.214572 0.281902
    endloop
  endfacet
  facet normal 0.965927 2.05279e-06 -0.258816
    outer loop
      vertex -0.0407234 0.193442 0.238131
      vertex -0.0213382 0.151131 0.310478
      vertex -0.0330667 0.13 0.266706
    endloop
  endfacet
  facet normal -0.234572 -0.422614 -0.875428
    outer loop
      vertex -0.12 0.13 0.29
      vertex -0.127657 0.193442 0.261425
      vertex -0.0407234 0.193442 0.238131
    endloop
  endfacet
  facet normal -0.234573 -0.422613 -0.875428
    outer loop
      vertex -0.0330667 0.13 0.266706
      vertex -0.12 0.13 0.29
      vertex -0.0407234 0.193442 0.238131
    endloop
  endfacet
  facet normal 0.109379 -0.906306 0.408223
    outer loop
      vertex -0.12 0.13 0.29
      vertex -0.0213382 0.151131 0.310478
      vertex -0.108272 0.151131 0.333771
    endloop
  endfacet
  facet normal 0.109382 -0.90631 0.408214
    outer loop
      vertex -0.0213382 0.151131 0.310478
      vertex -0.12 0.13 0.29
      vertex -0.0330667 0.13 0.266706
    endloop
  endfacet
  facet normal 0.0225574 0.965926 0.257833
    outer loop
      vertex 0.0112365 -0.132385 0.290204
      vertex -0.078421 -0.132385 0.298048
      vertex -0.0742117 -0.145326 0.346161
    endloop
  endfacet
  facet normal -0.0225578 -0.965925 -0.257838
    outer loop
      vertex 0.0138668 -0.212941 0.320268
      vertex -0.08 -0.2 0.28
      vertex 0.00965752 -0.2 0.272156
    endloop
  endfacet
  facet normal 0.0841857 -0.258826 0.962248
    outer loop
      vertex -0.0742117 -0.145326 0.346161
      vertex 0.0138668 -0.212941 0.320268
      vertex 0.0154458 -0.145326 0.338317
    endloop
  endfacet
  facet normal 0.0841966 -0.258813 0.962251
    outer loop
      vertex 0.0138668 -0.212941 0.320268
      vertex -0.0742117 -0.145326 0.346161
      vertex -0.0757907 -0.212941 0.328113
    endloop
  endfacet
  facet normal -0.084186 0.258813 -0.962252
    outer loop
      vertex 0.0112365 -0.132385 0.290204
      vertex -0.08 -0.2 0.28
      vertex -0.078421 -0.132385 0.298048
    endloop
  endfacet
  facet normal -0.0225602 -0.965926 -0.257832
    outer loop
      vertex -0.0757907 -0.212941 0.328113
      vertex -0.08 -0.2 0.28
      vertex 0.0138668 -0.212941 0.320268
    endloop
  endfacet
  facet normal 0.0225574 0.965926 0.257833
    outer loop
      vertex 0.0112365 -0.132385 0.290204
      vertex -0.0742117 -0.145326 0.346161
      vertex 0.0154458 -0.145326 0.338317
    endloop
  endfacet
  facet normal 0.996195 9.22472e-07 -0.0871546
    outer loop
      vertex 0.0138668 -0.212941 0.320268
      vertex 0.0112365 -0.132385 0.290204
      vertex 0.0154458 -0.145326 0.338317
    endloop
  endfacet
  facet normal -0.996195 2.80168e-07 0.087155
    outer loop
      vertex -0.078421 -0.132385 0.298048
      vertex -0.08 -0.2 0.28
      vertex -0.0742117 -0.145326 0.346161
    endloop
  endfacet
  facet normal -0.996195 2.80168e-07 0.087155
    outer loop
      vertex -0.0742117 -0.145326 0.346161
      vertex -0.08 -0.2 0.28
      vertex -0.0757907 -0.212941 0.328113
    endloop
  endfacet
  facet normal -0.0841859 0.258813 -0.962252
    outer loop
      vertex 0.00965752 -0.2 0.272156
      vertex -0.08 -0.2 0.28
      vertex 0.0112365 -0.132385 0.290204
    endloop
  endfacet
  facet normal 0.996195 3.42769e-07 -0.0871562
    outer loop
      vertex 0.0138668 -0.212941 0.320268
      vertex 0.00965752 -0.2 0.272156
      vertex 0.0112365 -0.132385 0.290204
    endloop
  endfacet
  facet normal -0.939695 4.69048e-06 0.342014
    outer loop
      vertex -0.242918 -0.102726 0.299457
      vertex -0.25 -0.18 0.28
      vertex -0.233482 -0.192941 0.325384
    endloop
  endfacet
  facet normal -0.0885222 -0.965926 -0.243208
    outer loop
      vertex -0.158306 -0.192941 0.298022
      vertex -0.25 -0.18 0.28
      vertex -0.174825 -0.18 0.252638
    endloop
  endfacet
  facet normal 0.330361 -0.258818 0.907675
    outer loop
      vertex -0.2264 -0.115667 0.34484
      vertex -0.158306 -0.192941 0.298022
      vertex -0.151225 -0.115667 0.317479
    endloop
  endfacet
  facet normal 0.330369 -0.258811 0.907675
    outer loop
      vertex -0.158306 -0.192941 0.298022
      vertex -0.2264 -0.115667 0.34484
      vertex -0.233482 -0.192941 0.325384
    endloop
  endfacet
  facet normal -0.330372 0.258822 -0.90767
    outer loop
      vertex -0.167743 -0.102726 0.272095
      vertex -0.25 -0.18 0.28
      vertex -0.242918 -0.102726 0.299457
    endloop
  endfacet
  facet normal -0.0885218 -0.965926 -0.24321
    outer loop
      vertex -0.233482 -0.192941 0.325384
      vertex -0.25 -0.18 0.28
      vertex -0.158306 -0.192941 0.298022
    endloop
  endfacet
  facet normal 0.08852 0.965926 0.243211
    outer loop
      vertex -0.167743 -0.102726 0.272095
      vertex -0.2264 -0.115667 0.34484
      vertex -0.151225 -0.115667 0.317479
    endloop
  endfacet
  facet normal -0.330372 0.258822 -0.90767
    outer loop
      vertex -0.174825 -0.18 0.252638
      vertex -0.25 -0.18 0.28
      vertex -0.167743 -0.102726 0.272095
    endloop
  endfacet
  facet normal 0.0885244 0.965925 0.243214
    outer loop
      vertex -0.167743 -0.102726 0.272095
      vertex -0.242918 -0.102726 0.299457
      vertex -0.2264 -0.115667 0.34484
    endloop
  endfacet
  facet normal -0.939692 7.04962e-06 0.342021
    outer loop
      vertex -0.2264 -0.115667 0.34484
      vertex -0.242918 -0.102726 0.299457
      vertex -0.233482 -0.192941 0.325384
    endloop
  endfacet
  facet normal 0.939695 -4.69048e-06 -0.342014
    outer loop
      vertex -0.151225 -0.115667 0.317479
      vertex -0.174825 -0.18 0.252638
      vertex -0.167743 -0.102726 0.272095
    endloop
  endfacet
  facet normal 0.93969 1.15196e-05 -0.342028
    outer loop
      vertex -0.158306 -0.192941 0.298022
      vertex -0.174825 -0.18 0.252638
      vertex -0.151225 -0.115667 0.317479
    endloop
  endfacet
  facet normal 0.252377 -0.101871 0.962252
    outer loop
      vertex 0.0574429 -0.271675 0.322012
      vertex -0.0381619 -0.280422 0.346161
      vertex 0.012619 -0.325094 0.328113
    endloop
  endfacet
  facet normal -0.640347 -0.763125 0.0871527
    outer loop
      vertex 0.012619 -0.325094 0.328113
      vertex -0.0381619 -0.280422 0.346161
      vertex 0 -0.32 0.28
    endloop
  endfacet
  facet normal 0.725442 -0.638166 -0.257834
    outer loop
      vertex 0.0574429 -0.271675 0.322012
      vertex 0 -0.32 0.28
      vertex 0.0448239 -0.266581 0.273899
    endloop
  endfacet
  facet normal 0.252377 -0.101871 0.962252
    outer loop
      vertex 0.00666197 -0.227003 0.34006
      vertex -0.0381619 -0.280422 0.346161
      vertex 0.0574429 -0.271675 0.322012
    endloop
  endfacet
  facet normal -0.725442 0.638165 0.257835
    outer loop
      vertex 0.00666197 -0.227003 0.34006
      vertex -0.050781 -0.275328 0.298048
      vertex -0.0381619 -0.280422 0.346161
    endloop
  endfacet
  facet normal -0.640346 -0.763126 0.0871537
    outer loop
      vertex -0.0381619 -0.280422 0.346161
      vertex -0.050781 -0.275328 0.298048
      vertex 0 -0.32 0.28
    endloop
  endfacet
  facet normal -0.252377 0.101871 -0.962252
    outer loop
      vertex 0 -0.32 0.28
      vertex -0.050781 -0.275328 0.298048
      vertex 0.0448239 -0.266581 0.273899
    endloop
  endfacet
  facet normal 0.725442 -0.638166 -0.257834
    outer loop
      vertex 0.012619 -0.325094 0.328113
      vertex 0 -0.32 0.28
      vertex 0.0574429 -0.271675 0.322012
    endloop
  endfacet
  facet normal -0.725442 0.638166 0.257834
    outer loop
      vertex -0.00595705 -0.221909 0.291947
      vertex -0.050781 -0.275328 0.298048
      vertex 0.00666197 -0.227003 0.34006
    endloop
  endfacet
  facet normal 0.640347 0.763125 -0.0871529
    outer loop
      vertex 0.0574429 -0.271675 0.322012
      vertex -0.00595705 -0.221909 0.291947
      vertex 0.00666197 -0.227003 0.34006
    endloop
  endfacet
  facet normal -0.252377 0.101871 -0.962252
    outer loop
      vertex 0.0448239 -0.266581 0.273899
      vertex -0.050781 -0.275328 0.298048
      vertex -0.00595705 -0.221909 0.291947
    endloop
  endfacet
  facet normal 0.640347 0.763126 -0.0871526
    outer loop
      vertex 0.0448239 -0.266581 0.273899
      vertex -0.00595705 -0.221909 0.291947
      vertex 0.0574429 -0.271675 0.322012
    endloop
  endfacet
endsolid OpenSCAD_Model
