solid OpenSCAD_Model
  facet normal 0.882958 0.365736 -0.294317
    outer loop
      vertex 0.2 0 0.15
      vertex 0.106066 0.106066 0
      vertex 0.141421 0.141421 0.15
    endloop
  endfacet
  facet normal 0.882958 0.365733 -0.294319
    outer loop
      vertex 0.106066 0.106066 0
      vertex 0.2 0 0.15
      vertex 0.15 0 0
    endloop
  endfacet
  facet normal -0.882958 -0.365733 -0.294319
    outer loop
      vertex -0.106066 -0.106066 0
      vertex -0.2 0 0.15
      vertex -0.15 0 0
    endloop
  endfacet
  facet normal -0.882958 -0.365736 -0.294317
    outer loop
      vertex -0.2 0 0.15
      vertex -0.106066 -0.106066 0
      vertex -0.141421 -0.141421 0.15
    endloop
  endfacet
  facet normal 0.882958 -0.365733 -0.294319
    outer loop
      vertex 0.2 0 0.15
      vertex 0.106066 -0.106066 0
      vertex 0.15 0 0
    endloop
  endfacet
  facet normal 0.882958 -0.365736 -0.294317
    outer loop
      vertex 0.106066 -0.106066 0
      vertex 0.2 0 0.15
      vertex 0.141421 -0.141421 0.15
    endloop
  endfacet
  facet normal 0 0 1
    outer loop
      vertex 0.141421 0.141421 0.15
      vertex 0.196667 0 0.15
      vertex 0.2 0 0.15
    endloop
  endfacet
  facet normal 0 0 1
    outer loop
      vertex 0.141421 0.141421 0.15
      vertex 0.139064 0.139064 0.15
      vertex 0.196667 0 0.15
    endloop
  endfacet
  facet normal 0 0 1
    outer loop
      vertex 0 0.2 0.15
      vertex 0.139064 0.139064 0.15
      vertex 0.141421 0.141421 0.15
    endloop
  endfacet
  facet normal 0 0 1
    outer loop
      vertex 0 0.2 0.15
      vertex 0 0.196667 0.15
      vertex 0.139064 0.139064 0.15
    endloop
  endfacet
  facet normal 0 0 1
    outer loop
      vertex 0 0.2 0.15
      vertex -0.139064 0.139064 0.15
      vertex 0 0.196667 0.15
    endloop
  endfacet
  facet normal -0 0 1
    outer loop
      vertex -0.141421 0.141421 0.15
      vertex -0.139064 0.139064 0.15
      vertex 0 0.2 0.15
    endloop
  endfacet
  facet normal 0 0 1
    outer loop
      vertex -0.141421 0.141421 0.15
      vertex -0.196667 0 0.15
      vertex -0.139064 0.139064 0.15
    endloop
  endfacet
  facet normal 0 -0 1
    outer loop
      vertex -0.196667 0 0.15
      vertex -0.141421 0.141421 0.15
      vertex -0.2 0 0.15
    endloop
  endfacet
  facet normal -0 0 1
    outer loop
      vertex 0.196667 0 0.15
      vertex 0.141421 -0.141421 0.15
      vertex 0.2 0 0.15
    endloop
  endfacet
  facet normal -0 0 1
    outer loop
      vertex 0.139064 -0.139064 0.15
      vertex 0.141421 -0.141421 0.15
      vertex 0.196667 0 0.15
    endloop
  endfacet
  facet normal 0 0 1
    outer loop
      vertex 0 -0.196667 0.15
      vertex 0.141421 -0.141421 0.15
      vertex 0.139064 -0.139064 0.15
    endloop
  endfacet
  facet normal -0 0 1
    outer loop
      vertex 0 -0.196667 0.15
      vertex 0 -0.2 0.15
      vertex 0.141421 -0.141421 0.15
    endloop
  endfacet
  facet normal 0 0 1
    outer loop
      vertex -0.139064 -0.139064 0.15
      vertex 0 -0.2 0.15
      vertex 0 -0.196667 0.15
    endloop
  endfacet
  facet normal 0 0 1
    outer loop
      vertex -0.139064 -0.139064 0.15
      vertex -0.141421 -0.141421 0.15
      vertex 0 -0.2 0.15
    endloop
  endfacet
  facet normal 0 0 1
    outer loop
      vertex -0.196667 0 0.15
      vertex -0.141421 -0.141421 0.15
      vertex -0.139064 -0.139064 0.15
    endloop
  endfacet
  facet normal 0 0 1
    outer loop
      vertex -0.141421 -0.141421 0.15
      vertex -0.196667 0 0.15
      vertex -0.2 0 0.15
    endloop
  endfacet
  facet normal 0.365733 -0.882958 -0.294319
    outer loop
      vertex 0.106066 -0.106066 0
      vertex 0 -0.2 0.15
      vertex 0 -0.15 0
    endloop
  endfacet
  facet normal 0.365736 -0.882958 -0.294317
    outer loop
      vertex 0 -0.2 0.15
      vertex 0.106066 -0.106066 0
      vertex 0.141421 -0.141421 0.15
    endloop
  endfacet
  facet normal -0.365736 -0.882958 -0.294317
    outer loop
      vertex -0.106066 -0.106066 0
      vertex 0 -0.2 0.15
      vertex -0.141421 -0.141421 0.15
    endloop
  endfacet
  facet normal -0.365733 -0.882958 -0.294319
    outer loop
      vertex 0 -0.2 0.15
      vertex -0.106066 -0.106066 0
      vertex 0 -0.15 0
    endloop
  endfacet
  facet normal -0.882958 0.365733 -0.294319
    outer loop
      vertex -0.2 0 0.15
      vertex -0.106066 0.106066 0
      vertex -0.15 0 0
    endloop
  endfacet
  facet normal -0.882958 0.365736 -0.294317
    outer loop
      vertex -0.106066 0.106066 0
      vertex -0.2 0 0.15
      vertex -0.141421 0.141421 0.15
    endloop
  endfacet
  facet normal 0.365736 0.882958 -0.294317
    outer loop
      vertex 0.106066 0.106066 0
      vertex 0 0.2 0.15
      vertex 0.141421 0.141421 0.15
    endloop
  endfacet
  facet normal 0.365733 0.882958 -0.294319
    outer loop
      vertex 0 0.2 0.15
      vertex 0.106066 0.106066 0
      vertex 0 0.15 0
    endloop
  endfacet
  facet normal -0.365733 0.882958 -0.294319
    outer loop
      vertex -0.106066 0.106066 0
      vertex 0 0.2 0.15
      vertex 0 0.15 0
    endloop
  endfacet
  facet normal -0.365736 0.882958 -0.294317
    outer loop
      vertex 0 0.2 0.15
      vertex -0.106066 0.106066 0
      vertex -0.141421 0.141421 0.15
    endloop
  endfacet
  facet normal 0 0 -1
    outer loop
      vertex 0.106066 -0.106066 0
      vertex 0.106066 0.106066 0
      vertex 0.15 0 0
    endloop
  endfacet
  facet normal 0 0 -1
    outer loop
      vertex 0 -0.15 0
      vertex 0.106066 0.106066 0
      vertex 0.106066 -0.106066 0
    endloop
  endfacet
  facet normal 0 0 -1
    outer loop
      vertex 0 -0.15 0
      vertex 0 0.15 0
      vertex 0.106066 0.106066 0
    endloop
  endfacet
  facet normal 0 0 -1
    outer loop
      vertex -0.106066 -0.106066 0
      vertex 0 0.15 0
      vertex 0 -0.15 0
    endloop
  endfacet
  facet normal 0 0 -1
    outer loop
      vertex -0.106066 -0.106066 0
      vertex -0.106066 0.106066 0
      vertex 0 0.15 0
    endloop
  endfacet
  facet normal 0 -0 -1
    outer loop
      vertex -0.106066 0.106066 0
      vertex -0.106066 -0.106066 0
      vertex -0.15 0 0
    endloop
  endfacet
  facet normal -0.882958 -0.365733 0.294321
    outer loop
      vertex 0.196667 0 0.15
      vertex 0.106066 0.106066 0.01
      vertex 0.15 0 0.01
    endloop
  endfacet
  facet normal -0.882957 -0.365738 0.294317
    outer loop
      vertex 0.106066 0.106066 0.01
      vertex 0.196667 0 0.15
      vertex 0.139064 0.139064 0.15
    endloop
  endfacet
  facet normal 0.882958 0.365733 0.294321
    outer loop
      vertex -0.196667 0 0.15
      vertex -0.106066 -0.106066 0.01
      vertex -0.15 0 0.01
    endloop
  endfacet
  facet normal 0.882957 0.365738 0.294317
    outer loop
      vertex -0.106066 -0.106066 0.01
      vertex -0.196667 0 0.15
      vertex -0.139064 -0.139064 0.15
    endloop
  endfacet
  facet normal -0.882958 0.365733 0.294321
    outer loop
      vertex 0.106066 -0.106066 0.01
      vertex 0.196667 0 0.15
      vertex 0.15 0 0.01
    endloop
  endfacet
  facet normal -0.882957 0.365738 0.294317
    outer loop
      vertex 0.196667 0 0.15
      vertex 0.106066 -0.106066 0.01
      vertex 0.139064 -0.139064 0.15
    endloop
  endfacet
  facet normal -0.365738 0.882957 0.294317
    outer loop
      vertex 0.106066 -0.106066 0.01
      vertex 0 -0.196667 0.15
      vertex 0.139064 -0.139064 0.15
    endloop
  endfacet
  facet normal -0.365733 0.882958 0.294321
    outer loop
      vertex 0 -0.196667 0.15
      vertex 0.106066 -0.106066 0.01
      vertex 0 -0.15 0.01
    endloop
  endfacet
  facet normal 0 0 1
    outer loop
      vertex 0.106066 0.106066 0.01
      vertex 0.106066 -0.106066 0.01
      vertex 0.15 0 0.01
    endloop
  endfacet
  facet normal 0 0 1
    outer loop
      vertex 0 0.15 0.01
      vertex 0.106066 -0.106066 0.01
      vertex 0.106066 0.106066 0.01
    endloop
  endfacet
  facet normal 0 0 1
    outer loop
      vertex 0 0.15 0.01
      vertex 0 -0.15 0.01
      vertex 0.106066 -0.106066 0.01
    endloop
  endfacet
  facet normal -0 0 1
    outer loop
      vertex -0.106066 0.106066 0.01
      vertex 0 -0.15 0.01
      vertex 0 0.15 0.01
    endloop
  endfacet
  facet normal 0 0 1
    outer loop
      vertex -0.106066 0.106066 0.01
      vertex -0.106066 -0.106066 0.01
      vertex 0 -0.15 0.01
    endloop
  endfacet
  facet normal 0 -0 1
    outer loop
      vertex -0.106066 -0.106066 0.01
      vertex -0.106066 0.106066 0.01
      vertex -0.15 0 0.01
    endloop
  endfacet
  facet normal 0.365733 0.882958 0.294321
    outer loop
      vertex -0.106066 -0.106066 0.01
      vertex 0 -0.196667 0.15
      vertex 0 -0.15 0.01
    endloop
  endfacet
  facet normal 0.365738 0.882957 0.294317
    outer loop
      vertex 0 -0.196667 0.15
      vertex -0.106066 -0.106066 0.01
      vertex -0.139064 -0.139064 0.15
    endloop
  endfacet
  facet normal 0.882957 -0.365738 0.294317
    outer loop
      vertex -0.196667 0 0.15
      vertex -0.106066 0.106066 0.01
      vertex -0.139064 0.139064 0.15
    endloop
  endfacet
  facet normal 0.882958 -0.365733 0.294321
    outer loop
      vertex -0.106066 0.106066 0.01
      vertex -0.196667 0 0.15
      vertex -0.15 0 0.01
    endloop
  endfacet
  facet normal -0.365733 -0.882958 0.294321
    outer loop
      vertex 0.106066 0.106066 0.01
      vertex 0 0.196667 0.15
      vertex 0 0.15 0.01
    endloop
  endfacet
  facet normal -0.365738 -0.882957 0.294317
    outer loop
      vertex 0 0.196667 0.15
      vertex 0.106066 0.106066 0.01
      vertex 0.139064 0.139064 0.15
    endloop
  endfacet
  facet normal 0.365738 -0.882957 0.294317
    outer loop
      vertex -0.106066 0.106066 0.01
      vertex 0 0.196667 0.15
      vertex -0.139064 0.139064 0.15
    endloop
  endfacet
  facet normal 0.365733 -0.882958 0.294321
    outer loop
      vertex 0 0.196667 0.15
      vertex -0.106066 0.106066 0.01
      vertex 0 0.15 0.01
    endloop
  endfacet
endsolid OpenSCAD_Model
