solid OpenSCAD_Model
  facet normal 0.122579 0.0104868 0.992403
    outer loop
      vertex 0.103404 -0.0958467 0.133367
      vertex 0.00550295 -0.104035 0.145546
      vertex 0.0585802 -0.149266 0.139468
    endloop
  endfacet
  facet normal 0.758249 -0.646158 -0.0868262
    outer loop
      vertex 0.0585802 -0.149266 0.139468
      vertex 0.05 -0.15 0.07
      vertex 0.103404 -0.0958467 0.133367
    endloop
  endfacet
  facet normal 0.758247 -0.64616 -0.0868232
    outer loop
      vertex 0.103404 -0.0958467 0.133367
      vertex 0.05 -0.15 0.07
      vertex 0.0948239 -0.0965809 0.0638991
    endloop
  endfacet
  facet normal 0.122579 0.0104864 0.992403
    outer loop
      vertex 0.0503269 -0.0506155 0.139445
      vertex 0.00550295 -0.104035 0.145546
      vertex 0.103404 -0.0958467 0.133367
    endloop
  endfacet
  facet normal -0.64034 -0.763131 0.0871533
    outer loop
      vertex 0.00550295 -0.104035 0.145546
      vertex -0.00307727 -0.104769 0.0760777
      vertex 0.0585802 -0.149266 0.139468
    endloop
  endfacet
  facet normal -0.758248 0.646159 0.086826
    outer loop
      vertex 0.0417466 -0.0513497 0.0699768
      vertex -0.00307727 -0.104769 0.0760777
      vertex 0.00550295 -0.104035 0.145546
    endloop
  endfacet
  facet normal -0.758249 0.646158 0.0868252
    outer loop
      vertex 0.0417466 -0.0513497 0.0699768
      vertex 0.00550295 -0.104035 0.145546
      vertex 0.0503269 -0.0506155 0.139445
    endloop
  endfacet
  facet normal 0.640342 0.763129 -0.0871552
    outer loop
      vertex 0.0948239 -0.0965809 0.0638991
      vertex 0.0503269 -0.0506155 0.139445
      vertex 0.103404 -0.0958467 0.133367
    endloop
  endfacet
  facet normal 0.640341 0.76313 -0.0871565
    outer loop
      vertex 0.0503269 -0.0506155 0.139445
      vertex 0.0948239 -0.0965809 0.0638991
      vertex 0.0417466 -0.0513497 0.0699768
    endloop
  endfacet
  facet normal -0.122575 -0.0104884 -0.992404
    outer loop
      vertex 0.05 -0.15 0.07
      vertex 0.0417466 -0.0513497 0.0699768
      vertex 0.0948239 -0.0965809 0.0638991
    endloop
  endfacet
  facet normal -0.122575 -0.0104884 -0.992404
    outer loop
      vertex 0.05 -0.15 0.07
      vertex -0.00307727 -0.104769 0.0760777
      vertex 0.0417466 -0.0513497 0.0699768
    endloop
  endfacet
  facet normal -0.64034 -0.763131 0.0871535
    outer loop
      vertex 0.0585802 -0.149266 0.139468
      vertex -0.00307727 -0.104769 0.0760777
      vertex 0.05 -0.15 0.07
    endloop
  endfacet
  facet normal -0.103303 -0.972846 -0.207119
    outer loop
      vertex -0.0953236 0.0349815 0.13821
      vertex -0.1 0.05 0.07
      vertex -0.0258553 0.0289038 0.132109
    endloop
  endfacet
  facet normal -0.103303 -0.972846 -0.20712
    outer loop
      vertex -0.0258553 0.0289038 0.132109
      vertex -0.1 0.05 0.07
      vertex -0.0305317 0.0439223 0.0638991
    endloop
  endfacet
  facet normal 0.0668071 -0.214545 0.974427
    outer loop
      vertex -0.0880924 0.103081 0.152708
      vertex -0.0258553 0.0289038 0.132109
      vertex -0.0186241 0.097003 0.146607
    endloop
  endfacet
  facet normal 0.0668081 -0.214544 0.974427
    outer loop
      vertex -0.0258553 0.0289038 0.132109
      vertex -0.0880924 0.103081 0.152708
      vertex -0.0953236 0.0349815 0.13821
    endloop
  endfacet
  facet normal 0.992404 -0.0868234 -0.0871562
    outer loop
      vertex -0.0186241 0.097003 0.146607
      vertex -0.0305317 0.0439223 0.0638991
      vertex -0.0233005 0.112022 0.0783975
    endloop
  endfacet
  facet normal 0.992404 -0.0868247 -0.0871553
    outer loop
      vertex -0.0258553 0.0289038 0.132109
      vertex -0.0305317 0.0439223 0.0638991
      vertex -0.0186241 0.097003 0.146607
    endloop
  endfacet
  facet normal -0.0668062 0.214549 -0.974426
    outer loop
      vertex -0.0305317 0.0439223 0.0638991
      vertex -0.1 0.05 0.07
      vertex -0.0233005 0.112022 0.0783975
    endloop
  endfacet
  facet normal -0.992404 0.0868244 0.0871551
    outer loop
      vertex -0.0880924 0.103081 0.152708
      vertex -0.1 0.05 0.07
      vertex -0.0953236 0.0349815 0.13821
    endloop
  endfacet
  facet normal -0.992404 0.0868245 0.087155
    outer loop
      vertex -0.0927688 0.118099 0.0844984
      vertex -0.1 0.05 0.07
      vertex -0.0880924 0.103081 0.152708
    endloop
  endfacet
  facet normal 0.103308 0.972844 0.207127
    outer loop
      vertex -0.0233005 0.112022 0.0783975
      vertex -0.0880924 0.103081 0.152708
      vertex -0.0186241 0.097003 0.146607
    endloop
  endfacet
  facet normal 0.103293 0.972848 0.207115
    outer loop
      vertex -0.0233005 0.112022 0.0783975
      vertex -0.0927688 0.118099 0.0844984
      vertex -0.0880924 0.103081 0.152708
    endloop
  endfacet
  facet normal -0.0668081 0.214551 -0.974425
    outer loop
      vertex -0.0233005 0.112022 0.0783975
      vertex -0.1 0.05 0.07
      vertex -0.0927688 0.118099 0.0844984
    endloop
  endfacet
  facet normal 0.314706 -0.915675 0.25
    outer loop
      vertex 0.127525 0.0395293 0.127194
      vertex 0.0622146 0.0220293 0.145311
      vertex 0.115311 0.0175 0.0618827
    endloop
  endfacet
  facet normal 0.174492 0.314701 0.933014
    outer loop
      vertex 0.105496 0.103627 0.109694
      vertex 0.0622146 0.0220293 0.145311
      vertex 0.127525 0.0395293 0.127194
    endloop
  endfacet
  facet normal 0.174489 0.314703 0.933014
    outer loop
      vertex 0.0622146 0.0220293 0.145311
      vertex 0.105496 0.103627 0.109694
      vertex 0.0401853 0.0861266 0.127811
    endloop
  endfacet
  facet normal 0.933015 0.249995 -0.258815
    outer loop
      vertex 0.127525 0.0395293 0.127194
      vertex 0.0932816 0.0815973 0.0443827
      vertex 0.105496 0.103627 0.109694
    endloop
  endfacet
  facet normal 0.933014 0.250004 -0.25881
    outer loop
      vertex 0.115311 0.0175 0.0618827
      vertex 0.0932816 0.0815973 0.0443827
      vertex 0.127525 0.0395293 0.127194
    endloop
  endfacet
  facet normal -0.314705 0.915674 -0.250004
    outer loop
      vertex 0.0932816 0.0815973 0.0443827
      vertex 0.0279707 0.0640973 0.0625
      vertex 0.105496 0.103627 0.109694
    endloop
  endfacet
  facet normal -0.933013 -0.25 0.258819
    outer loop
      vertex 0.0622146 0.0220293 0.145311
      vertex 0.0279707 0.0640973 0.0625
      vertex 0.05 0 0.08
    endloop
  endfacet
  facet normal -0.174494 -0.314704 -0.933013
    outer loop
      vertex 0.05 0 0.08
      vertex 0.0279707 0.0640973 0.0625
      vertex 0.0932816 0.0815973 0.0443827
    endloop
  endfacet
  facet normal -0.314709 0.915674 -0.249998
    outer loop
      vertex 0.105496 0.103627 0.109694
      vertex 0.0279707 0.0640973 0.0625
      vertex 0.0401853 0.0861266 0.127811
    endloop
  endfacet
  facet normal -0.933013 -0.25 0.258819
    outer loop
      vertex 0.0401853 0.0861266 0.127811
      vertex 0.0279707 0.0640973 0.0625
      vertex 0.0622146 0.0220293 0.145311
    endloop
  endfacet
  facet normal -0.174493 -0.314705 -0.933013
    outer loop
      vertex 0.115311 0.0175 0.0618827
      vertex 0.05 0 0.08
      vertex 0.0932816 0.0815973 0.0443827
    endloop
  endfacet
  facet normal 0.314704 -0.915676 0.249999
    outer loop
      vertex 0.0622146 0.0220293 0.145311
      vertex 0.05 0 0.08
      vertex 0.115311 0.0175 0.0618827
    endloop
  endfacet
endsolid OpenSCAD_Model
